%TF.GenerationSoftware,KiCad,Pcbnew,6.0.10-86aedd382b~118~ubuntu20.04.1*%
%TF.CreationDate,2023-03-02T00:13:09-08:00*%
%TF.ProjectId,SolderProject,536f6c64-6572-4507-926f-6a6563742e6b,rev?*%
%TF.SameCoordinates,Original*%
%TF.FileFunction,Copper,L1,Top*%
%TF.FilePolarity,Positive*%
%FSLAX46Y46*%
G04 Gerber Fmt 4.6, Leading zero omitted, Abs format (unit mm)*
G04 Created by KiCad (PCBNEW 6.0.10-86aedd382b~118~ubuntu20.04.1) date 2023-03-02 00:13:09*
%MOMM*%
%LPD*%
G01*
G04 APERTURE LIST*
%TA.AperFunction,ComponentPad*%
%ADD10R,1.800000X1.800000*%
%TD*%
%TA.AperFunction,ComponentPad*%
%ADD11C,1.800000*%
%TD*%
%TA.AperFunction,ComponentPad*%
%ADD12R,1.600000X1.600000*%
%TD*%
%TA.AperFunction,ComponentPad*%
%ADD13O,1.600000X1.600000*%
%TD*%
%TA.AperFunction,ComponentPad*%
%ADD14C,1.600000*%
%TD*%
%TA.AperFunction,ComponentPad*%
%ADD15R,1.700000X1.700000*%
%TD*%
%TA.AperFunction,ComponentPad*%
%ADD16O,1.700000X1.700000*%
%TD*%
%TA.AperFunction,ComponentPad*%
%ADD17C,1.500000*%
%TD*%
%TA.AperFunction,ViaPad*%
%ADD18C,0.800000*%
%TD*%
%TA.AperFunction,Conductor*%
%ADD19C,0.250000*%
%TD*%
%TA.AperFunction,Conductor*%
%ADD20C,0.500000*%
%TD*%
G04 APERTURE END LIST*
D10*
%TO.P,D3,1,K*%
%TO.N,/LED_K*%
X108966000Y-95504000D03*
D11*
%TO.P,D3,2,A*%
%TO.N,Net-(D3-Pad2)*%
X108966000Y-98044000D03*
%TD*%
D10*
%TO.P,D2,1,K*%
%TO.N,/LED_K*%
X115316000Y-89027000D03*
D11*
%TO.P,D2,2,A*%
%TO.N,Net-(D2-Pad2)*%
X115316000Y-91567000D03*
%TD*%
D10*
%TO.P,D5,1,K*%
%TO.N,/LED_K*%
X127635000Y-84265000D03*
D11*
%TO.P,D5,2,A*%
%TO.N,Net-(D5-Pad2)*%
X127635000Y-86805000D03*
%TD*%
D12*
%TO.P,U1,1,GND*%
%TO.N,GND*%
X105410000Y-69850000D03*
D13*
%TO.P,U1,2,TR*%
%TO.N,Net-(C1-Pad1)*%
X107950000Y-69850000D03*
%TO.P,U1,3,Q*%
%TO.N,Net-(U1-Pad3)*%
X110490000Y-69850000D03*
%TO.P,U1,4,R*%
%TO.N,VCC*%
X113030000Y-69850000D03*
%TO.P,U1,5,CV*%
%TO.N,unconnected-(U1-Pad5)*%
X113030000Y-62230000D03*
%TO.P,U1,6,THR*%
%TO.N,Net-(C1-Pad1)*%
X110490000Y-62230000D03*
%TO.P,U1,7,DIS*%
%TO.N,Net-(R1-Pad1)*%
X107950000Y-62230000D03*
%TO.P,U1,8,VCC*%
%TO.N,VCC*%
X105410000Y-62230000D03*
%TD*%
D10*
%TO.P,D6,1,K*%
%TO.N,/LED_K*%
X127845000Y-93980000D03*
D11*
%TO.P,D6,2,A*%
%TO.N,Net-(D6-Pad2)*%
X127845000Y-96520000D03*
%TD*%
D12*
%TO.P,C1,1*%
%TO.N,Net-(C1-Pad1)*%
X135890000Y-75244888D03*
D14*
%TO.P,C1,2*%
%TO.N,GND*%
X135890000Y-77244888D03*
%TD*%
D12*
%TO.P,U2,1,Q5*%
%TO.N,Net-(D6-Pad2)*%
X120650000Y-69850000D03*
D13*
%TO.P,U2,2,Q1*%
%TO.N,Net-(D2-Pad2)*%
X123190000Y-69850000D03*
%TO.P,U2,3,Q0*%
%TO.N,Net-(D1-Pad2)*%
X125730000Y-69850000D03*
%TO.P,U2,4,Q2*%
%TO.N,Net-(D3-Pad2)*%
X128270000Y-69850000D03*
%TO.P,U2,5,Q6*%
%TO.N,Net-(D7-Pad2)*%
X130810000Y-69850000D03*
%TO.P,U2,6,Q7*%
%TO.N,Net-(D8-Pad2)*%
X133350000Y-69850000D03*
%TO.P,U2,7,Q3*%
%TO.N,Net-(D4-Pad2)*%
X135890000Y-69850000D03*
%TO.P,U2,8,VSS*%
%TO.N,GND*%
X138430000Y-69850000D03*
%TO.P,U2,9,Q8*%
%TO.N,Net-(D9-Pad2)*%
X138430000Y-62230000D03*
%TO.P,U2,10,Q4*%
%TO.N,Net-(D5-Pad2)*%
X135890000Y-62230000D03*
%TO.P,U2,11,Q9*%
%TO.N,Net-(D10-Pad2)*%
X133350000Y-62230000D03*
%TO.P,U2,12,Cout*%
%TO.N,unconnected-(U2-Pad12)*%
X130810000Y-62230000D03*
%TO.P,U2,13,CKEN*%
%TO.N,GND*%
X128270000Y-62230000D03*
%TO.P,U2,14,CLK*%
%TO.N,Net-(U1-Pad3)*%
X125730000Y-62230000D03*
%TO.P,U2,15,Reset*%
%TO.N,GND*%
X123190000Y-62230000D03*
%TO.P,U2,16,VDD*%
%TO.N,VCC*%
X120650000Y-62230000D03*
%TD*%
D14*
%TO.P,R3,1*%
%TO.N,/LED_K*%
X147066000Y-76835000D03*
D13*
%TO.P,R3,2*%
%TO.N,GND*%
X157226000Y-76835000D03*
%TD*%
D10*
%TO.P,D7,1,K*%
%TO.N,/LED_K*%
X139700000Y-84265000D03*
D11*
%TO.P,D7,2,A*%
%TO.N,Net-(D7-Pad2)*%
X139700000Y-86805000D03*
%TD*%
D10*
%TO.P,D1,1,K*%
%TO.N,/LED_K*%
X108966000Y-82550000D03*
D11*
%TO.P,D1,2,A*%
%TO.N,Net-(D1-Pad2)*%
X108966000Y-85090000D03*
%TD*%
D15*
%TO.P,B1,1,+*%
%TO.N,VCC*%
X150600000Y-64770000D03*
D16*
%TO.P,B1,2,-*%
%TO.N,GND*%
X150600000Y-67310000D03*
%TD*%
D17*
%TO.P,RV1,1,1*%
%TO.N,Net-(C1-Pad1)*%
X122635000Y-77724000D03*
%TO.P,RV1,2,2*%
%TO.N,Net-(R1-Pad1)*%
X125135000Y-75224000D03*
%TO.P,RV1,3,3*%
X127635000Y-77724000D03*
%TD*%
D10*
%TO.P,D9,1,K*%
%TO.N,/LED_K*%
X151765000Y-84265000D03*
D11*
%TO.P,D9,2,A*%
%TO.N,Net-(D9-Pad2)*%
X151765000Y-86805000D03*
%TD*%
D12*
%TO.P,C2,1*%
%TO.N,VCC*%
X144780000Y-65000000D03*
D14*
%TO.P,C2,2*%
%TO.N,GND*%
X144780000Y-67000000D03*
%TD*%
D10*
%TO.P,D10,1,K*%
%TO.N,/LED_K*%
X151765000Y-93980000D03*
D11*
%TO.P,D10,2,A*%
%TO.N,Net-(D10-Pad2)*%
X151765000Y-96520000D03*
%TD*%
D10*
%TO.P,D8,1,K*%
%TO.N,/LED_K*%
X139192000Y-93980000D03*
D11*
%TO.P,D8,2,A*%
%TO.N,Net-(D8-Pad2)*%
X139192000Y-96520000D03*
%TD*%
D14*
%TO.P,R1,1*%
%TO.N,Net-(R1-Pad1)*%
X113792000Y-76835000D03*
D13*
%TO.P,R1,2*%
%TO.N,VCC*%
X103632000Y-76835000D03*
%TD*%
D10*
%TO.P,D4,1,K*%
%TO.N,/LED_K*%
X102743000Y-89002000D03*
D11*
%TO.P,D4,2,A*%
%TO.N,Net-(D4-Pad2)*%
X102743000Y-91542000D03*
%TD*%
D18*
%TO.N,GND*%
X148920000Y-68260000D03*
X131445000Y-66040000D03*
X152670000Y-74590000D03*
X148580000Y-72680000D03*
X125095000Y-66040000D03*
X150930000Y-72350000D03*
X146950000Y-71460000D03*
X123190000Y-64224500D03*
X114300000Y-66040000D03*
X137123951Y-66675000D03*
X155610000Y-73540000D03*
%TO.N,Net-(U1-Pad3)*%
X116205000Y-65315500D03*
%TO.N,Net-(D1-Pad2)*%
X118641299Y-75423299D03*
%TO.N,Net-(D2-Pad2)*%
X123825000Y-74295000D03*
%TO.N,Net-(D4-Pad2)*%
X125730000Y-72390000D03*
%TO.N,Net-(D5-Pad2)*%
X135890000Y-64859500D03*
%TO.N,Net-(D6-Pad2)*%
X126047500Y-78422500D03*
%TO.N,Net-(D9-Pad2)*%
X138466049Y-65368951D03*
%TO.N,Net-(D10-Pad2)*%
X134530500Y-64224500D03*
%TO.N,Net-(R1-Pad1)*%
X121524549Y-73509951D03*
%TO.N,/LED_K*%
X135360000Y-88500000D03*
X125360000Y-90430000D03*
X146320000Y-80960000D03*
X149100000Y-78950000D03*
X130490000Y-90800000D03*
X122370000Y-92310000D03*
X135790000Y-91290000D03*
X131860000Y-92760000D03*
X127620000Y-90690000D03*
X148300000Y-83160000D03*
X147320000Y-78660000D03*
X143599500Y-83650000D03*
%TD*%
D19*
%TO.N,Net-(C1-Pad1)*%
X107950000Y-69850000D02*
X107950000Y-64770000D01*
X125975000Y-79375000D02*
X131445000Y-79375000D01*
X131445000Y-79375000D02*
X135575112Y-75244888D01*
X122635000Y-77724000D02*
X122381000Y-77470000D01*
X108397991Y-69850000D02*
X107950000Y-69850000D01*
X116017991Y-77470000D02*
X108397991Y-69850000D01*
X122635000Y-77724000D02*
X124324000Y-77724000D01*
X107950000Y-64770000D02*
X110490000Y-62230000D01*
X135575112Y-75244888D02*
X135890000Y-75244888D01*
X124324000Y-77724000D02*
X125975000Y-79375000D01*
X122381000Y-77470000D02*
X116017991Y-77470000D01*
%TO.N,GND*%
X124735000Y-66400000D02*
X125095000Y-66040000D01*
X114300000Y-66040000D02*
X115240000Y-66040000D01*
X132080000Y-66675000D02*
X137123951Y-66675000D01*
X130175000Y-66040000D02*
X131445000Y-66040000D01*
X131445000Y-66040000D02*
X132080000Y-66675000D01*
X115600000Y-66400000D02*
X124735000Y-66400000D01*
X125095000Y-66040000D02*
X130175000Y-66040000D01*
X123190000Y-64224500D02*
X123190000Y-62230000D01*
X115240000Y-66040000D02*
X115600000Y-66400000D01*
%TO.N,Net-(U1-Pad3)*%
X123279500Y-65315500D02*
X125730000Y-62865000D01*
X125730000Y-62865000D02*
X125730000Y-62230000D01*
X116205000Y-65315500D02*
X123279500Y-65315500D01*
D20*
%TO.N,VCC*%
X144780000Y-65000000D02*
X150370000Y-65000000D01*
D19*
X150370000Y-65000000D02*
X150600000Y-64770000D01*
%TO.N,Net-(D1-Pad2)*%
X118618000Y-69632000D02*
X119670000Y-68580000D01*
X118641299Y-75423299D02*
X118618000Y-75400000D01*
X118618000Y-75400000D02*
X118618000Y-69632000D01*
X119670000Y-68580000D02*
X124460000Y-68580000D01*
X124460000Y-68580000D02*
X125730000Y-69850000D01*
%TO.N,Net-(D2-Pad2)*%
X123825000Y-70485000D02*
X123190000Y-69850000D01*
X123825000Y-74295000D02*
X123825000Y-70485000D01*
%TO.N,Net-(D4-Pad2)*%
X126365000Y-73025000D02*
X132715000Y-73025000D01*
X132715000Y-73025000D02*
X135890000Y-69850000D01*
X125730000Y-72390000D02*
X126365000Y-73025000D01*
%TO.N,Net-(D5-Pad2)*%
X135890000Y-64859500D02*
X135890000Y-62230000D01*
%TO.N,Net-(D6-Pad2)*%
X126047500Y-78422500D02*
X123299000Y-75674000D01*
X120650000Y-73660000D02*
X120650000Y-69850000D01*
X123299000Y-75674000D02*
X122664000Y-75674000D01*
X122664000Y-75674000D02*
X120650000Y-73660000D01*
%TO.N,Net-(D9-Pad2)*%
X138430000Y-65332902D02*
X138430000Y-62230000D01*
X138466049Y-65368951D02*
X138430000Y-65332902D01*
%TO.N,Net-(D10-Pad2)*%
X134530500Y-64224500D02*
X133350000Y-63044000D01*
X133350000Y-63044000D02*
X133350000Y-62230000D01*
%TO.N,Net-(R1-Pad1)*%
X127127000Y-77724000D02*
X125135000Y-75732000D01*
X125135000Y-75732000D02*
X125135000Y-75224000D01*
X127635000Y-77724000D02*
X127127000Y-77724000D01*
X107484009Y-70975000D02*
X107805000Y-70975000D01*
X107950000Y-62230000D02*
X106825000Y-63355000D01*
X121524549Y-73509951D02*
X121524549Y-73898153D01*
X107805000Y-70975000D02*
X113665000Y-76835000D01*
X122850396Y-75224000D02*
X125135000Y-75224000D01*
X113665000Y-76835000D02*
X113792000Y-76835000D01*
X121524549Y-73898153D02*
X122850396Y-75224000D01*
X106825000Y-63355000D02*
X106825000Y-70315991D01*
X106825000Y-70315991D02*
X107484009Y-70975000D01*
%TD*%
%TA.AperFunction,Conductor*%
%TO.N,GND*%
G36*
X104536933Y-61036502D02*
G01*
X104583426Y-61090158D01*
X104593530Y-61160432D01*
X104564036Y-61225012D01*
X104557907Y-61231595D01*
X104403802Y-61385700D01*
X104272477Y-61573251D01*
X104270154Y-61578233D01*
X104270151Y-61578238D01*
X104270034Y-61578489D01*
X104175716Y-61780757D01*
X104174294Y-61786065D01*
X104174293Y-61786067D01*
X104118041Y-61996002D01*
X104116457Y-62001913D01*
X104096502Y-62230000D01*
X104116457Y-62458087D01*
X104175716Y-62679243D01*
X104178039Y-62684224D01*
X104178039Y-62684225D01*
X104270151Y-62881762D01*
X104270154Y-62881767D01*
X104272477Y-62886749D01*
X104302385Y-62929462D01*
X104395878Y-63062983D01*
X104403802Y-63074300D01*
X104565700Y-63236198D01*
X104570208Y-63239355D01*
X104570211Y-63239357D01*
X104626963Y-63279095D01*
X104753251Y-63367523D01*
X104758233Y-63369846D01*
X104758238Y-63369849D01*
X104954765Y-63461490D01*
X104960757Y-63464284D01*
X104966065Y-63465706D01*
X104966067Y-63465707D01*
X105176598Y-63522119D01*
X105176600Y-63522119D01*
X105181913Y-63523543D01*
X105410000Y-63543498D01*
X105638087Y-63523543D01*
X105643400Y-63522119D01*
X105643402Y-63522119D01*
X105853933Y-63465707D01*
X105853935Y-63465706D01*
X105859243Y-63464284D01*
X105875514Y-63456697D01*
X105972965Y-63411255D01*
X106012250Y-63392936D01*
X106082442Y-63382275D01*
X106147255Y-63411255D01*
X106186111Y-63470675D01*
X106191500Y-63507131D01*
X106191500Y-68416000D01*
X106171498Y-68484121D01*
X106117842Y-68530614D01*
X106065500Y-68542000D01*
X105682115Y-68542000D01*
X105666876Y-68546475D01*
X105665671Y-68547865D01*
X105664000Y-68555548D01*
X105664000Y-71139884D01*
X105668475Y-71155123D01*
X105669865Y-71156328D01*
X105677548Y-71157999D01*
X106254669Y-71157999D01*
X106261490Y-71157629D01*
X106312352Y-71152105D01*
X106327604Y-71148479D01*
X106448054Y-71103324D01*
X106463649Y-71094786D01*
X106515844Y-71055668D01*
X106582351Y-71030820D01*
X106651733Y-71045873D01*
X106680504Y-71067399D01*
X106980352Y-71367247D01*
X106987896Y-71375537D01*
X106992009Y-71382018D01*
X106997786Y-71387443D01*
X107041676Y-71428658D01*
X107044518Y-71431413D01*
X107064239Y-71451134D01*
X107067434Y-71453612D01*
X107076456Y-71461318D01*
X107108688Y-71491586D01*
X107115637Y-71495406D01*
X107126441Y-71501346D01*
X107142965Y-71512199D01*
X107158968Y-71524613D01*
X107199552Y-71542176D01*
X107210182Y-71547383D01*
X107248949Y-71568695D01*
X107256626Y-71570666D01*
X107256631Y-71570668D01*
X107268567Y-71573732D01*
X107287275Y-71580137D01*
X107305864Y-71588181D01*
X107313689Y-71589420D01*
X107313691Y-71589421D01*
X107349528Y-71595097D01*
X107361149Y-71597504D01*
X107396298Y-71606528D01*
X107403979Y-71608500D01*
X107424240Y-71608500D01*
X107443949Y-71610051D01*
X107463952Y-71613219D01*
X107481089Y-71611599D01*
X107550789Y-71625101D01*
X107582041Y-71647945D01*
X112460334Y-76526238D01*
X112494360Y-76588550D01*
X112496760Y-76626312D01*
X112478502Y-76835000D01*
X112498457Y-77063087D01*
X112499881Y-77068400D01*
X112499881Y-77068402D01*
X112509031Y-77102548D01*
X112557716Y-77284243D01*
X112560039Y-77289224D01*
X112560039Y-77289225D01*
X112652151Y-77486762D01*
X112652154Y-77486767D01*
X112654477Y-77491749D01*
X112657634Y-77496257D01*
X112736785Y-77609296D01*
X112785802Y-77679300D01*
X112947700Y-77841198D01*
X112952208Y-77844355D01*
X112952211Y-77844357D01*
X112998856Y-77877018D01*
X113135251Y-77972523D01*
X113140233Y-77974846D01*
X113140238Y-77974849D01*
X113285082Y-78042390D01*
X113342757Y-78069284D01*
X113348065Y-78070706D01*
X113348067Y-78070707D01*
X113558598Y-78127119D01*
X113558600Y-78127119D01*
X113563913Y-78128543D01*
X113792000Y-78148498D01*
X114020087Y-78128543D01*
X114025400Y-78127119D01*
X114025402Y-78127119D01*
X114235933Y-78070707D01*
X114235935Y-78070706D01*
X114241243Y-78069284D01*
X114298918Y-78042390D01*
X114443762Y-77974849D01*
X114443767Y-77974846D01*
X114448749Y-77972523D01*
X114585144Y-77877018D01*
X114631789Y-77844357D01*
X114631792Y-77844355D01*
X114636300Y-77841198D01*
X114798198Y-77679300D01*
X114847216Y-77609296D01*
X114929523Y-77491749D01*
X114930834Y-77492667D01*
X114976880Y-77448750D01*
X115046592Y-77435304D01*
X115112507Y-77461682D01*
X115123727Y-77471640D01*
X115514334Y-77862247D01*
X115521878Y-77870537D01*
X115525991Y-77877018D01*
X115531768Y-77882443D01*
X115575658Y-77923658D01*
X115578500Y-77926413D01*
X115598221Y-77946134D01*
X115601416Y-77948612D01*
X115610438Y-77956318D01*
X115642670Y-77986586D01*
X115649619Y-77990406D01*
X115660423Y-77996346D01*
X115676947Y-78007199D01*
X115692950Y-78019613D01*
X115733534Y-78037176D01*
X115744164Y-78042383D01*
X115782931Y-78063695D01*
X115790608Y-78065666D01*
X115790613Y-78065668D01*
X115802549Y-78068732D01*
X115821257Y-78075137D01*
X115839846Y-78083181D01*
X115847671Y-78084420D01*
X115847673Y-78084421D01*
X115883510Y-78090097D01*
X115895131Y-78092504D01*
X115930280Y-78101528D01*
X115937961Y-78103500D01*
X115958222Y-78103500D01*
X115977931Y-78105051D01*
X115997934Y-78108219D01*
X116005826Y-78107473D01*
X116011053Y-78106979D01*
X116041945Y-78104059D01*
X116053802Y-78103500D01*
X121343092Y-78103500D01*
X121411213Y-78123502D01*
X121457287Y-78176250D01*
X121538618Y-78350666D01*
X121538621Y-78350671D01*
X121540944Y-78355653D01*
X121544100Y-78360160D01*
X121544101Y-78360162D01*
X121628100Y-78480124D01*
X121667251Y-78536038D01*
X121822962Y-78691749D01*
X121827471Y-78694906D01*
X121827473Y-78694908D01*
X121889902Y-78738621D01*
X122003346Y-78818056D01*
X122202924Y-78911120D01*
X122415629Y-78968115D01*
X122635000Y-78987307D01*
X122854371Y-78968115D01*
X123067076Y-78911120D01*
X123266654Y-78818056D01*
X123380098Y-78738621D01*
X123442527Y-78694908D01*
X123442529Y-78694906D01*
X123447038Y-78691749D01*
X123602749Y-78536038D01*
X123690142Y-78411228D01*
X123745598Y-78366901D01*
X123793354Y-78357500D01*
X124009406Y-78357500D01*
X124077527Y-78377502D01*
X124098501Y-78394405D01*
X125471343Y-79767247D01*
X125478887Y-79775537D01*
X125483000Y-79782018D01*
X125488777Y-79787443D01*
X125532667Y-79828658D01*
X125535509Y-79831413D01*
X125555231Y-79851135D01*
X125558355Y-79853558D01*
X125558359Y-79853562D01*
X125558424Y-79853612D01*
X125567445Y-79861317D01*
X125599679Y-79891586D01*
X125606627Y-79895405D01*
X125606629Y-79895407D01*
X125617432Y-79901346D01*
X125633959Y-79912202D01*
X125643698Y-79919757D01*
X125643700Y-79919758D01*
X125649960Y-79924614D01*
X125690540Y-79942174D01*
X125701188Y-79947391D01*
X125725976Y-79961018D01*
X125739940Y-79968695D01*
X125747616Y-79970666D01*
X125747619Y-79970667D01*
X125759562Y-79973733D01*
X125778267Y-79980137D01*
X125796855Y-79988181D01*
X125804678Y-79989420D01*
X125804688Y-79989423D01*
X125840524Y-79995099D01*
X125852144Y-79997505D01*
X125883959Y-80005673D01*
X125894970Y-80008500D01*
X125915224Y-80008500D01*
X125934934Y-80010051D01*
X125954943Y-80013220D01*
X125962835Y-80012474D01*
X125981580Y-80010702D01*
X125998962Y-80009059D01*
X126010819Y-80008500D01*
X131366233Y-80008500D01*
X131377416Y-80009027D01*
X131384909Y-80010702D01*
X131392835Y-80010453D01*
X131392836Y-80010453D01*
X131452986Y-80008562D01*
X131456945Y-80008500D01*
X131484856Y-80008500D01*
X131488791Y-80008003D01*
X131488856Y-80007995D01*
X131500693Y-80007062D01*
X131532951Y-80006048D01*
X131536970Y-80005922D01*
X131544889Y-80005673D01*
X131564343Y-80000021D01*
X131583700Y-79996013D01*
X131595930Y-79994468D01*
X131595931Y-79994468D01*
X131603797Y-79993474D01*
X131611168Y-79990555D01*
X131611170Y-79990555D01*
X131644912Y-79977196D01*
X131656142Y-79973351D01*
X131690983Y-79963229D01*
X131690984Y-79963229D01*
X131698593Y-79961018D01*
X131705412Y-79956985D01*
X131705417Y-79956983D01*
X131716028Y-79950707D01*
X131733776Y-79942012D01*
X131752617Y-79934552D01*
X131788387Y-79908564D01*
X131798307Y-79902048D01*
X131829535Y-79883580D01*
X131829538Y-79883578D01*
X131836362Y-79879542D01*
X131850683Y-79865221D01*
X131865717Y-79852380D01*
X131867431Y-79851135D01*
X131882107Y-79840472D01*
X131910298Y-79806395D01*
X131918288Y-79797616D01*
X133384954Y-78330950D01*
X135168493Y-78330950D01*
X135177789Y-78342965D01*
X135228994Y-78378819D01*
X135238489Y-78384302D01*
X135435947Y-78476378D01*
X135446239Y-78480124D01*
X135656688Y-78536513D01*
X135667481Y-78538416D01*
X135884525Y-78557405D01*
X135895475Y-78557405D01*
X136112519Y-78538416D01*
X136123312Y-78536513D01*
X136333761Y-78480124D01*
X136344053Y-78476378D01*
X136541511Y-78384302D01*
X136551006Y-78378819D01*
X136603048Y-78342379D01*
X136611424Y-78331900D01*
X136604356Y-78318454D01*
X135902812Y-77616910D01*
X135888868Y-77609296D01*
X135887035Y-77609427D01*
X135880420Y-77613678D01*
X135174923Y-78319175D01*
X135168493Y-78330950D01*
X133384954Y-78330950D01*
X134377411Y-77338493D01*
X134439723Y-77304467D01*
X134510538Y-77309532D01*
X134567374Y-77352079D01*
X134592027Y-77416606D01*
X134596472Y-77467408D01*
X134598375Y-77478200D01*
X134654764Y-77688649D01*
X134658510Y-77698941D01*
X134750586Y-77896399D01*
X134756069Y-77905894D01*
X134792509Y-77957936D01*
X134802988Y-77966312D01*
X134816434Y-77959244D01*
X135800905Y-76974773D01*
X135863217Y-76940747D01*
X135934032Y-76945812D01*
X135979095Y-76974773D01*
X136964287Y-77959965D01*
X136976062Y-77966395D01*
X136988077Y-77957099D01*
X137023931Y-77905894D01*
X137029414Y-77896399D01*
X137121490Y-77698941D01*
X137125236Y-77688649D01*
X137181625Y-77478200D01*
X137183528Y-77467407D01*
X137202517Y-77250363D01*
X137202517Y-77239413D01*
X137183528Y-77022369D01*
X137181625Y-77011576D01*
X137125236Y-76801127D01*
X137121490Y-76790835D01*
X137029414Y-76593377D01*
X137023929Y-76583877D01*
X137023299Y-76582978D01*
X137023144Y-76582518D01*
X137021182Y-76579120D01*
X137021865Y-76578726D01*
X137000612Y-76515704D01*
X137017898Y-76446844D01*
X137040934Y-76421085D01*
X137039730Y-76419881D01*
X137046081Y-76413530D01*
X137053261Y-76408149D01*
X137058642Y-76400969D01*
X137058645Y-76400966D01*
X137135229Y-76298779D01*
X137140615Y-76291593D01*
X137191745Y-76155204D01*
X137198500Y-76093022D01*
X137198500Y-74396754D01*
X137191745Y-74334572D01*
X137140615Y-74198183D01*
X137053261Y-74081627D01*
X136936705Y-73994273D01*
X136800316Y-73943143D01*
X136738134Y-73936388D01*
X135041866Y-73936388D01*
X134979684Y-73943143D01*
X134843295Y-73994273D01*
X134726739Y-74081627D01*
X134639385Y-74198183D01*
X134588255Y-74334572D01*
X134581500Y-74396754D01*
X134581500Y-75290405D01*
X134561498Y-75358526D01*
X134544595Y-75379500D01*
X131219500Y-78704595D01*
X131157188Y-78738621D01*
X131130405Y-78741500D01*
X128699928Y-78741500D01*
X128631807Y-78721498D01*
X128585314Y-78667842D01*
X128575210Y-78597568D01*
X128602702Y-78536085D01*
X128602749Y-78536038D01*
X128729056Y-78355653D01*
X128731379Y-78350671D01*
X128731382Y-78350666D01*
X128778585Y-78249438D01*
X128822120Y-78156076D01*
X128879115Y-77943371D01*
X128898307Y-77724000D01*
X128879115Y-77504629D01*
X128822120Y-77291924D01*
X128778585Y-77198562D01*
X128731382Y-77097334D01*
X128731379Y-77097329D01*
X128729056Y-77092347D01*
X128626451Y-76945812D01*
X128605908Y-76916473D01*
X128605906Y-76916470D01*
X128602749Y-76911962D01*
X128447038Y-76756251D01*
X128266654Y-76629944D01*
X128067076Y-76536880D01*
X127854371Y-76479885D01*
X127635000Y-76460693D01*
X127415629Y-76479885D01*
X127202924Y-76536880D01*
X127032500Y-76616350D01*
X126962308Y-76627011D01*
X126897496Y-76598031D01*
X126890155Y-76591250D01*
X126267750Y-75968845D01*
X126233724Y-75906533D01*
X126238789Y-75835718D01*
X126242650Y-75826500D01*
X126319795Y-75661061D01*
X126322120Y-75656076D01*
X126379115Y-75443371D01*
X126398307Y-75224000D01*
X126379115Y-75004629D01*
X126322120Y-74791924D01*
X126276877Y-74694899D01*
X126231382Y-74597334D01*
X126231379Y-74597329D01*
X126229056Y-74592347D01*
X126102749Y-74411962D01*
X125947038Y-74256251D01*
X125766654Y-74129944D01*
X125567076Y-74036880D01*
X125354371Y-73979885D01*
X125135000Y-73960693D01*
X124915629Y-73979885D01*
X124910323Y-73981307D01*
X124910316Y-73981308D01*
X124812403Y-74007544D01*
X124741427Y-74005854D01*
X124682631Y-73966060D01*
X124665647Y-73935136D01*
X124664253Y-73935757D01*
X124661569Y-73929728D01*
X124659527Y-73923444D01*
X124564040Y-73758056D01*
X124490863Y-73676785D01*
X124460147Y-73612779D01*
X124458500Y-73592476D01*
X124458500Y-70715031D01*
X124478502Y-70646910D01*
X124532158Y-70600417D01*
X124602432Y-70590313D01*
X124667012Y-70619807D01*
X124687713Y-70642760D01*
X124723802Y-70694300D01*
X124885700Y-70856198D01*
X124890208Y-70859355D01*
X124890211Y-70859357D01*
X124931195Y-70888054D01*
X125073251Y-70987523D01*
X125078233Y-70989846D01*
X125078238Y-70989849D01*
X125266425Y-71077601D01*
X125280757Y-71084284D01*
X125286065Y-71085706D01*
X125286067Y-71085707D01*
X125496598Y-71142119D01*
X125496600Y-71142119D01*
X125501913Y-71143543D01*
X125730000Y-71163498D01*
X125958087Y-71143543D01*
X125963400Y-71142119D01*
X125963402Y-71142119D01*
X126173933Y-71085707D01*
X126173935Y-71085706D01*
X126179243Y-71084284D01*
X126193575Y-71077601D01*
X126381762Y-70989849D01*
X126381767Y-70989846D01*
X126386749Y-70987523D01*
X126528805Y-70888054D01*
X126569789Y-70859357D01*
X126569792Y-70859355D01*
X126574300Y-70856198D01*
X126736198Y-70694300D01*
X126867523Y-70506749D01*
X126869846Y-70501767D01*
X126869849Y-70501762D01*
X126885805Y-70467543D01*
X126932722Y-70414258D01*
X127000999Y-70394797D01*
X127068959Y-70415339D01*
X127114195Y-70467543D01*
X127130151Y-70501762D01*
X127130154Y-70501767D01*
X127132477Y-70506749D01*
X127263802Y-70694300D01*
X127425700Y-70856198D01*
X127430208Y-70859355D01*
X127430211Y-70859357D01*
X127471195Y-70888054D01*
X127613251Y-70987523D01*
X127618233Y-70989846D01*
X127618238Y-70989849D01*
X127806425Y-71077601D01*
X127820757Y-71084284D01*
X127826065Y-71085706D01*
X127826067Y-71085707D01*
X128036598Y-71142119D01*
X128036600Y-71142119D01*
X128041913Y-71143543D01*
X128270000Y-71163498D01*
X128498087Y-71143543D01*
X128503400Y-71142119D01*
X128503402Y-71142119D01*
X128713933Y-71085707D01*
X128713935Y-71085706D01*
X128719243Y-71084284D01*
X128733575Y-71077601D01*
X128921762Y-70989849D01*
X128921767Y-70989846D01*
X128926749Y-70987523D01*
X129068805Y-70888054D01*
X129109789Y-70859357D01*
X129109792Y-70859355D01*
X129114300Y-70856198D01*
X129276198Y-70694300D01*
X129407523Y-70506749D01*
X129409846Y-70501767D01*
X129409849Y-70501762D01*
X129425805Y-70467543D01*
X129472722Y-70414258D01*
X129540999Y-70394797D01*
X129608959Y-70415339D01*
X129654195Y-70467543D01*
X129670151Y-70501762D01*
X129670154Y-70501767D01*
X129672477Y-70506749D01*
X129803802Y-70694300D01*
X129965700Y-70856198D01*
X129970208Y-70859355D01*
X129970211Y-70859357D01*
X130011195Y-70888054D01*
X130153251Y-70987523D01*
X130158233Y-70989846D01*
X130158238Y-70989849D01*
X130346425Y-71077601D01*
X130360757Y-71084284D01*
X130366065Y-71085706D01*
X130366067Y-71085707D01*
X130576598Y-71142119D01*
X130576600Y-71142119D01*
X130581913Y-71143543D01*
X130810000Y-71163498D01*
X131038087Y-71143543D01*
X131043400Y-71142119D01*
X131043402Y-71142119D01*
X131253933Y-71085707D01*
X131253935Y-71085706D01*
X131259243Y-71084284D01*
X131273575Y-71077601D01*
X131461762Y-70989849D01*
X131461767Y-70989846D01*
X131466749Y-70987523D01*
X131608805Y-70888054D01*
X131649789Y-70859357D01*
X131649792Y-70859355D01*
X131654300Y-70856198D01*
X131816198Y-70694300D01*
X131947523Y-70506749D01*
X131949846Y-70501767D01*
X131949849Y-70501762D01*
X131965805Y-70467543D01*
X132012722Y-70414258D01*
X132080999Y-70394797D01*
X132148959Y-70415339D01*
X132194195Y-70467543D01*
X132210151Y-70501762D01*
X132210154Y-70501767D01*
X132212477Y-70506749D01*
X132343802Y-70694300D01*
X132505700Y-70856198D01*
X132510208Y-70859355D01*
X132510211Y-70859357D01*
X132551195Y-70888054D01*
X132693251Y-70987523D01*
X132698233Y-70989846D01*
X132698238Y-70989849D01*
X132886425Y-71077601D01*
X132900757Y-71084284D01*
X132906065Y-71085706D01*
X132906067Y-71085707D01*
X133116598Y-71142119D01*
X133116600Y-71142119D01*
X133121913Y-71143543D01*
X133350000Y-71163498D01*
X133355475Y-71163019D01*
X133355485Y-71163019D01*
X133367428Y-71161974D01*
X133437033Y-71175962D01*
X133488026Y-71225361D01*
X133504217Y-71294486D01*
X133480465Y-71361392D01*
X133467506Y-71376589D01*
X132489500Y-72354595D01*
X132427188Y-72388621D01*
X132400405Y-72391500D01*
X126757113Y-72391500D01*
X126688992Y-72371498D01*
X126642499Y-72317842D01*
X126631803Y-72278671D01*
X126624232Y-72206634D01*
X126624231Y-72206631D01*
X126623542Y-72200072D01*
X126564527Y-72018444D01*
X126469040Y-71853056D01*
X126341253Y-71711134D01*
X126206485Y-71613219D01*
X126192094Y-71602763D01*
X126192093Y-71602762D01*
X126186752Y-71598882D01*
X126180724Y-71596198D01*
X126180722Y-71596197D01*
X126018319Y-71523891D01*
X126018318Y-71523891D01*
X126012288Y-71521206D01*
X125918855Y-71501346D01*
X125831944Y-71482872D01*
X125831939Y-71482872D01*
X125825487Y-71481500D01*
X125634513Y-71481500D01*
X125628061Y-71482872D01*
X125628056Y-71482872D01*
X125541145Y-71501346D01*
X125447712Y-71521206D01*
X125441682Y-71523891D01*
X125441681Y-71523891D01*
X125279278Y-71596197D01*
X125279276Y-71596198D01*
X125273248Y-71598882D01*
X125267907Y-71602762D01*
X125267906Y-71602763D01*
X125253515Y-71613219D01*
X125118747Y-71711134D01*
X124990960Y-71853056D01*
X124895473Y-72018444D01*
X124836458Y-72200072D01*
X124816496Y-72390000D01*
X124817186Y-72396565D01*
X124832424Y-72541543D01*
X124836458Y-72579928D01*
X124895473Y-72761556D01*
X124990960Y-72926944D01*
X125118747Y-73068866D01*
X125273248Y-73181118D01*
X125279276Y-73183802D01*
X125279278Y-73183803D01*
X125441681Y-73256109D01*
X125447712Y-73258794D01*
X125541113Y-73278647D01*
X125628056Y-73297128D01*
X125628061Y-73297128D01*
X125634513Y-73298500D01*
X125690406Y-73298500D01*
X125758527Y-73318502D01*
X125779501Y-73335405D01*
X125861343Y-73417247D01*
X125868887Y-73425537D01*
X125873000Y-73432018D01*
X125878777Y-73437443D01*
X125922667Y-73478658D01*
X125925509Y-73481413D01*
X125945231Y-73501135D01*
X125948355Y-73503558D01*
X125948359Y-73503562D01*
X125948424Y-73503612D01*
X125957445Y-73511317D01*
X125989679Y-73541586D01*
X125996627Y-73545405D01*
X125996629Y-73545407D01*
X126007432Y-73551346D01*
X126023959Y-73562202D01*
X126033698Y-73569757D01*
X126033700Y-73569758D01*
X126039960Y-73574614D01*
X126080540Y-73592174D01*
X126091188Y-73597391D01*
X126119179Y-73612779D01*
X126129940Y-73618695D01*
X126137616Y-73620666D01*
X126137619Y-73620667D01*
X126149562Y-73623733D01*
X126168267Y-73630137D01*
X126186855Y-73638181D01*
X126194678Y-73639420D01*
X126194688Y-73639423D01*
X126230524Y-73645099D01*
X126242144Y-73647505D01*
X126273959Y-73655673D01*
X126284970Y-73658500D01*
X126305224Y-73658500D01*
X126324934Y-73660051D01*
X126344943Y-73663220D01*
X126352835Y-73662474D01*
X126372691Y-73660597D01*
X126388962Y-73659059D01*
X126400819Y-73658500D01*
X132636233Y-73658500D01*
X132647416Y-73659027D01*
X132654909Y-73660702D01*
X132662835Y-73660453D01*
X132662836Y-73660453D01*
X132722986Y-73658562D01*
X132726945Y-73658500D01*
X132754856Y-73658500D01*
X132758791Y-73658003D01*
X132758856Y-73657995D01*
X132770693Y-73657062D01*
X132802951Y-73656048D01*
X132806970Y-73655922D01*
X132814889Y-73655673D01*
X132834343Y-73650021D01*
X132853700Y-73646013D01*
X132865930Y-73644468D01*
X132865931Y-73644468D01*
X132873797Y-73643474D01*
X132881168Y-73640555D01*
X132881170Y-73640555D01*
X132914912Y-73627196D01*
X132926142Y-73623351D01*
X132960983Y-73613229D01*
X132960984Y-73613229D01*
X132968593Y-73611018D01*
X132975412Y-73606985D01*
X132975417Y-73606983D01*
X132986028Y-73600707D01*
X133003776Y-73592012D01*
X133022617Y-73584552D01*
X133058387Y-73558564D01*
X133068307Y-73552048D01*
X133099535Y-73533580D01*
X133099538Y-73533578D01*
X133106362Y-73529542D01*
X133120683Y-73515221D01*
X133135717Y-73502380D01*
X133137431Y-73501135D01*
X133152107Y-73490472D01*
X133180298Y-73456395D01*
X133188288Y-73447616D01*
X135476752Y-71159152D01*
X135539064Y-71125126D01*
X135598459Y-71126541D01*
X135656591Y-71142118D01*
X135656602Y-71142120D01*
X135661913Y-71143543D01*
X135890000Y-71163498D01*
X136118087Y-71143543D01*
X136123400Y-71142119D01*
X136123402Y-71142119D01*
X136333933Y-71085707D01*
X136333935Y-71085706D01*
X136339243Y-71084284D01*
X136353575Y-71077601D01*
X136541762Y-70989849D01*
X136541767Y-70989846D01*
X136546749Y-70987523D01*
X136688805Y-70888054D01*
X136729789Y-70859357D01*
X136729792Y-70859355D01*
X136734300Y-70856198D01*
X136896198Y-70694300D01*
X137027523Y-70506749D01*
X137029846Y-70501767D01*
X137029849Y-70501762D01*
X137046081Y-70466951D01*
X137092998Y-70413666D01*
X137161275Y-70394205D01*
X137229235Y-70414747D01*
X137274471Y-70466951D01*
X137290586Y-70501511D01*
X137296069Y-70511007D01*
X137421028Y-70689467D01*
X137428084Y-70697875D01*
X137582125Y-70851916D01*
X137590533Y-70858972D01*
X137768993Y-70983931D01*
X137778489Y-70989414D01*
X137975947Y-71081490D01*
X137986239Y-71085236D01*
X138158503Y-71131394D01*
X138172599Y-71131058D01*
X138176000Y-71123116D01*
X138176000Y-71117967D01*
X138684000Y-71117967D01*
X138687973Y-71131498D01*
X138696522Y-71132727D01*
X138873761Y-71085236D01*
X138884053Y-71081490D01*
X139081511Y-70989414D01*
X139091007Y-70983931D01*
X139269467Y-70858972D01*
X139277875Y-70851916D01*
X139431916Y-70697875D01*
X139438972Y-70689467D01*
X139563931Y-70511007D01*
X139569414Y-70501511D01*
X139661490Y-70304053D01*
X139665236Y-70293761D01*
X139711394Y-70121497D01*
X139711058Y-70107401D01*
X139703116Y-70104000D01*
X138702115Y-70104000D01*
X138686876Y-70108475D01*
X138685671Y-70109865D01*
X138684000Y-70117548D01*
X138684000Y-71117967D01*
X138176000Y-71117967D01*
X138176000Y-69577885D01*
X138684000Y-69577885D01*
X138688475Y-69593124D01*
X138689865Y-69594329D01*
X138697548Y-69596000D01*
X139697967Y-69596000D01*
X139711498Y-69592027D01*
X139712727Y-69583478D01*
X139665236Y-69406239D01*
X139661490Y-69395947D01*
X139569414Y-69198489D01*
X139563931Y-69188993D01*
X139438972Y-69010533D01*
X139431916Y-69002125D01*
X139277875Y-68848084D01*
X139269467Y-68841028D01*
X139091007Y-68716069D01*
X139081511Y-68710586D01*
X138884053Y-68618510D01*
X138873761Y-68614764D01*
X138701497Y-68568606D01*
X138687401Y-68568942D01*
X138684000Y-68576884D01*
X138684000Y-69577885D01*
X138176000Y-69577885D01*
X138176000Y-68582033D01*
X138172027Y-68568502D01*
X138163478Y-68567273D01*
X137986239Y-68614764D01*
X137975947Y-68618510D01*
X137778489Y-68710586D01*
X137768993Y-68716069D01*
X137590533Y-68841028D01*
X137582125Y-68848084D01*
X137428084Y-69002125D01*
X137421028Y-69010533D01*
X137296069Y-69188993D01*
X137290586Y-69198489D01*
X137274471Y-69233049D01*
X137227554Y-69286334D01*
X137159277Y-69305795D01*
X137091317Y-69285253D01*
X137046081Y-69233049D01*
X137029849Y-69198238D01*
X137029846Y-69198233D01*
X137027523Y-69193251D01*
X136896198Y-69005700D01*
X136734300Y-68843802D01*
X136729792Y-68840645D01*
X136729789Y-68840643D01*
X136577228Y-68733819D01*
X136546749Y-68712477D01*
X136541767Y-68710154D01*
X136541762Y-68710151D01*
X136344225Y-68618039D01*
X136344224Y-68618039D01*
X136339243Y-68615716D01*
X136333935Y-68614294D01*
X136333933Y-68614293D01*
X136123402Y-68557881D01*
X136123400Y-68557881D01*
X136118087Y-68556457D01*
X135890000Y-68536502D01*
X135661913Y-68556457D01*
X135656600Y-68557881D01*
X135656598Y-68557881D01*
X135446067Y-68614293D01*
X135446065Y-68614294D01*
X135440757Y-68615716D01*
X135435776Y-68618039D01*
X135435775Y-68618039D01*
X135238238Y-68710151D01*
X135238233Y-68710154D01*
X135233251Y-68712477D01*
X135202772Y-68733819D01*
X135050211Y-68840643D01*
X135050208Y-68840645D01*
X135045700Y-68843802D01*
X134883802Y-69005700D01*
X134752477Y-69193251D01*
X134750154Y-69198233D01*
X134750151Y-69198238D01*
X134734195Y-69232457D01*
X134687278Y-69285742D01*
X134619001Y-69305203D01*
X134551041Y-69284661D01*
X134505805Y-69232457D01*
X134489849Y-69198238D01*
X134489846Y-69198233D01*
X134487523Y-69193251D01*
X134356198Y-69005700D01*
X134194300Y-68843802D01*
X134189792Y-68840645D01*
X134189789Y-68840643D01*
X134037228Y-68733819D01*
X134006749Y-68712477D01*
X134001767Y-68710154D01*
X134001762Y-68710151D01*
X133804225Y-68618039D01*
X133804224Y-68618039D01*
X133799243Y-68615716D01*
X133793935Y-68614294D01*
X133793933Y-68614293D01*
X133583402Y-68557881D01*
X133583400Y-68557881D01*
X133578087Y-68556457D01*
X133350000Y-68536502D01*
X133121913Y-68556457D01*
X133116600Y-68557881D01*
X133116598Y-68557881D01*
X132906067Y-68614293D01*
X132906065Y-68614294D01*
X132900757Y-68615716D01*
X132895776Y-68618039D01*
X132895775Y-68618039D01*
X132698238Y-68710151D01*
X132698233Y-68710154D01*
X132693251Y-68712477D01*
X132662772Y-68733819D01*
X132510211Y-68840643D01*
X132510208Y-68840645D01*
X132505700Y-68843802D01*
X132343802Y-69005700D01*
X132212477Y-69193251D01*
X132210154Y-69198233D01*
X132210151Y-69198238D01*
X132194195Y-69232457D01*
X132147278Y-69285742D01*
X132079001Y-69305203D01*
X132011041Y-69284661D01*
X131965805Y-69232457D01*
X131949849Y-69198238D01*
X131949846Y-69198233D01*
X131947523Y-69193251D01*
X131816198Y-69005700D01*
X131654300Y-68843802D01*
X131649792Y-68840645D01*
X131649789Y-68840643D01*
X131497228Y-68733819D01*
X131466749Y-68712477D01*
X131461767Y-68710154D01*
X131461762Y-68710151D01*
X131264225Y-68618039D01*
X131264224Y-68618039D01*
X131259243Y-68615716D01*
X131253935Y-68614294D01*
X131253933Y-68614293D01*
X131043402Y-68557881D01*
X131043400Y-68557881D01*
X131038087Y-68556457D01*
X130810000Y-68536502D01*
X130581913Y-68556457D01*
X130576600Y-68557881D01*
X130576598Y-68557881D01*
X130366067Y-68614293D01*
X130366065Y-68614294D01*
X130360757Y-68615716D01*
X130355776Y-68618039D01*
X130355775Y-68618039D01*
X130158238Y-68710151D01*
X130158233Y-68710154D01*
X130153251Y-68712477D01*
X130122772Y-68733819D01*
X129970211Y-68840643D01*
X129970208Y-68840645D01*
X129965700Y-68843802D01*
X129803802Y-69005700D01*
X129672477Y-69193251D01*
X129670154Y-69198233D01*
X129670151Y-69198238D01*
X129654195Y-69232457D01*
X129607278Y-69285742D01*
X129539001Y-69305203D01*
X129471041Y-69284661D01*
X129425805Y-69232457D01*
X129409849Y-69198238D01*
X129409846Y-69198233D01*
X129407523Y-69193251D01*
X129276198Y-69005700D01*
X129114300Y-68843802D01*
X129109792Y-68840645D01*
X129109789Y-68840643D01*
X128957228Y-68733819D01*
X128926749Y-68712477D01*
X128921767Y-68710154D01*
X128921762Y-68710151D01*
X128724225Y-68618039D01*
X128724224Y-68618039D01*
X128719243Y-68615716D01*
X128713935Y-68614294D01*
X128713933Y-68614293D01*
X128503402Y-68557881D01*
X128503400Y-68557881D01*
X128498087Y-68556457D01*
X128270000Y-68536502D01*
X128041913Y-68556457D01*
X128036600Y-68557881D01*
X128036598Y-68557881D01*
X127826067Y-68614293D01*
X127826065Y-68614294D01*
X127820757Y-68615716D01*
X127815776Y-68618039D01*
X127815775Y-68618039D01*
X127618238Y-68710151D01*
X127618233Y-68710154D01*
X127613251Y-68712477D01*
X127582772Y-68733819D01*
X127430211Y-68840643D01*
X127430208Y-68840645D01*
X127425700Y-68843802D01*
X127263802Y-69005700D01*
X127132477Y-69193251D01*
X127130154Y-69198233D01*
X127130151Y-69198238D01*
X127114195Y-69232457D01*
X127067278Y-69285742D01*
X126999001Y-69305203D01*
X126931041Y-69284661D01*
X126885805Y-69232457D01*
X126869849Y-69198238D01*
X126869846Y-69198233D01*
X126867523Y-69193251D01*
X126736198Y-69005700D01*
X126574300Y-68843802D01*
X126569792Y-68840645D01*
X126569789Y-68840643D01*
X126417228Y-68733819D01*
X126386749Y-68712477D01*
X126381767Y-68710154D01*
X126381762Y-68710151D01*
X126184225Y-68618039D01*
X126184224Y-68618039D01*
X126179243Y-68615716D01*
X126173935Y-68614294D01*
X126173933Y-68614293D01*
X125963402Y-68557881D01*
X125963400Y-68557881D01*
X125958087Y-68556457D01*
X125730000Y-68536502D01*
X125501913Y-68556457D01*
X125438458Y-68573460D01*
X125367482Y-68571770D01*
X125316753Y-68540848D01*
X124963652Y-68187747D01*
X124956112Y-68179461D01*
X124952000Y-68172982D01*
X124902348Y-68126356D01*
X124899507Y-68123602D01*
X124879770Y-68103865D01*
X124876573Y-68101385D01*
X124867551Y-68093680D01*
X124859439Y-68086062D01*
X144058493Y-68086062D01*
X144067789Y-68098077D01*
X144118994Y-68133931D01*
X144128489Y-68139414D01*
X144325947Y-68231490D01*
X144336239Y-68235236D01*
X144546688Y-68291625D01*
X144557481Y-68293528D01*
X144774525Y-68312517D01*
X144785475Y-68312517D01*
X145002519Y-68293528D01*
X145013312Y-68291625D01*
X145223761Y-68235236D01*
X145234053Y-68231490D01*
X145431511Y-68139414D01*
X145441006Y-68133931D01*
X145493048Y-68097491D01*
X145501424Y-68087012D01*
X145494356Y-68073566D01*
X144792812Y-67372022D01*
X144778868Y-67364408D01*
X144777035Y-67364539D01*
X144770420Y-67368790D01*
X144064923Y-68074287D01*
X144058493Y-68086062D01*
X124859439Y-68086062D01*
X124835321Y-68063414D01*
X124828375Y-68059595D01*
X124828372Y-68059593D01*
X124817566Y-68053652D01*
X124801047Y-68042801D01*
X124800583Y-68042441D01*
X124785041Y-68030386D01*
X124777772Y-68027241D01*
X124777768Y-68027238D01*
X124744463Y-68012826D01*
X124733813Y-68007609D01*
X124695060Y-67986305D01*
X124675437Y-67981267D01*
X124656734Y-67974863D01*
X124645420Y-67969967D01*
X124645419Y-67969967D01*
X124638145Y-67966819D01*
X124630322Y-67965580D01*
X124630312Y-67965577D01*
X124594476Y-67959901D01*
X124582856Y-67957495D01*
X124547711Y-67948472D01*
X124547710Y-67948472D01*
X124540030Y-67946500D01*
X124519776Y-67946500D01*
X124500065Y-67944949D01*
X124487886Y-67943020D01*
X124480057Y-67941780D01*
X124450786Y-67944547D01*
X124436039Y-67945941D01*
X124424181Y-67946500D01*
X119748768Y-67946500D01*
X119737585Y-67945973D01*
X119730092Y-67944298D01*
X119722166Y-67944547D01*
X119722165Y-67944547D01*
X119662002Y-67946438D01*
X119658044Y-67946500D01*
X119630144Y-67946500D01*
X119626154Y-67947004D01*
X119614320Y-67947936D01*
X119570111Y-67949326D01*
X119562495Y-67951539D01*
X119562493Y-67951539D01*
X119550652Y-67954979D01*
X119531293Y-67958988D01*
X119529983Y-67959154D01*
X119511203Y-67961526D01*
X119503837Y-67964442D01*
X119503831Y-67964444D01*
X119470098Y-67977800D01*
X119458868Y-67981645D01*
X119442828Y-67986305D01*
X119416407Y-67993981D01*
X119409584Y-67998016D01*
X119398966Y-68004295D01*
X119381213Y-68012992D01*
X119373568Y-68016019D01*
X119362383Y-68020448D01*
X119348705Y-68030386D01*
X119326612Y-68046437D01*
X119316695Y-68052951D01*
X119278638Y-68075458D01*
X119264317Y-68089779D01*
X119249284Y-68102619D01*
X119232893Y-68114528D01*
X119204702Y-68148605D01*
X119196722Y-68157374D01*
X118225736Y-69128359D01*
X118217462Y-69135888D01*
X118210982Y-69140000D01*
X118205557Y-69145777D01*
X118164357Y-69189651D01*
X118161602Y-69192493D01*
X118141865Y-69212230D01*
X118139385Y-69215427D01*
X118131682Y-69224447D01*
X118101414Y-69256679D01*
X118097595Y-69263625D01*
X118097593Y-69263628D01*
X118091652Y-69274434D01*
X118080801Y-69290953D01*
X118068386Y-69306959D01*
X118065241Y-69314228D01*
X118065238Y-69314232D01*
X118050826Y-69347537D01*
X118045609Y-69358187D01*
X118024305Y-69396940D01*
X118022334Y-69404615D01*
X118022334Y-69404616D01*
X118019267Y-69416562D01*
X118012863Y-69435266D01*
X118004819Y-69453855D01*
X118003580Y-69461678D01*
X118003577Y-69461688D01*
X117997901Y-69497524D01*
X117995495Y-69509144D01*
X117984500Y-69551970D01*
X117984500Y-69572224D01*
X117982949Y-69591934D01*
X117979780Y-69611943D01*
X117980526Y-69619835D01*
X117983941Y-69655961D01*
X117984500Y-69667819D01*
X117984500Y-74746651D01*
X117964498Y-74814772D01*
X117952136Y-74830960D01*
X117902259Y-74886355D01*
X117806772Y-75051743D01*
X117747757Y-75233371D01*
X117747067Y-75239932D01*
X117747067Y-75239934D01*
X117736277Y-75342595D01*
X117727795Y-75423299D01*
X117728485Y-75429864D01*
X117741351Y-75552273D01*
X117747757Y-75613227D01*
X117806772Y-75794855D01*
X117810075Y-75800577D01*
X117810076Y-75800578D01*
X117830364Y-75835718D01*
X117902259Y-75960243D01*
X117906677Y-75965150D01*
X117906678Y-75965151D01*
X118024872Y-76096419D01*
X118030046Y-76102165D01*
X118128564Y-76173743D01*
X118151747Y-76190586D01*
X118184547Y-76214417D01*
X118190575Y-76217101D01*
X118190577Y-76217102D01*
X118321066Y-76275199D01*
X118359011Y-76292093D01*
X118430573Y-76307304D01*
X118539355Y-76330427D01*
X118539360Y-76330427D01*
X118545812Y-76331799D01*
X118736786Y-76331799D01*
X118743238Y-76330427D01*
X118743243Y-76330427D01*
X118852025Y-76307304D01*
X118923587Y-76292093D01*
X118961532Y-76275199D01*
X119092021Y-76217102D01*
X119092023Y-76217101D01*
X119098051Y-76214417D01*
X119130852Y-76190586D01*
X119154034Y-76173743D01*
X119252552Y-76102165D01*
X119257726Y-76096419D01*
X119375920Y-75965151D01*
X119375921Y-75965150D01*
X119380339Y-75960243D01*
X119452234Y-75835718D01*
X119472522Y-75800578D01*
X119472523Y-75800577D01*
X119475826Y-75794855D01*
X119534841Y-75613227D01*
X119541248Y-75552273D01*
X119554113Y-75429864D01*
X119554803Y-75423299D01*
X119546321Y-75342595D01*
X119535531Y-75239934D01*
X119535531Y-75239932D01*
X119534841Y-75233371D01*
X119475826Y-75051743D01*
X119380339Y-74886355D01*
X119283862Y-74779207D01*
X119253147Y-74715202D01*
X119251500Y-74694899D01*
X119251500Y-71077601D01*
X119271502Y-71009480D01*
X119325158Y-70962987D01*
X119395432Y-70952883D01*
X119460012Y-70982377D01*
X119478324Y-71002033D01*
X119486739Y-71013261D01*
X119603295Y-71100615D01*
X119739684Y-71151745D01*
X119801866Y-71158500D01*
X119890500Y-71158500D01*
X119958621Y-71178502D01*
X120005114Y-71232158D01*
X120016500Y-71284500D01*
X120016500Y-73581233D01*
X120015973Y-73592416D01*
X120014298Y-73599909D01*
X120014547Y-73607835D01*
X120014547Y-73607836D01*
X120016438Y-73667986D01*
X120016500Y-73671945D01*
X120016500Y-73699856D01*
X120016997Y-73703790D01*
X120016997Y-73703791D01*
X120017005Y-73703856D01*
X120017938Y-73715693D01*
X120019327Y-73759889D01*
X120023517Y-73774310D01*
X120024978Y-73779339D01*
X120028987Y-73798700D01*
X120031526Y-73818797D01*
X120034445Y-73826168D01*
X120034445Y-73826170D01*
X120047804Y-73859912D01*
X120051649Y-73871142D01*
X120063982Y-73913593D01*
X120068015Y-73920412D01*
X120068017Y-73920417D01*
X120074293Y-73931028D01*
X120082988Y-73948776D01*
X120090448Y-73967617D01*
X120095110Y-73974033D01*
X120095110Y-73974034D01*
X120116436Y-74003387D01*
X120122952Y-74013307D01*
X120136052Y-74035457D01*
X120145458Y-74051362D01*
X120159779Y-74065683D01*
X120172619Y-74080716D01*
X120184528Y-74097107D01*
X120218605Y-74125298D01*
X120227384Y-74133288D01*
X122160348Y-76066253D01*
X122167888Y-76074539D01*
X122172000Y-76081018D01*
X122177777Y-76086443D01*
X122221651Y-76127643D01*
X122224493Y-76130398D01*
X122244230Y-76150135D01*
X122247427Y-76152615D01*
X122256447Y-76160318D01*
X122288679Y-76190586D01*
X122295625Y-76194405D01*
X122295628Y-76194407D01*
X122306434Y-76200348D01*
X122322953Y-76211199D01*
X122338959Y-76223614D01*
X122346228Y-76226759D01*
X122346232Y-76226762D01*
X122379537Y-76241174D01*
X122390199Y-76246397D01*
X122409409Y-76256958D01*
X122459467Y-76307304D01*
X122474360Y-76376721D01*
X122449358Y-76443170D01*
X122392401Y-76485553D01*
X122381323Y-76489077D01*
X122202924Y-76536880D01*
X122147156Y-76562885D01*
X122008334Y-76627618D01*
X122008329Y-76627621D01*
X122003347Y-76629944D01*
X121998840Y-76633100D01*
X121998838Y-76633101D01*
X121827473Y-76753092D01*
X121827470Y-76753094D01*
X121822962Y-76756251D01*
X121779618Y-76799595D01*
X121717306Y-76833621D01*
X121690523Y-76836500D01*
X116332586Y-76836500D01*
X116264465Y-76816498D01*
X116243491Y-76799595D01*
X110769366Y-71325470D01*
X110735340Y-71263158D01*
X110740405Y-71192343D01*
X110782952Y-71135507D01*
X110825849Y-71114668D01*
X110933936Y-71085706D01*
X110939243Y-71084284D01*
X110953575Y-71077601D01*
X111141762Y-70989849D01*
X111141767Y-70989846D01*
X111146749Y-70987523D01*
X111288805Y-70888054D01*
X111329789Y-70859357D01*
X111329792Y-70859355D01*
X111334300Y-70856198D01*
X111496198Y-70694300D01*
X111627523Y-70506749D01*
X111629846Y-70501767D01*
X111629849Y-70501762D01*
X111645805Y-70467543D01*
X111692722Y-70414258D01*
X111760999Y-70394797D01*
X111828959Y-70415339D01*
X111874195Y-70467543D01*
X111890151Y-70501762D01*
X111890154Y-70501767D01*
X111892477Y-70506749D01*
X112023802Y-70694300D01*
X112185700Y-70856198D01*
X112190208Y-70859355D01*
X112190211Y-70859357D01*
X112231195Y-70888054D01*
X112373251Y-70987523D01*
X112378233Y-70989846D01*
X112378238Y-70989849D01*
X112566425Y-71077601D01*
X112580757Y-71084284D01*
X112586065Y-71085706D01*
X112586067Y-71085707D01*
X112796598Y-71142119D01*
X112796600Y-71142119D01*
X112801913Y-71143543D01*
X113030000Y-71163498D01*
X113258087Y-71143543D01*
X113263400Y-71142119D01*
X113263402Y-71142119D01*
X113473933Y-71085707D01*
X113473935Y-71085706D01*
X113479243Y-71084284D01*
X113493575Y-71077601D01*
X113681762Y-70989849D01*
X113681767Y-70989846D01*
X113686749Y-70987523D01*
X113828805Y-70888054D01*
X113869789Y-70859357D01*
X113869792Y-70859355D01*
X113874300Y-70856198D01*
X114036198Y-70694300D01*
X114167523Y-70506749D01*
X114169846Y-70501767D01*
X114169849Y-70501762D01*
X114261961Y-70304225D01*
X114261961Y-70304224D01*
X114264284Y-70299243D01*
X114278538Y-70246049D01*
X114322119Y-70083402D01*
X114322119Y-70083400D01*
X114323543Y-70078087D01*
X114343498Y-69850000D01*
X114323543Y-69621913D01*
X114315535Y-69592027D01*
X114265707Y-69406067D01*
X114265706Y-69406065D01*
X114264284Y-69400757D01*
X114261500Y-69394787D01*
X114169849Y-69198238D01*
X114169846Y-69198233D01*
X114167523Y-69193251D01*
X114036198Y-69005700D01*
X113874300Y-68843802D01*
X113869792Y-68840645D01*
X113869789Y-68840643D01*
X113717228Y-68733819D01*
X113686749Y-68712477D01*
X113681767Y-68710154D01*
X113681762Y-68710151D01*
X113484225Y-68618039D01*
X113484224Y-68618039D01*
X113479243Y-68615716D01*
X113473935Y-68614294D01*
X113473933Y-68614293D01*
X113263402Y-68557881D01*
X113263400Y-68557881D01*
X113258087Y-68556457D01*
X113030000Y-68536502D01*
X112801913Y-68556457D01*
X112796600Y-68557881D01*
X112796598Y-68557881D01*
X112586067Y-68614293D01*
X112586065Y-68614294D01*
X112580757Y-68615716D01*
X112575776Y-68618039D01*
X112575775Y-68618039D01*
X112378238Y-68710151D01*
X112378233Y-68710154D01*
X112373251Y-68712477D01*
X112342772Y-68733819D01*
X112190211Y-68840643D01*
X112190208Y-68840645D01*
X112185700Y-68843802D01*
X112023802Y-69005700D01*
X111892477Y-69193251D01*
X111890154Y-69198233D01*
X111890151Y-69198238D01*
X111874195Y-69232457D01*
X111827278Y-69285742D01*
X111759001Y-69305203D01*
X111691041Y-69284661D01*
X111645805Y-69232457D01*
X111629849Y-69198238D01*
X111629846Y-69198233D01*
X111627523Y-69193251D01*
X111496198Y-69005700D01*
X111334300Y-68843802D01*
X111329792Y-68840645D01*
X111329789Y-68840643D01*
X111177228Y-68733819D01*
X111146749Y-68712477D01*
X111141767Y-68710154D01*
X111141762Y-68710151D01*
X110944225Y-68618039D01*
X110944224Y-68618039D01*
X110939243Y-68615716D01*
X110933935Y-68614294D01*
X110933933Y-68614293D01*
X110723402Y-68557881D01*
X110723400Y-68557881D01*
X110718087Y-68556457D01*
X110490000Y-68536502D01*
X110261913Y-68556457D01*
X110256600Y-68557881D01*
X110256598Y-68557881D01*
X110046067Y-68614293D01*
X110046065Y-68614294D01*
X110040757Y-68615716D01*
X110035776Y-68618039D01*
X110035775Y-68618039D01*
X109838238Y-68710151D01*
X109838233Y-68710154D01*
X109833251Y-68712477D01*
X109802772Y-68733819D01*
X109650211Y-68840643D01*
X109650208Y-68840645D01*
X109645700Y-68843802D01*
X109483802Y-69005700D01*
X109352477Y-69193251D01*
X109350154Y-69198233D01*
X109350151Y-69198238D01*
X109334195Y-69232457D01*
X109287278Y-69285742D01*
X109219001Y-69305203D01*
X109151041Y-69284661D01*
X109105805Y-69232457D01*
X109089849Y-69198238D01*
X109089846Y-69198233D01*
X109087523Y-69193251D01*
X108956198Y-69005700D01*
X108794300Y-68843802D01*
X108789792Y-68840645D01*
X108789789Y-68840643D01*
X108637229Y-68733819D01*
X108592901Y-68678362D01*
X108583500Y-68630606D01*
X108583500Y-67005475D01*
X143467483Y-67005475D01*
X143486472Y-67222519D01*
X143488375Y-67233312D01*
X143544764Y-67443761D01*
X143548510Y-67454053D01*
X143640586Y-67651511D01*
X143646069Y-67661006D01*
X143682509Y-67713048D01*
X143692988Y-67721424D01*
X143706434Y-67714356D01*
X144690905Y-66729885D01*
X144753217Y-66695859D01*
X144824032Y-66700924D01*
X144869095Y-66729885D01*
X145854287Y-67715077D01*
X145866062Y-67721507D01*
X145878077Y-67712211D01*
X145913931Y-67661006D01*
X145919414Y-67651511D01*
X145953709Y-67577966D01*
X149268257Y-67577966D01*
X149298565Y-67712446D01*
X149301645Y-67722275D01*
X149381770Y-67919603D01*
X149386413Y-67928794D01*
X149497694Y-68110388D01*
X149503777Y-68118699D01*
X149643213Y-68279667D01*
X149650580Y-68286883D01*
X149814434Y-68422916D01*
X149822881Y-68428831D01*
X150006756Y-68536279D01*
X150016042Y-68540729D01*
X150215001Y-68616703D01*
X150224899Y-68619579D01*
X150328250Y-68640606D01*
X150342299Y-68639410D01*
X150346000Y-68629065D01*
X150346000Y-68628517D01*
X150854000Y-68628517D01*
X150858064Y-68642359D01*
X150871478Y-68644393D01*
X150878184Y-68643534D01*
X150888262Y-68641392D01*
X151092255Y-68580191D01*
X151101842Y-68576433D01*
X151293095Y-68482739D01*
X151301945Y-68477464D01*
X151475328Y-68353792D01*
X151483200Y-68347139D01*
X151634052Y-68196812D01*
X151640730Y-68188965D01*
X151765003Y-68016020D01*
X151770313Y-68007183D01*
X151864670Y-67816267D01*
X151868469Y-67806672D01*
X151930377Y-67602910D01*
X151932555Y-67592837D01*
X151933986Y-67581962D01*
X151931775Y-67567778D01*
X151918617Y-67564000D01*
X150872115Y-67564000D01*
X150856876Y-67568475D01*
X150855671Y-67569865D01*
X150854000Y-67577548D01*
X150854000Y-68628517D01*
X150346000Y-68628517D01*
X150346000Y-67582115D01*
X150341525Y-67566876D01*
X150340135Y-67565671D01*
X150332452Y-67564000D01*
X149283225Y-67564000D01*
X149269694Y-67567973D01*
X149268257Y-67577966D01*
X145953709Y-67577966D01*
X146011490Y-67454053D01*
X146015236Y-67443761D01*
X146071625Y-67233312D01*
X146073528Y-67222519D01*
X146092517Y-67005475D01*
X146092517Y-66994525D01*
X146073528Y-66777481D01*
X146071625Y-66766688D01*
X146015236Y-66556239D01*
X146011490Y-66545947D01*
X145919414Y-66348489D01*
X145913929Y-66338989D01*
X145913299Y-66338090D01*
X145913144Y-66337630D01*
X145911182Y-66334232D01*
X145911865Y-66333838D01*
X145890612Y-66270816D01*
X145907898Y-66201956D01*
X145930934Y-66176197D01*
X145929730Y-66174993D01*
X145936081Y-66168642D01*
X145943261Y-66163261D01*
X145948642Y-66156081D01*
X145948645Y-66156078D01*
X146025229Y-66053891D01*
X146030615Y-66046705D01*
X146081745Y-65910316D01*
X146085702Y-65873891D01*
X146086028Y-65870892D01*
X146113270Y-65805330D01*
X146171634Y-65764904D01*
X146211291Y-65758500D01*
X149171493Y-65758500D01*
X149239614Y-65778502D01*
X149286107Y-65832158D01*
X149289471Y-65840260D01*
X149299385Y-65866705D01*
X149304765Y-65873884D01*
X149304767Y-65873887D01*
X149337615Y-65917715D01*
X149386739Y-65983261D01*
X149503295Y-66070615D01*
X149511704Y-66073767D01*
X149511705Y-66073768D01*
X149620960Y-66114726D01*
X149677725Y-66157367D01*
X149702425Y-66223929D01*
X149687218Y-66293278D01*
X149667825Y-66319759D01*
X149544590Y-66448717D01*
X149538104Y-66456727D01*
X149418098Y-66632649D01*
X149413000Y-66641623D01*
X149323338Y-66834783D01*
X149319775Y-66844470D01*
X149264389Y-67044183D01*
X149265912Y-67052607D01*
X149278292Y-67056000D01*
X151918344Y-67056000D01*
X151931875Y-67052027D01*
X151933180Y-67042947D01*
X151891214Y-66875875D01*
X151887894Y-66866124D01*
X151802972Y-66670814D01*
X151798105Y-66661739D01*
X151682426Y-66482926D01*
X151676136Y-66474757D01*
X151532293Y-66316677D01*
X151501241Y-66252831D01*
X151509635Y-66182333D01*
X151554812Y-66127564D01*
X151581256Y-66113895D01*
X151688297Y-66073767D01*
X151696705Y-66070615D01*
X151790926Y-66000000D01*
X153686555Y-66000000D01*
X153686825Y-66004119D01*
X153702138Y-66237745D01*
X153706313Y-66301450D01*
X153707117Y-66305490D01*
X153707117Y-66305493D01*
X153756994Y-66556239D01*
X153765249Y-66597742D01*
X153766575Y-66601648D01*
X153766576Y-66601652D01*
X153826262Y-66777481D01*
X153862355Y-66883806D01*
X153864176Y-66887499D01*
X153864177Y-66887501D01*
X153947272Y-67056000D01*
X153995969Y-67154748D01*
X153998263Y-67158181D01*
X154136060Y-67364408D01*
X154163805Y-67405932D01*
X154166519Y-67409026D01*
X154166523Y-67409032D01*
X154302427Y-67564000D01*
X154362991Y-67633060D01*
X154366080Y-67635769D01*
X154587019Y-67829528D01*
X154587025Y-67829532D01*
X154590119Y-67832246D01*
X154593545Y-67834535D01*
X154593550Y-67834539D01*
X154720858Y-67919603D01*
X154841303Y-68000082D01*
X154845002Y-68001906D01*
X154845007Y-68001909D01*
X155097363Y-68126357D01*
X155112245Y-68133696D01*
X155116143Y-68135019D01*
X155116145Y-68135020D01*
X155394399Y-68229475D01*
X155394403Y-68229476D01*
X155398309Y-68230802D01*
X155402353Y-68231606D01*
X155402359Y-68231608D01*
X155690558Y-68288934D01*
X155690561Y-68288934D01*
X155694601Y-68289738D01*
X155698712Y-68290007D01*
X155698716Y-68290008D01*
X155991932Y-68309226D01*
X155996051Y-68309496D01*
X156000170Y-68309226D01*
X156293386Y-68290008D01*
X156293390Y-68290007D01*
X156297501Y-68289738D01*
X156301541Y-68288934D01*
X156301544Y-68288934D01*
X156589743Y-68231608D01*
X156589749Y-68231606D01*
X156593793Y-68230802D01*
X156597699Y-68229476D01*
X156597703Y-68229475D01*
X156875957Y-68135020D01*
X156875959Y-68135019D01*
X156879857Y-68133696D01*
X156894739Y-68126357D01*
X157147095Y-68001909D01*
X157147100Y-68001906D01*
X157150799Y-68000082D01*
X157271244Y-67919603D01*
X157398552Y-67834539D01*
X157398557Y-67834535D01*
X157401983Y-67832246D01*
X157405077Y-67829532D01*
X157405083Y-67829528D01*
X157626022Y-67635769D01*
X157629111Y-67633060D01*
X157689675Y-67564000D01*
X157825579Y-67409032D01*
X157825583Y-67409026D01*
X157828297Y-67405932D01*
X157856043Y-67364408D01*
X157993839Y-67158181D01*
X157996133Y-67154748D01*
X158044831Y-67056000D01*
X158127925Y-66887501D01*
X158127926Y-66887499D01*
X158129747Y-66883806D01*
X158165840Y-66777481D01*
X158225526Y-66601652D01*
X158225527Y-66601648D01*
X158226853Y-66597742D01*
X158235109Y-66556239D01*
X158284985Y-66305493D01*
X158284985Y-66305490D01*
X158285789Y-66301450D01*
X158289965Y-66237745D01*
X158305277Y-66004119D01*
X158305547Y-66000000D01*
X158298416Y-65891207D01*
X158286059Y-65702665D01*
X158286058Y-65702661D01*
X158285789Y-65698550D01*
X158258007Y-65558879D01*
X158227659Y-65406308D01*
X158227657Y-65406302D01*
X158226853Y-65402258D01*
X158224880Y-65396444D01*
X158131071Y-65120094D01*
X158131070Y-65120092D01*
X158129747Y-65116194D01*
X158093585Y-65042865D01*
X157997960Y-64848956D01*
X157997957Y-64848951D01*
X157996133Y-64845252D01*
X157892454Y-64690085D01*
X157830590Y-64597499D01*
X157830586Y-64597494D01*
X157828297Y-64594068D01*
X157825583Y-64590974D01*
X157825579Y-64590968D01*
X157631820Y-64370029D01*
X157629111Y-64366940D01*
X157572910Y-64317653D01*
X157405083Y-64170472D01*
X157405077Y-64170468D01*
X157401983Y-64167754D01*
X157398557Y-64165465D01*
X157398552Y-64165461D01*
X157154232Y-64002212D01*
X157150799Y-63999918D01*
X157147100Y-63998094D01*
X157147095Y-63998091D01*
X156883552Y-63868126D01*
X156883550Y-63868125D01*
X156879857Y-63866304D01*
X156875957Y-63864980D01*
X156597703Y-63770525D01*
X156597699Y-63770524D01*
X156593793Y-63769198D01*
X156589749Y-63768394D01*
X156589743Y-63768392D01*
X156301544Y-63711066D01*
X156301541Y-63711066D01*
X156297501Y-63710262D01*
X156293390Y-63709993D01*
X156293386Y-63709992D01*
X156000170Y-63690774D01*
X155996051Y-63690504D01*
X155991932Y-63690774D01*
X155698716Y-63709992D01*
X155698712Y-63709993D01*
X155694601Y-63710262D01*
X155690561Y-63711066D01*
X155690558Y-63711066D01*
X155402359Y-63768392D01*
X155402353Y-63768394D01*
X155398309Y-63769198D01*
X155394403Y-63770524D01*
X155394399Y-63770525D01*
X155116145Y-63864980D01*
X155112245Y-63866304D01*
X155108552Y-63868125D01*
X155108550Y-63868126D01*
X154845007Y-63998091D01*
X154845002Y-63998094D01*
X154841303Y-63999918D01*
X154837870Y-64002212D01*
X154593550Y-64165461D01*
X154593545Y-64165465D01*
X154590119Y-64167754D01*
X154587025Y-64170468D01*
X154587019Y-64170472D01*
X154419192Y-64317653D01*
X154362991Y-64366940D01*
X154360282Y-64370029D01*
X154166523Y-64590968D01*
X154166519Y-64590974D01*
X154163805Y-64594068D01*
X154161516Y-64597494D01*
X154161512Y-64597499D01*
X154099648Y-64690085D01*
X153995969Y-64845252D01*
X153994145Y-64848951D01*
X153994142Y-64848956D01*
X153898517Y-65042865D01*
X153862355Y-65116194D01*
X153861032Y-65120092D01*
X153861031Y-65120094D01*
X153767223Y-65396444D01*
X153765249Y-65402258D01*
X153764445Y-65406302D01*
X153764443Y-65406308D01*
X153734095Y-65558879D01*
X153706313Y-65698550D01*
X153706044Y-65702661D01*
X153706043Y-65702665D01*
X153693686Y-65891207D01*
X153686555Y-66000000D01*
X151790926Y-66000000D01*
X151813261Y-65983261D01*
X151900615Y-65866705D01*
X151951745Y-65730316D01*
X151958500Y-65668134D01*
X151958500Y-63871866D01*
X151951745Y-63809684D01*
X151900615Y-63673295D01*
X151813261Y-63556739D01*
X151696705Y-63469385D01*
X151560316Y-63418255D01*
X151498134Y-63411500D01*
X149701866Y-63411500D01*
X149639684Y-63418255D01*
X149503295Y-63469385D01*
X149386739Y-63556739D01*
X149299385Y-63673295D01*
X149248255Y-63809684D01*
X149241500Y-63871866D01*
X149241500Y-64115500D01*
X149221498Y-64183621D01*
X149167842Y-64230114D01*
X149115500Y-64241500D01*
X146211291Y-64241500D01*
X146143170Y-64221498D01*
X146096677Y-64167842D01*
X146086028Y-64129108D01*
X146082598Y-64097540D01*
X146081745Y-64089684D01*
X146030615Y-63953295D01*
X145943261Y-63836739D01*
X145826705Y-63749385D01*
X145690316Y-63698255D01*
X145628134Y-63691500D01*
X143931866Y-63691500D01*
X143869684Y-63698255D01*
X143733295Y-63749385D01*
X143616739Y-63836739D01*
X143529385Y-63953295D01*
X143478255Y-64089684D01*
X143471500Y-64151866D01*
X143471500Y-65848134D01*
X143478255Y-65910316D01*
X143529385Y-66046705D01*
X143534771Y-66053891D01*
X143611355Y-66156078D01*
X143611358Y-66156081D01*
X143616739Y-66163261D01*
X143623919Y-66168642D01*
X143630270Y-66174993D01*
X143628128Y-66177135D01*
X143661564Y-66221846D01*
X143666594Y-66292664D01*
X143648477Y-66334035D01*
X143648818Y-66334232D01*
X143647048Y-66337298D01*
X143646701Y-66338090D01*
X143646071Y-66338989D01*
X143640586Y-66348489D01*
X143548510Y-66545947D01*
X143544764Y-66556239D01*
X143488375Y-66766688D01*
X143486472Y-66777481D01*
X143467483Y-66994525D01*
X143467483Y-67005475D01*
X108583500Y-67005475D01*
X108583500Y-65084594D01*
X108603502Y-65016473D01*
X108620405Y-64995499D01*
X110076752Y-63539152D01*
X110139064Y-63505126D01*
X110198459Y-63506541D01*
X110256591Y-63522118D01*
X110256602Y-63522120D01*
X110261913Y-63523543D01*
X110490000Y-63543498D01*
X110718087Y-63523543D01*
X110723400Y-63522119D01*
X110723402Y-63522119D01*
X110933933Y-63465707D01*
X110933935Y-63465706D01*
X110939243Y-63464284D01*
X110945235Y-63461490D01*
X111141762Y-63369849D01*
X111141767Y-63369846D01*
X111146749Y-63367523D01*
X111273037Y-63279095D01*
X111329789Y-63239357D01*
X111329792Y-63239355D01*
X111334300Y-63236198D01*
X111496198Y-63074300D01*
X111504123Y-63062983D01*
X111597615Y-62929462D01*
X111627523Y-62886749D01*
X111629846Y-62881767D01*
X111629849Y-62881762D01*
X111645805Y-62847543D01*
X111692722Y-62794258D01*
X111760999Y-62774797D01*
X111828959Y-62795339D01*
X111874195Y-62847543D01*
X111890151Y-62881762D01*
X111890154Y-62881767D01*
X111892477Y-62886749D01*
X111922385Y-62929462D01*
X112015878Y-63062983D01*
X112023802Y-63074300D01*
X112185700Y-63236198D01*
X112190208Y-63239355D01*
X112190211Y-63239357D01*
X112246963Y-63279095D01*
X112373251Y-63367523D01*
X112378233Y-63369846D01*
X112378238Y-63369849D01*
X112574765Y-63461490D01*
X112580757Y-63464284D01*
X112586065Y-63465706D01*
X112586067Y-63465707D01*
X112796598Y-63522119D01*
X112796600Y-63522119D01*
X112801913Y-63523543D01*
X113030000Y-63543498D01*
X113258087Y-63523543D01*
X113263400Y-63522119D01*
X113263402Y-63522119D01*
X113473933Y-63465707D01*
X113473935Y-63465706D01*
X113479243Y-63464284D01*
X113485235Y-63461490D01*
X113681762Y-63369849D01*
X113681767Y-63369846D01*
X113686749Y-63367523D01*
X113813037Y-63279095D01*
X113869789Y-63239357D01*
X113869792Y-63239355D01*
X113874300Y-63236198D01*
X114036198Y-63074300D01*
X114044123Y-63062983D01*
X114137615Y-62929462D01*
X114167523Y-62886749D01*
X114169846Y-62881767D01*
X114169849Y-62881762D01*
X114261961Y-62684225D01*
X114261961Y-62684224D01*
X114264284Y-62679243D01*
X114323543Y-62458087D01*
X114343498Y-62230000D01*
X114323543Y-62001913D01*
X114321959Y-61996002D01*
X114265707Y-61786067D01*
X114265706Y-61786065D01*
X114264284Y-61780757D01*
X114169966Y-61578489D01*
X114169849Y-61578238D01*
X114169846Y-61578233D01*
X114167523Y-61573251D01*
X114036198Y-61385700D01*
X113882093Y-61231595D01*
X113848067Y-61169283D01*
X113853132Y-61098468D01*
X113895679Y-61041632D01*
X113962199Y-61016821D01*
X113971188Y-61016500D01*
X119708812Y-61016500D01*
X119776933Y-61036502D01*
X119823426Y-61090158D01*
X119833530Y-61160432D01*
X119804036Y-61225012D01*
X119797907Y-61231595D01*
X119643802Y-61385700D01*
X119512477Y-61573251D01*
X119510154Y-61578233D01*
X119510151Y-61578238D01*
X119510034Y-61578489D01*
X119415716Y-61780757D01*
X119414294Y-61786065D01*
X119414293Y-61786067D01*
X119358041Y-61996002D01*
X119356457Y-62001913D01*
X119336502Y-62230000D01*
X119356457Y-62458087D01*
X119415716Y-62679243D01*
X119418039Y-62684224D01*
X119418039Y-62684225D01*
X119510151Y-62881762D01*
X119510154Y-62881767D01*
X119512477Y-62886749D01*
X119542385Y-62929462D01*
X119635878Y-63062983D01*
X119643802Y-63074300D01*
X119805700Y-63236198D01*
X119810208Y-63239355D01*
X119810211Y-63239357D01*
X119866963Y-63279095D01*
X119993251Y-63367523D01*
X119998233Y-63369846D01*
X119998238Y-63369849D01*
X120194765Y-63461490D01*
X120200757Y-63464284D01*
X120206065Y-63465706D01*
X120206067Y-63465707D01*
X120416598Y-63522119D01*
X120416600Y-63522119D01*
X120421913Y-63523543D01*
X120650000Y-63543498D01*
X120878087Y-63523543D01*
X120883400Y-63522119D01*
X120883402Y-63522119D01*
X121093933Y-63465707D01*
X121093935Y-63465706D01*
X121099243Y-63464284D01*
X121105235Y-63461490D01*
X121301762Y-63369849D01*
X121301767Y-63369846D01*
X121306749Y-63367523D01*
X121433037Y-63279095D01*
X121489789Y-63239357D01*
X121489792Y-63239355D01*
X121494300Y-63236198D01*
X121656198Y-63074300D01*
X121664123Y-63062983D01*
X121757615Y-62929462D01*
X121787523Y-62886749D01*
X121789846Y-62881767D01*
X121789849Y-62881762D01*
X121806081Y-62846951D01*
X121852998Y-62793666D01*
X121921275Y-62774205D01*
X121989235Y-62794747D01*
X122034471Y-62846951D01*
X122050586Y-62881511D01*
X122056069Y-62891007D01*
X122181028Y-63069467D01*
X122188084Y-63077875D01*
X122342125Y-63231916D01*
X122350533Y-63238972D01*
X122528993Y-63363931D01*
X122538489Y-63369414D01*
X122735947Y-63461490D01*
X122746239Y-63465236D01*
X122918503Y-63511394D01*
X122932599Y-63511058D01*
X122936000Y-63503116D01*
X122936000Y-62102000D01*
X122956002Y-62033879D01*
X123009658Y-61987386D01*
X123062000Y-61976000D01*
X123318000Y-61976000D01*
X123386121Y-61996002D01*
X123432614Y-62049658D01*
X123444000Y-62102000D01*
X123444000Y-63497967D01*
X123447973Y-63511498D01*
X123456522Y-63512727D01*
X123633761Y-63465236D01*
X123644053Y-63461490D01*
X123841511Y-63369414D01*
X123851007Y-63363931D01*
X124029467Y-63238972D01*
X124037875Y-63231916D01*
X124191916Y-63077875D01*
X124198972Y-63069467D01*
X124323931Y-62891007D01*
X124329414Y-62881511D01*
X124345529Y-62846951D01*
X124392446Y-62793666D01*
X124460723Y-62774205D01*
X124528683Y-62794747D01*
X124573919Y-62846951D01*
X124590151Y-62881762D01*
X124590154Y-62881767D01*
X124592477Y-62886749D01*
X124595633Y-62891256D01*
X124595634Y-62891258D01*
X124622385Y-62929462D01*
X124645073Y-62996736D01*
X124627788Y-63065597D01*
X124608267Y-63090828D01*
X123054000Y-64645095D01*
X122991688Y-64679121D01*
X122964905Y-64682000D01*
X116913200Y-64682000D01*
X116845079Y-64661998D01*
X116825853Y-64645657D01*
X116825580Y-64645960D01*
X116820668Y-64641537D01*
X116816253Y-64636634D01*
X116661752Y-64524382D01*
X116655724Y-64521698D01*
X116655722Y-64521697D01*
X116493319Y-64449391D01*
X116493318Y-64449391D01*
X116487288Y-64446706D01*
X116393888Y-64426853D01*
X116306944Y-64408372D01*
X116306939Y-64408372D01*
X116300487Y-64407000D01*
X116109513Y-64407000D01*
X116103061Y-64408372D01*
X116103056Y-64408372D01*
X116016112Y-64426853D01*
X115922712Y-64446706D01*
X115916682Y-64449391D01*
X115916681Y-64449391D01*
X115754278Y-64521697D01*
X115754276Y-64521698D01*
X115748248Y-64524382D01*
X115593747Y-64636634D01*
X115589326Y-64641544D01*
X115589325Y-64641545D01*
X115476949Y-64766352D01*
X115465960Y-64778556D01*
X115370473Y-64943944D01*
X115311458Y-65125572D01*
X115310768Y-65132133D01*
X115310768Y-65132135D01*
X115306500Y-65172745D01*
X115291496Y-65315500D01*
X115292186Y-65322065D01*
X115300615Y-65402258D01*
X115311458Y-65505428D01*
X115370473Y-65687056D01*
X115373776Y-65692778D01*
X115373777Y-65692779D01*
X115392732Y-65725609D01*
X115465960Y-65852444D01*
X115470378Y-65857351D01*
X115470379Y-65857352D01*
X115552452Y-65948503D01*
X115593747Y-65994366D01*
X115748248Y-66106618D01*
X115754276Y-66109302D01*
X115754278Y-66109303D01*
X115916681Y-66181609D01*
X115922712Y-66184294D01*
X116005805Y-66201956D01*
X116103056Y-66222628D01*
X116103061Y-66222628D01*
X116109513Y-66224000D01*
X116300487Y-66224000D01*
X116306939Y-66222628D01*
X116306944Y-66222628D01*
X116404195Y-66201956D01*
X116487288Y-66184294D01*
X116493319Y-66181609D01*
X116655722Y-66109303D01*
X116655724Y-66109302D01*
X116661752Y-66106618D01*
X116706968Y-66073767D01*
X116808498Y-66000000D01*
X116816253Y-65994366D01*
X116820668Y-65989463D01*
X116825580Y-65985040D01*
X116826705Y-65986289D01*
X116880014Y-65953449D01*
X116913200Y-65949000D01*
X123200733Y-65949000D01*
X123211916Y-65949527D01*
X123219409Y-65951202D01*
X123227335Y-65950953D01*
X123227336Y-65950953D01*
X123287486Y-65949062D01*
X123291445Y-65949000D01*
X123319356Y-65949000D01*
X123323291Y-65948503D01*
X123323356Y-65948495D01*
X123335193Y-65947562D01*
X123367451Y-65946548D01*
X123371470Y-65946422D01*
X123379389Y-65946173D01*
X123398843Y-65940521D01*
X123418200Y-65936513D01*
X123430430Y-65934968D01*
X123430431Y-65934968D01*
X123438297Y-65933974D01*
X123445668Y-65931055D01*
X123445670Y-65931055D01*
X123479412Y-65917696D01*
X123490642Y-65913851D01*
X123525483Y-65903729D01*
X123525484Y-65903729D01*
X123533093Y-65901518D01*
X123539912Y-65897485D01*
X123539917Y-65897483D01*
X123550528Y-65891207D01*
X123568276Y-65882512D01*
X123587117Y-65875052D01*
X123622887Y-65849064D01*
X123632807Y-65842548D01*
X123664035Y-65824080D01*
X123664038Y-65824078D01*
X123670862Y-65820042D01*
X123685183Y-65805721D01*
X123700217Y-65792880D01*
X123710194Y-65785631D01*
X123716607Y-65780972D01*
X123744798Y-65746895D01*
X123752788Y-65738116D01*
X125946882Y-63544022D01*
X126003365Y-63511410D01*
X126116459Y-63481107D01*
X126173933Y-63465707D01*
X126173935Y-63465706D01*
X126179243Y-63464284D01*
X126185235Y-63461490D01*
X126381762Y-63369849D01*
X126381767Y-63369846D01*
X126386749Y-63367523D01*
X126513037Y-63279095D01*
X126569789Y-63239357D01*
X126569792Y-63239355D01*
X126574300Y-63236198D01*
X126736198Y-63074300D01*
X126744123Y-63062983D01*
X126837615Y-62929462D01*
X126867523Y-62886749D01*
X126869846Y-62881767D01*
X126869849Y-62881762D01*
X126886081Y-62846951D01*
X126932998Y-62793666D01*
X127001275Y-62774205D01*
X127069235Y-62794747D01*
X127114471Y-62846951D01*
X127130586Y-62881511D01*
X127136069Y-62891007D01*
X127261028Y-63069467D01*
X127268084Y-63077875D01*
X127422125Y-63231916D01*
X127430533Y-63238972D01*
X127608993Y-63363931D01*
X127618489Y-63369414D01*
X127815947Y-63461490D01*
X127826239Y-63465236D01*
X127998503Y-63511394D01*
X128012599Y-63511058D01*
X128016000Y-63503116D01*
X128016000Y-62102000D01*
X128036002Y-62033879D01*
X128089658Y-61987386D01*
X128142000Y-61976000D01*
X128398000Y-61976000D01*
X128466121Y-61996002D01*
X128512614Y-62049658D01*
X128524000Y-62102000D01*
X128524000Y-63497967D01*
X128527973Y-63511498D01*
X128536522Y-63512727D01*
X128713761Y-63465236D01*
X128724053Y-63461490D01*
X128921511Y-63369414D01*
X128931007Y-63363931D01*
X129109467Y-63238972D01*
X129117875Y-63231916D01*
X129271916Y-63077875D01*
X129278972Y-63069467D01*
X129403931Y-62891007D01*
X129409414Y-62881511D01*
X129425529Y-62846951D01*
X129472446Y-62793666D01*
X129540723Y-62774205D01*
X129608683Y-62794747D01*
X129653919Y-62846951D01*
X129670151Y-62881762D01*
X129670154Y-62881767D01*
X129672477Y-62886749D01*
X129702385Y-62929462D01*
X129795878Y-63062983D01*
X129803802Y-63074300D01*
X129965700Y-63236198D01*
X129970208Y-63239355D01*
X129970211Y-63239357D01*
X130026963Y-63279095D01*
X130153251Y-63367523D01*
X130158233Y-63369846D01*
X130158238Y-63369849D01*
X130354765Y-63461490D01*
X130360757Y-63464284D01*
X130366065Y-63465706D01*
X130366067Y-63465707D01*
X130576598Y-63522119D01*
X130576600Y-63522119D01*
X130581913Y-63523543D01*
X130810000Y-63543498D01*
X131038087Y-63523543D01*
X131043400Y-63522119D01*
X131043402Y-63522119D01*
X131253933Y-63465707D01*
X131253935Y-63465706D01*
X131259243Y-63464284D01*
X131265235Y-63461490D01*
X131461762Y-63369849D01*
X131461767Y-63369846D01*
X131466749Y-63367523D01*
X131593037Y-63279095D01*
X131649789Y-63239357D01*
X131649792Y-63239355D01*
X131654300Y-63236198D01*
X131816198Y-63074300D01*
X131824123Y-63062983D01*
X131917615Y-62929462D01*
X131947523Y-62886749D01*
X131949846Y-62881767D01*
X131949849Y-62881762D01*
X131965805Y-62847543D01*
X132012722Y-62794258D01*
X132080999Y-62774797D01*
X132148959Y-62795339D01*
X132194195Y-62847543D01*
X132210151Y-62881762D01*
X132210154Y-62881767D01*
X132212477Y-62886749D01*
X132242385Y-62929462D01*
X132335878Y-63062983D01*
X132343802Y-63074300D01*
X132505700Y-63236198D01*
X132510208Y-63239355D01*
X132510211Y-63239357D01*
X132566963Y-63279095D01*
X132693251Y-63367523D01*
X132698233Y-63369846D01*
X132698238Y-63369849D01*
X132766411Y-63401638D01*
X132807996Y-63421029D01*
X132828195Y-63430448D01*
X132876880Y-63470581D01*
X132879867Y-63474692D01*
X132884528Y-63481107D01*
X132890634Y-63486158D01*
X132918605Y-63509298D01*
X132927384Y-63517288D01*
X133583378Y-64173282D01*
X133617404Y-64235594D01*
X133619593Y-64249207D01*
X133632292Y-64370029D01*
X133636958Y-64414428D01*
X133695973Y-64596056D01*
X133791460Y-64761444D01*
X133795878Y-64766351D01*
X133795879Y-64766352D01*
X133863830Y-64841819D01*
X133919247Y-64903366D01*
X134073748Y-65015618D01*
X134079776Y-65018302D01*
X134079778Y-65018303D01*
X134228671Y-65084594D01*
X134248212Y-65093294D01*
X134338564Y-65112499D01*
X134428556Y-65131628D01*
X134428561Y-65131628D01*
X134435013Y-65133000D01*
X134625987Y-65133000D01*
X134632439Y-65131628D01*
X134632444Y-65131628D01*
X134722436Y-65112499D01*
X134812788Y-65093294D01*
X134857860Y-65073227D01*
X134928226Y-65063793D01*
X134992523Y-65093899D01*
X135028940Y-65149396D01*
X135055473Y-65231056D01*
X135150960Y-65396444D01*
X135155378Y-65401351D01*
X135155379Y-65401352D01*
X135254742Y-65511706D01*
X135278747Y-65538366D01*
X135433248Y-65650618D01*
X135439276Y-65653302D01*
X135439278Y-65653303D01*
X135601681Y-65725609D01*
X135607712Y-65728294D01*
X135673732Y-65742327D01*
X135788056Y-65766628D01*
X135788061Y-65766628D01*
X135794513Y-65768000D01*
X135985487Y-65768000D01*
X135991939Y-65766628D01*
X135991944Y-65766628D01*
X136106268Y-65742327D01*
X136172288Y-65728294D01*
X136178319Y-65725609D01*
X136340722Y-65653303D01*
X136340724Y-65653302D01*
X136346752Y-65650618D01*
X136501253Y-65538366D01*
X136525258Y-65511706D01*
X136624621Y-65401352D01*
X136624622Y-65401351D01*
X136629040Y-65396444D01*
X136724527Y-65231056D01*
X136783542Y-65049428D01*
X136786814Y-65018303D01*
X136802814Y-64866065D01*
X136803504Y-64859500D01*
X136802396Y-64848956D01*
X136784232Y-64676135D01*
X136784232Y-64676133D01*
X136783542Y-64669572D01*
X136724527Y-64487944D01*
X136629040Y-64322556D01*
X136555863Y-64241285D01*
X136525147Y-64177279D01*
X136523500Y-64156976D01*
X136523500Y-63449394D01*
X136543502Y-63381273D01*
X136577229Y-63346181D01*
X136729789Y-63239357D01*
X136729792Y-63239355D01*
X136734300Y-63236198D01*
X136896198Y-63074300D01*
X136904123Y-63062983D01*
X136997615Y-62929462D01*
X137027523Y-62886749D01*
X137029846Y-62881767D01*
X137029849Y-62881762D01*
X137045805Y-62847543D01*
X137092722Y-62794258D01*
X137160999Y-62774797D01*
X137228959Y-62795339D01*
X137274195Y-62847543D01*
X137290151Y-62881762D01*
X137290154Y-62881767D01*
X137292477Y-62886749D01*
X137322385Y-62929462D01*
X137415878Y-63062983D01*
X137423802Y-63074300D01*
X137585700Y-63236198D01*
X137590208Y-63239355D01*
X137590211Y-63239357D01*
X137742771Y-63346181D01*
X137787099Y-63401638D01*
X137796500Y-63449394D01*
X137796500Y-64706463D01*
X137776498Y-64774584D01*
X137764142Y-64790766D01*
X137727009Y-64832007D01*
X137631522Y-64997395D01*
X137572507Y-65179023D01*
X137552545Y-65368951D01*
X137572507Y-65558879D01*
X137631522Y-65740507D01*
X137634825Y-65746229D01*
X137634826Y-65746230D01*
X137657574Y-65785631D01*
X137727009Y-65905895D01*
X137731427Y-65910802D01*
X137731428Y-65910803D01*
X137808033Y-65995881D01*
X137854796Y-66047817D01*
X138009297Y-66160069D01*
X138015325Y-66162753D01*
X138015327Y-66162754D01*
X138152889Y-66224000D01*
X138183761Y-66237745D01*
X138254735Y-66252831D01*
X138364105Y-66276079D01*
X138364110Y-66276079D01*
X138370562Y-66277451D01*
X138561536Y-66277451D01*
X138567988Y-66276079D01*
X138567993Y-66276079D01*
X138677363Y-66252831D01*
X138748337Y-66237745D01*
X138779209Y-66224000D01*
X138916771Y-66162754D01*
X138916773Y-66162753D01*
X138922801Y-66160069D01*
X139077302Y-66047817D01*
X139124065Y-65995881D01*
X139200670Y-65910803D01*
X139200671Y-65910802D01*
X139205089Y-65905895D01*
X139274524Y-65785631D01*
X139297272Y-65746230D01*
X139297273Y-65746229D01*
X139300576Y-65740507D01*
X139359591Y-65558879D01*
X139379553Y-65368951D01*
X139359591Y-65179023D01*
X139300576Y-64997395D01*
X139205089Y-64832007D01*
X139153385Y-64774584D01*
X139095864Y-64710700D01*
X139065146Y-64646693D01*
X139063500Y-64626390D01*
X139063500Y-63449394D01*
X139083502Y-63381273D01*
X139117229Y-63346181D01*
X139269789Y-63239357D01*
X139269792Y-63239355D01*
X139274300Y-63236198D01*
X139436198Y-63074300D01*
X139444123Y-63062983D01*
X139537615Y-62929462D01*
X139567523Y-62886749D01*
X139569846Y-62881767D01*
X139569849Y-62881762D01*
X139661961Y-62684225D01*
X139661961Y-62684224D01*
X139664284Y-62679243D01*
X139723543Y-62458087D01*
X139743498Y-62230000D01*
X139723543Y-62001913D01*
X139721959Y-61996002D01*
X139665707Y-61786067D01*
X139665706Y-61786065D01*
X139664284Y-61780757D01*
X139569966Y-61578489D01*
X139569849Y-61578238D01*
X139569846Y-61578233D01*
X139567523Y-61573251D01*
X139436198Y-61385700D01*
X139282093Y-61231595D01*
X139248067Y-61169283D01*
X139253132Y-61098468D01*
X139295679Y-61041632D01*
X139362199Y-61016821D01*
X139371188Y-61016500D01*
X159365500Y-61016500D01*
X159433621Y-61036502D01*
X159480114Y-61090158D01*
X159491500Y-61142500D01*
X159491500Y-80519000D01*
X159471498Y-80587121D01*
X159417842Y-80633614D01*
X159365500Y-80645000D01*
X152526000Y-80645000D01*
X152457879Y-80624998D01*
X152411386Y-80571342D01*
X152400000Y-80519000D01*
X152400000Y-77101522D01*
X155943273Y-77101522D01*
X155990764Y-77278761D01*
X155994510Y-77289053D01*
X156086586Y-77486511D01*
X156092069Y-77496007D01*
X156217028Y-77674467D01*
X156224084Y-77682875D01*
X156378125Y-77836916D01*
X156386533Y-77843972D01*
X156564993Y-77968931D01*
X156574489Y-77974414D01*
X156771947Y-78066490D01*
X156782239Y-78070236D01*
X156954503Y-78116394D01*
X156968599Y-78116058D01*
X156972000Y-78108116D01*
X156972000Y-78102967D01*
X157480000Y-78102967D01*
X157483973Y-78116498D01*
X157492522Y-78117727D01*
X157669761Y-78070236D01*
X157680053Y-78066490D01*
X157877511Y-77974414D01*
X157887007Y-77968931D01*
X158065467Y-77843972D01*
X158073875Y-77836916D01*
X158227916Y-77682875D01*
X158234972Y-77674467D01*
X158359931Y-77496007D01*
X158365414Y-77486511D01*
X158457490Y-77289053D01*
X158461236Y-77278761D01*
X158507394Y-77106497D01*
X158507058Y-77092401D01*
X158499116Y-77089000D01*
X157498115Y-77089000D01*
X157482876Y-77093475D01*
X157481671Y-77094865D01*
X157480000Y-77102548D01*
X157480000Y-78102967D01*
X156972000Y-78102967D01*
X156972000Y-77107115D01*
X156967525Y-77091876D01*
X156966135Y-77090671D01*
X156958452Y-77089000D01*
X155958033Y-77089000D01*
X155944502Y-77092973D01*
X155943273Y-77101522D01*
X152400000Y-77101522D01*
X152400000Y-76563503D01*
X155944606Y-76563503D01*
X155944942Y-76577599D01*
X155952884Y-76581000D01*
X156953885Y-76581000D01*
X156969124Y-76576525D01*
X156970329Y-76575135D01*
X156972000Y-76567452D01*
X156972000Y-76562885D01*
X157480000Y-76562885D01*
X157484475Y-76578124D01*
X157485865Y-76579329D01*
X157493548Y-76581000D01*
X158493967Y-76581000D01*
X158507498Y-76577027D01*
X158508727Y-76568478D01*
X158461236Y-76391239D01*
X158457490Y-76380947D01*
X158365414Y-76183489D01*
X158359931Y-76173993D01*
X158234972Y-75995533D01*
X158227916Y-75987125D01*
X158073875Y-75833084D01*
X158065467Y-75826028D01*
X157887007Y-75701069D01*
X157877511Y-75695586D01*
X157680053Y-75603510D01*
X157669761Y-75599764D01*
X157497497Y-75553606D01*
X157483401Y-75553942D01*
X157480000Y-75561884D01*
X157480000Y-76562885D01*
X156972000Y-76562885D01*
X156972000Y-75567033D01*
X156968027Y-75553502D01*
X156959478Y-75552273D01*
X156782239Y-75599764D01*
X156771947Y-75603510D01*
X156574489Y-75695586D01*
X156564993Y-75701069D01*
X156386533Y-75826028D01*
X156378125Y-75833084D01*
X156224084Y-75987125D01*
X156217028Y-75995533D01*
X156092069Y-76173993D01*
X156086586Y-76183489D01*
X155994510Y-76380947D01*
X155990764Y-76391239D01*
X155944606Y-76563503D01*
X152400000Y-76563503D01*
X152400000Y-73660000D01*
X142875000Y-73660000D01*
X142875000Y-80519000D01*
X142854998Y-80587121D01*
X142801342Y-80633614D01*
X142749000Y-80645000D01*
X100634500Y-80645000D01*
X100566379Y-80624998D01*
X100519886Y-80571342D01*
X100508500Y-80519000D01*
X100508500Y-76835000D01*
X102318502Y-76835000D01*
X102338457Y-77063087D01*
X102339881Y-77068400D01*
X102339881Y-77068402D01*
X102349031Y-77102548D01*
X102397716Y-77284243D01*
X102400039Y-77289224D01*
X102400039Y-77289225D01*
X102492151Y-77486762D01*
X102492154Y-77486767D01*
X102494477Y-77491749D01*
X102497634Y-77496257D01*
X102576785Y-77609296D01*
X102625802Y-77679300D01*
X102787700Y-77841198D01*
X102792208Y-77844355D01*
X102792211Y-77844357D01*
X102838856Y-77877018D01*
X102975251Y-77972523D01*
X102980233Y-77974846D01*
X102980238Y-77974849D01*
X103125082Y-78042390D01*
X103182757Y-78069284D01*
X103188065Y-78070706D01*
X103188067Y-78070707D01*
X103398598Y-78127119D01*
X103398600Y-78127119D01*
X103403913Y-78128543D01*
X103632000Y-78148498D01*
X103860087Y-78128543D01*
X103865400Y-78127119D01*
X103865402Y-78127119D01*
X104075933Y-78070707D01*
X104075935Y-78070706D01*
X104081243Y-78069284D01*
X104138918Y-78042390D01*
X104283762Y-77974849D01*
X104283767Y-77974846D01*
X104288749Y-77972523D01*
X104425144Y-77877018D01*
X104471789Y-77844357D01*
X104471792Y-77844355D01*
X104476300Y-77841198D01*
X104638198Y-77679300D01*
X104687216Y-77609296D01*
X104766366Y-77496257D01*
X104769523Y-77491749D01*
X104771846Y-77486767D01*
X104771849Y-77486762D01*
X104863961Y-77289225D01*
X104863961Y-77289224D01*
X104866284Y-77284243D01*
X104914970Y-77102548D01*
X104924119Y-77068402D01*
X104924119Y-77068400D01*
X104925543Y-77063087D01*
X104945498Y-76835000D01*
X104925543Y-76606913D01*
X104920623Y-76588550D01*
X104867707Y-76391067D01*
X104867706Y-76391065D01*
X104866284Y-76385757D01*
X104863961Y-76380775D01*
X104771849Y-76183238D01*
X104771846Y-76183233D01*
X104769523Y-76178251D01*
X104638198Y-75990700D01*
X104476300Y-75828802D01*
X104471792Y-75825645D01*
X104471789Y-75825643D01*
X104393611Y-75770902D01*
X104288749Y-75697477D01*
X104283767Y-75695154D01*
X104283762Y-75695151D01*
X104086225Y-75603039D01*
X104086224Y-75603039D01*
X104081243Y-75600716D01*
X104075935Y-75599294D01*
X104075933Y-75599293D01*
X103865402Y-75542881D01*
X103865400Y-75542881D01*
X103860087Y-75541457D01*
X103632000Y-75521502D01*
X103403913Y-75541457D01*
X103398600Y-75542881D01*
X103398598Y-75542881D01*
X103188067Y-75599293D01*
X103188065Y-75599294D01*
X103182757Y-75600716D01*
X103177776Y-75603039D01*
X103177775Y-75603039D01*
X102980238Y-75695151D01*
X102980233Y-75695154D01*
X102975251Y-75697477D01*
X102870389Y-75770902D01*
X102792211Y-75825643D01*
X102792208Y-75825645D01*
X102787700Y-75828802D01*
X102625802Y-75990700D01*
X102494477Y-76178251D01*
X102492154Y-76183233D01*
X102492151Y-76183238D01*
X102400039Y-76380775D01*
X102397716Y-76385757D01*
X102396294Y-76391065D01*
X102396293Y-76391067D01*
X102343377Y-76588550D01*
X102338457Y-76606913D01*
X102318502Y-76835000D01*
X100508500Y-76835000D01*
X100508500Y-70694669D01*
X104102001Y-70694669D01*
X104102371Y-70701490D01*
X104107895Y-70752352D01*
X104111521Y-70767604D01*
X104156676Y-70888054D01*
X104165214Y-70903649D01*
X104241715Y-71005724D01*
X104254276Y-71018285D01*
X104356351Y-71094786D01*
X104371946Y-71103324D01*
X104492394Y-71148478D01*
X104507649Y-71152105D01*
X104558514Y-71157631D01*
X104565328Y-71158000D01*
X105137885Y-71158000D01*
X105153124Y-71153525D01*
X105154329Y-71152135D01*
X105156000Y-71144452D01*
X105156000Y-70122115D01*
X105151525Y-70106876D01*
X105150135Y-70105671D01*
X105142452Y-70104000D01*
X104120116Y-70104000D01*
X104104877Y-70108475D01*
X104103672Y-70109865D01*
X104102001Y-70117548D01*
X104102001Y-70694669D01*
X100508500Y-70694669D01*
X100508500Y-69577885D01*
X104102000Y-69577885D01*
X104106475Y-69593124D01*
X104107865Y-69594329D01*
X104115548Y-69596000D01*
X105137885Y-69596000D01*
X105153124Y-69591525D01*
X105154329Y-69590135D01*
X105156000Y-69582452D01*
X105156000Y-68560116D01*
X105151525Y-68544877D01*
X105150135Y-68543672D01*
X105142452Y-68542001D01*
X104565331Y-68542001D01*
X104558510Y-68542371D01*
X104507648Y-68547895D01*
X104492396Y-68551521D01*
X104371946Y-68596676D01*
X104356351Y-68605214D01*
X104254276Y-68681715D01*
X104241715Y-68694276D01*
X104165214Y-68796351D01*
X104156676Y-68811946D01*
X104111522Y-68932394D01*
X104107895Y-68947649D01*
X104102369Y-68998514D01*
X104102000Y-69005328D01*
X104102000Y-69577885D01*
X100508500Y-69577885D01*
X100508500Y-61142500D01*
X100528502Y-61074379D01*
X100582158Y-61027886D01*
X100634500Y-61016500D01*
X104468812Y-61016500D01*
X104536933Y-61036502D01*
G37*
%TD.AperFunction*%
%TD*%
%TA.AperFunction,Conductor*%
%TO.N,/LED_K*%
G36*
X151744773Y-74193502D02*
G01*
X151791266Y-74247158D01*
X151801370Y-74317432D01*
X151796486Y-74338433D01*
X151776458Y-74400072D01*
X151756496Y-74590000D01*
X151776458Y-74779928D01*
X151835473Y-74961556D01*
X151838776Y-74967278D01*
X151838777Y-74967279D01*
X151869619Y-75020698D01*
X151886500Y-75083698D01*
X151886500Y-80519000D01*
X151898234Y-80628149D01*
X151898952Y-80631449D01*
X151898952Y-80631450D01*
X151905961Y-80663669D01*
X151909620Y-80680491D01*
X151944290Y-80784657D01*
X152023308Y-80907612D01*
X152069801Y-80961268D01*
X152073194Y-80964208D01*
X152173450Y-81051081D01*
X152173453Y-81051083D01*
X152180261Y-81056982D01*
X152313210Y-81117698D01*
X152336964Y-81124673D01*
X152377008Y-81136431D01*
X152377012Y-81136432D01*
X152381331Y-81137700D01*
X152385780Y-81138340D01*
X152385786Y-81138341D01*
X152521553Y-81157861D01*
X152521558Y-81157861D01*
X152526000Y-81158500D01*
X159365500Y-81158500D01*
X159433621Y-81178502D01*
X159480114Y-81232158D01*
X159491500Y-81284500D01*
X159491500Y-99365500D01*
X159471498Y-99433621D01*
X159417842Y-99480114D01*
X159365500Y-99491500D01*
X109754582Y-99491500D01*
X109686461Y-99471498D01*
X109639968Y-99417842D01*
X109629864Y-99347568D01*
X109659358Y-99282988D01*
X109688531Y-99258556D01*
X109689684Y-99257991D01*
X109878243Y-99123494D01*
X110042303Y-98960005D01*
X110177458Y-98771917D01*
X110224641Y-98676450D01*
X110277784Y-98568922D01*
X110277785Y-98568920D01*
X110280078Y-98564280D01*
X110347408Y-98342671D01*
X110377640Y-98113041D01*
X110379327Y-98044000D01*
X110370093Y-97931683D01*
X110360773Y-97818318D01*
X110360772Y-97818312D01*
X110360349Y-97813167D01*
X110325500Y-97674425D01*
X110305184Y-97593544D01*
X110305183Y-97593540D01*
X110303925Y-97588533D01*
X110301866Y-97583797D01*
X110213630Y-97380868D01*
X110213628Y-97380865D01*
X110211570Y-97376131D01*
X110085764Y-97181665D01*
X110059181Y-97152450D01*
X109995486Y-97082451D01*
X109964434Y-97018605D01*
X109972829Y-96948106D01*
X110018005Y-96893338D01*
X110044449Y-96879669D01*
X110104054Y-96857324D01*
X110119649Y-96848786D01*
X110221724Y-96772285D01*
X110234285Y-96759724D01*
X110310786Y-96657649D01*
X110319324Y-96642054D01*
X110364478Y-96521606D01*
X110368105Y-96506351D01*
X110370374Y-96485469D01*
X126432095Y-96485469D01*
X126432392Y-96490622D01*
X126432392Y-96490625D01*
X126443171Y-96677562D01*
X126445427Y-96716697D01*
X126446564Y-96721743D01*
X126446565Y-96721749D01*
X126475029Y-96848052D01*
X126496346Y-96942642D01*
X126498288Y-96947424D01*
X126498289Y-96947428D01*
X126554029Y-97084698D01*
X126583484Y-97157237D01*
X126704501Y-97354719D01*
X126856147Y-97529784D01*
X127034349Y-97677730D01*
X127234322Y-97794584D01*
X127450694Y-97877209D01*
X127455760Y-97878240D01*
X127455761Y-97878240D01*
X127508846Y-97889040D01*
X127677656Y-97923385D01*
X127808324Y-97928176D01*
X127903949Y-97931683D01*
X127903953Y-97931683D01*
X127909113Y-97931872D01*
X127914233Y-97931216D01*
X127914235Y-97931216D01*
X127987270Y-97921860D01*
X128138847Y-97902442D01*
X128143795Y-97900957D01*
X128143802Y-97900956D01*
X128355747Y-97837369D01*
X128360690Y-97835886D01*
X128396551Y-97818318D01*
X128564049Y-97736262D01*
X128564052Y-97736260D01*
X128568684Y-97733991D01*
X128757243Y-97599494D01*
X128921303Y-97436005D01*
X129056458Y-97247917D01*
X129103641Y-97152450D01*
X129156784Y-97044922D01*
X129156785Y-97044920D01*
X129159078Y-97040280D01*
X129226408Y-96818671D01*
X129256640Y-96589041D01*
X129258327Y-96520000D01*
X129255488Y-96485469D01*
X137779095Y-96485469D01*
X137779392Y-96490622D01*
X137779392Y-96490625D01*
X137790171Y-96677562D01*
X137792427Y-96716697D01*
X137793564Y-96721743D01*
X137793565Y-96721749D01*
X137822029Y-96848052D01*
X137843346Y-96942642D01*
X137845288Y-96947424D01*
X137845289Y-96947428D01*
X137901029Y-97084698D01*
X137930484Y-97157237D01*
X138051501Y-97354719D01*
X138203147Y-97529784D01*
X138381349Y-97677730D01*
X138581322Y-97794584D01*
X138797694Y-97877209D01*
X138802760Y-97878240D01*
X138802761Y-97878240D01*
X138855846Y-97889040D01*
X139024656Y-97923385D01*
X139155324Y-97928176D01*
X139250949Y-97931683D01*
X139250953Y-97931683D01*
X139256113Y-97931872D01*
X139261233Y-97931216D01*
X139261235Y-97931216D01*
X139334270Y-97921860D01*
X139485847Y-97902442D01*
X139490795Y-97900957D01*
X139490802Y-97900956D01*
X139702747Y-97837369D01*
X139707690Y-97835886D01*
X139743551Y-97818318D01*
X139911049Y-97736262D01*
X139911052Y-97736260D01*
X139915684Y-97733991D01*
X140104243Y-97599494D01*
X140268303Y-97436005D01*
X140403458Y-97247917D01*
X140450641Y-97152450D01*
X140503784Y-97044922D01*
X140503785Y-97044920D01*
X140506078Y-97040280D01*
X140573408Y-96818671D01*
X140603640Y-96589041D01*
X140605327Y-96520000D01*
X140602488Y-96485469D01*
X150352095Y-96485469D01*
X150352392Y-96490622D01*
X150352392Y-96490625D01*
X150363171Y-96677562D01*
X150365427Y-96716697D01*
X150366564Y-96721743D01*
X150366565Y-96721749D01*
X150395029Y-96848052D01*
X150416346Y-96942642D01*
X150418288Y-96947424D01*
X150418289Y-96947428D01*
X150474029Y-97084698D01*
X150503484Y-97157237D01*
X150624501Y-97354719D01*
X150776147Y-97529784D01*
X150954349Y-97677730D01*
X151154322Y-97794584D01*
X151370694Y-97877209D01*
X151375760Y-97878240D01*
X151375761Y-97878240D01*
X151428846Y-97889040D01*
X151597656Y-97923385D01*
X151728324Y-97928176D01*
X151823949Y-97931683D01*
X151823953Y-97931683D01*
X151829113Y-97931872D01*
X151834233Y-97931216D01*
X151834235Y-97931216D01*
X151907270Y-97921860D01*
X152058847Y-97902442D01*
X152063795Y-97900957D01*
X152063802Y-97900956D01*
X152275747Y-97837369D01*
X152280690Y-97835886D01*
X152316551Y-97818318D01*
X152484049Y-97736262D01*
X152484052Y-97736260D01*
X152488684Y-97733991D01*
X152677243Y-97599494D01*
X152841303Y-97436005D01*
X152976458Y-97247917D01*
X153023641Y-97152450D01*
X153076784Y-97044922D01*
X153076785Y-97044920D01*
X153079078Y-97040280D01*
X153146408Y-96818671D01*
X153176640Y-96589041D01*
X153178327Y-96520000D01*
X153172032Y-96443434D01*
X153159773Y-96294318D01*
X153159772Y-96294312D01*
X153159349Y-96289167D01*
X153102925Y-96064533D01*
X153100866Y-96059797D01*
X153012630Y-95856868D01*
X153012628Y-95856865D01*
X153010570Y-95852131D01*
X152884764Y-95657665D01*
X152794486Y-95558450D01*
X152763434Y-95494605D01*
X152771829Y-95424106D01*
X152817005Y-95369338D01*
X152843449Y-95355669D01*
X152903054Y-95333324D01*
X152918649Y-95324786D01*
X153020724Y-95248285D01*
X153033285Y-95235724D01*
X153109786Y-95133649D01*
X153118324Y-95118054D01*
X153163478Y-94997606D01*
X153167105Y-94982351D01*
X153172631Y-94931486D01*
X153173000Y-94924672D01*
X153173000Y-94252115D01*
X153168525Y-94236876D01*
X153167135Y-94235671D01*
X153159452Y-94234000D01*
X150375116Y-94234000D01*
X150359877Y-94238475D01*
X150358672Y-94239865D01*
X150357001Y-94247548D01*
X150357001Y-94924669D01*
X150357371Y-94931490D01*
X150362895Y-94982352D01*
X150366521Y-94997604D01*
X150411676Y-95118054D01*
X150420214Y-95133649D01*
X150496715Y-95235724D01*
X150509276Y-95248285D01*
X150611351Y-95324786D01*
X150626946Y-95333324D01*
X150686540Y-95355665D01*
X150743304Y-95398307D01*
X150768004Y-95464868D01*
X150752796Y-95534217D01*
X150733404Y-95560698D01*
X150666639Y-95630564D01*
X150663725Y-95634836D01*
X150663724Y-95634837D01*
X150648152Y-95657665D01*
X150536119Y-95821899D01*
X150438602Y-96031981D01*
X150376707Y-96255169D01*
X150352095Y-96485469D01*
X140602488Y-96485469D01*
X140599032Y-96443434D01*
X140586773Y-96294318D01*
X140586772Y-96294312D01*
X140586349Y-96289167D01*
X140529925Y-96064533D01*
X140527866Y-96059797D01*
X140439630Y-95856868D01*
X140439628Y-95856865D01*
X140437570Y-95852131D01*
X140311764Y-95657665D01*
X140221486Y-95558450D01*
X140190434Y-95494605D01*
X140198829Y-95424106D01*
X140244005Y-95369338D01*
X140270449Y-95355669D01*
X140330054Y-95333324D01*
X140345649Y-95324786D01*
X140447724Y-95248285D01*
X140460285Y-95235724D01*
X140536786Y-95133649D01*
X140545324Y-95118054D01*
X140590478Y-94997606D01*
X140594105Y-94982351D01*
X140599631Y-94931486D01*
X140600000Y-94924672D01*
X140600000Y-94252115D01*
X140595525Y-94236876D01*
X140594135Y-94235671D01*
X140586452Y-94234000D01*
X137802116Y-94234000D01*
X137786877Y-94238475D01*
X137785672Y-94239865D01*
X137784001Y-94247548D01*
X137784001Y-94924669D01*
X137784371Y-94931490D01*
X137789895Y-94982352D01*
X137793521Y-94997604D01*
X137838676Y-95118054D01*
X137847214Y-95133649D01*
X137923715Y-95235724D01*
X137936276Y-95248285D01*
X138038351Y-95324786D01*
X138053946Y-95333324D01*
X138113540Y-95355665D01*
X138170304Y-95398307D01*
X138195004Y-95464868D01*
X138179796Y-95534217D01*
X138160404Y-95560698D01*
X138093639Y-95630564D01*
X138090725Y-95634836D01*
X138090724Y-95634837D01*
X138075152Y-95657665D01*
X137963119Y-95821899D01*
X137865602Y-96031981D01*
X137803707Y-96255169D01*
X137779095Y-96485469D01*
X129255488Y-96485469D01*
X129252032Y-96443434D01*
X129239773Y-96294318D01*
X129239772Y-96294312D01*
X129239349Y-96289167D01*
X129182925Y-96064533D01*
X129180866Y-96059797D01*
X129092630Y-95856868D01*
X129092628Y-95856865D01*
X129090570Y-95852131D01*
X128964764Y-95657665D01*
X128874486Y-95558450D01*
X128843434Y-95494605D01*
X128851829Y-95424106D01*
X128897005Y-95369338D01*
X128923449Y-95355669D01*
X128983054Y-95333324D01*
X128998649Y-95324786D01*
X129100724Y-95248285D01*
X129113285Y-95235724D01*
X129189786Y-95133649D01*
X129198324Y-95118054D01*
X129243478Y-94997606D01*
X129247105Y-94982351D01*
X129252631Y-94931486D01*
X129253000Y-94924672D01*
X129253000Y-94252115D01*
X129248525Y-94236876D01*
X129247135Y-94235671D01*
X129239452Y-94234000D01*
X126455116Y-94234000D01*
X126439877Y-94238475D01*
X126438672Y-94239865D01*
X126437001Y-94247548D01*
X126437001Y-94924669D01*
X126437371Y-94931490D01*
X126442895Y-94982352D01*
X126446521Y-94997604D01*
X126491676Y-95118054D01*
X126500214Y-95133649D01*
X126576715Y-95235724D01*
X126589276Y-95248285D01*
X126691351Y-95324786D01*
X126706946Y-95333324D01*
X126766540Y-95355665D01*
X126823304Y-95398307D01*
X126848004Y-95464868D01*
X126832796Y-95534217D01*
X126813404Y-95560698D01*
X126746639Y-95630564D01*
X126743725Y-95634836D01*
X126743724Y-95634837D01*
X126728152Y-95657665D01*
X126616119Y-95821899D01*
X126518602Y-96031981D01*
X126456707Y-96255169D01*
X126432095Y-96485469D01*
X110370374Y-96485469D01*
X110373631Y-96455486D01*
X110374000Y-96448672D01*
X110374000Y-95776115D01*
X110369525Y-95760876D01*
X110368135Y-95759671D01*
X110360452Y-95758000D01*
X107576116Y-95758000D01*
X107560877Y-95762475D01*
X107559672Y-95763865D01*
X107558001Y-95771548D01*
X107558001Y-96448669D01*
X107558371Y-96455490D01*
X107563895Y-96506352D01*
X107567521Y-96521604D01*
X107612676Y-96642054D01*
X107621214Y-96657649D01*
X107697715Y-96759724D01*
X107710276Y-96772285D01*
X107812351Y-96848786D01*
X107827946Y-96857324D01*
X107887540Y-96879665D01*
X107944304Y-96922307D01*
X107969004Y-96988868D01*
X107953796Y-97058217D01*
X107934404Y-97084698D01*
X107867639Y-97154564D01*
X107864725Y-97158836D01*
X107864724Y-97158837D01*
X107849152Y-97181665D01*
X107737119Y-97345899D01*
X107639602Y-97555981D01*
X107577707Y-97779169D01*
X107553095Y-98009469D01*
X107553392Y-98014622D01*
X107553392Y-98014625D01*
X107559067Y-98113041D01*
X107566427Y-98240697D01*
X107567564Y-98245743D01*
X107567565Y-98245749D01*
X107599741Y-98388523D01*
X107617346Y-98466642D01*
X107619288Y-98471424D01*
X107619289Y-98471428D01*
X107702540Y-98676450D01*
X107704484Y-98681237D01*
X107825501Y-98878719D01*
X107977147Y-99053784D01*
X108155349Y-99201730D01*
X108159816Y-99204340D01*
X108249440Y-99256712D01*
X108298164Y-99308350D01*
X108311235Y-99378133D01*
X108284504Y-99443905D01*
X108226457Y-99484784D01*
X108185870Y-99491500D01*
X100634500Y-99491500D01*
X100566379Y-99471498D01*
X100519886Y-99417842D01*
X100508500Y-99365500D01*
X100508500Y-95231885D01*
X107558000Y-95231885D01*
X107562475Y-95247124D01*
X107563865Y-95248329D01*
X107571548Y-95250000D01*
X108693885Y-95250000D01*
X108709124Y-95245525D01*
X108710329Y-95244135D01*
X108712000Y-95236452D01*
X108712000Y-95231885D01*
X109220000Y-95231885D01*
X109224475Y-95247124D01*
X109225865Y-95248329D01*
X109233548Y-95250000D01*
X110355884Y-95250000D01*
X110371123Y-95245525D01*
X110372328Y-95244135D01*
X110373999Y-95236452D01*
X110373999Y-94559331D01*
X110373629Y-94552510D01*
X110368105Y-94501648D01*
X110364479Y-94486396D01*
X110319324Y-94365946D01*
X110310786Y-94350351D01*
X110234285Y-94248276D01*
X110221724Y-94235715D01*
X110119649Y-94159214D01*
X110104054Y-94150676D01*
X109983606Y-94105522D01*
X109968351Y-94101895D01*
X109917486Y-94096369D01*
X109910672Y-94096000D01*
X109238115Y-94096000D01*
X109222876Y-94100475D01*
X109221671Y-94101865D01*
X109220000Y-94109548D01*
X109220000Y-95231885D01*
X108712000Y-95231885D01*
X108712000Y-94114116D01*
X108707525Y-94098877D01*
X108706135Y-94097672D01*
X108698452Y-94096001D01*
X108021331Y-94096001D01*
X108014510Y-94096371D01*
X107963648Y-94101895D01*
X107948396Y-94105521D01*
X107827946Y-94150676D01*
X107812351Y-94159214D01*
X107710276Y-94235715D01*
X107697715Y-94248276D01*
X107621214Y-94350351D01*
X107612676Y-94365946D01*
X107567522Y-94486394D01*
X107563895Y-94501649D01*
X107558369Y-94552514D01*
X107558000Y-94559328D01*
X107558000Y-95231885D01*
X100508500Y-95231885D01*
X100508500Y-93707885D01*
X126437000Y-93707885D01*
X126441475Y-93723124D01*
X126442865Y-93724329D01*
X126450548Y-93726000D01*
X127572885Y-93726000D01*
X127588124Y-93721525D01*
X127589329Y-93720135D01*
X127591000Y-93712452D01*
X127591000Y-93707885D01*
X128099000Y-93707885D01*
X128103475Y-93723124D01*
X128104865Y-93724329D01*
X128112548Y-93726000D01*
X129234884Y-93726000D01*
X129250123Y-93721525D01*
X129251328Y-93720135D01*
X129252999Y-93712452D01*
X129252999Y-93707885D01*
X137784000Y-93707885D01*
X137788475Y-93723124D01*
X137789865Y-93724329D01*
X137797548Y-93726000D01*
X138919885Y-93726000D01*
X138935124Y-93721525D01*
X138936329Y-93720135D01*
X138938000Y-93712452D01*
X138938000Y-93707885D01*
X139446000Y-93707885D01*
X139450475Y-93723124D01*
X139451865Y-93724329D01*
X139459548Y-93726000D01*
X140581884Y-93726000D01*
X140597123Y-93721525D01*
X140598328Y-93720135D01*
X140599999Y-93712452D01*
X140599999Y-93707885D01*
X150357000Y-93707885D01*
X150361475Y-93723124D01*
X150362865Y-93724329D01*
X150370548Y-93726000D01*
X151492885Y-93726000D01*
X151508124Y-93721525D01*
X151509329Y-93720135D01*
X151511000Y-93712452D01*
X151511000Y-93707885D01*
X152019000Y-93707885D01*
X152023475Y-93723124D01*
X152024865Y-93724329D01*
X152032548Y-93726000D01*
X153154884Y-93726000D01*
X153170123Y-93721525D01*
X153171328Y-93720135D01*
X153172999Y-93712452D01*
X153172999Y-93035331D01*
X153172629Y-93028510D01*
X153167105Y-92977648D01*
X153163479Y-92962396D01*
X153118324Y-92841946D01*
X153109786Y-92826351D01*
X153033285Y-92724276D01*
X153020724Y-92711715D01*
X152918649Y-92635214D01*
X152903054Y-92626676D01*
X152782606Y-92581522D01*
X152767351Y-92577895D01*
X152716486Y-92572369D01*
X152709672Y-92572000D01*
X152037115Y-92572000D01*
X152021876Y-92576475D01*
X152020671Y-92577865D01*
X152019000Y-92585548D01*
X152019000Y-93707885D01*
X151511000Y-93707885D01*
X151511000Y-92590116D01*
X151506525Y-92574877D01*
X151505135Y-92573672D01*
X151497452Y-92572001D01*
X150820331Y-92572001D01*
X150813510Y-92572371D01*
X150762648Y-92577895D01*
X150747396Y-92581521D01*
X150626946Y-92626676D01*
X150611351Y-92635214D01*
X150509276Y-92711715D01*
X150496715Y-92724276D01*
X150420214Y-92826351D01*
X150411676Y-92841946D01*
X150366522Y-92962394D01*
X150362895Y-92977649D01*
X150357369Y-93028514D01*
X150357000Y-93035328D01*
X150357000Y-93707885D01*
X140599999Y-93707885D01*
X140599999Y-93035331D01*
X140599629Y-93028510D01*
X140594105Y-92977648D01*
X140590479Y-92962396D01*
X140545324Y-92841946D01*
X140536786Y-92826351D01*
X140460285Y-92724276D01*
X140447724Y-92711715D01*
X140345649Y-92635214D01*
X140330054Y-92626676D01*
X140209606Y-92581522D01*
X140194351Y-92577895D01*
X140143486Y-92572369D01*
X140136672Y-92572000D01*
X139464115Y-92572000D01*
X139448876Y-92576475D01*
X139447671Y-92577865D01*
X139446000Y-92585548D01*
X139446000Y-93707885D01*
X138938000Y-93707885D01*
X138938000Y-92590116D01*
X138933525Y-92574877D01*
X138932135Y-92573672D01*
X138924452Y-92572001D01*
X138247331Y-92572001D01*
X138240510Y-92572371D01*
X138189648Y-92577895D01*
X138174396Y-92581521D01*
X138053946Y-92626676D01*
X138038351Y-92635214D01*
X137936276Y-92711715D01*
X137923715Y-92724276D01*
X137847214Y-92826351D01*
X137838676Y-92841946D01*
X137793522Y-92962394D01*
X137789895Y-92977649D01*
X137784369Y-93028514D01*
X137784000Y-93035328D01*
X137784000Y-93707885D01*
X129252999Y-93707885D01*
X129252999Y-93035331D01*
X129252629Y-93028510D01*
X129247105Y-92977648D01*
X129243479Y-92962396D01*
X129198324Y-92841946D01*
X129189786Y-92826351D01*
X129113285Y-92724276D01*
X129100724Y-92711715D01*
X128998649Y-92635214D01*
X128983054Y-92626676D01*
X128862606Y-92581522D01*
X128847351Y-92577895D01*
X128796486Y-92572369D01*
X128789672Y-92572000D01*
X128117115Y-92572000D01*
X128101876Y-92576475D01*
X128100671Y-92577865D01*
X128099000Y-92585548D01*
X128099000Y-93707885D01*
X127591000Y-93707885D01*
X127591000Y-92590116D01*
X127586525Y-92574877D01*
X127585135Y-92573672D01*
X127577452Y-92572001D01*
X126900331Y-92572001D01*
X126893510Y-92572371D01*
X126842648Y-92577895D01*
X126827396Y-92581521D01*
X126706946Y-92626676D01*
X126691351Y-92635214D01*
X126589276Y-92711715D01*
X126576715Y-92724276D01*
X126500214Y-92826351D01*
X126491676Y-92841946D01*
X126446522Y-92962394D01*
X126442895Y-92977649D01*
X126437369Y-93028514D01*
X126437000Y-93035328D01*
X126437000Y-93707885D01*
X100508500Y-93707885D01*
X100508500Y-91507469D01*
X101330095Y-91507469D01*
X101330392Y-91512622D01*
X101330392Y-91512625D01*
X101336067Y-91611041D01*
X101343427Y-91738697D01*
X101344564Y-91743743D01*
X101344565Y-91743749D01*
X101376741Y-91886523D01*
X101394346Y-91964642D01*
X101396288Y-91969424D01*
X101396289Y-91969428D01*
X101444144Y-92087280D01*
X101481484Y-92179237D01*
X101602501Y-92376719D01*
X101754147Y-92551784D01*
X101932349Y-92699730D01*
X102132322Y-92816584D01*
X102348694Y-92899209D01*
X102353760Y-92900240D01*
X102353761Y-92900240D01*
X102406846Y-92911040D01*
X102575656Y-92945385D01*
X102704216Y-92950099D01*
X102801949Y-92953683D01*
X102801953Y-92953683D01*
X102807113Y-92953872D01*
X102812233Y-92953216D01*
X102812235Y-92953216D01*
X102885270Y-92943860D01*
X103036847Y-92924442D01*
X103041795Y-92922957D01*
X103041802Y-92922956D01*
X103253747Y-92859369D01*
X103258690Y-92857886D01*
X103291967Y-92841584D01*
X103462049Y-92758262D01*
X103462052Y-92758260D01*
X103466684Y-92755991D01*
X103655243Y-92621494D01*
X103819303Y-92458005D01*
X103954458Y-92269917D01*
X103984743Y-92208641D01*
X104054784Y-92066922D01*
X104054785Y-92066920D01*
X104057078Y-92062280D01*
X104124408Y-91840671D01*
X104154640Y-91611041D01*
X104156327Y-91542000D01*
X104155543Y-91532469D01*
X113903095Y-91532469D01*
X113903392Y-91537622D01*
X113903392Y-91537625D01*
X113909067Y-91636041D01*
X113916427Y-91763697D01*
X113917564Y-91768743D01*
X113917565Y-91768749D01*
X113949741Y-91911523D01*
X113967346Y-91989642D01*
X113969288Y-91994424D01*
X113969289Y-91994428D01*
X114046121Y-92183641D01*
X114054484Y-92204237D01*
X114175501Y-92401719D01*
X114327147Y-92576784D01*
X114505349Y-92724730D01*
X114705322Y-92841584D01*
X114921694Y-92924209D01*
X114926760Y-92925240D01*
X114926761Y-92925240D01*
X114979846Y-92936040D01*
X115148656Y-92970385D01*
X115279324Y-92975176D01*
X115374949Y-92978683D01*
X115374953Y-92978683D01*
X115380113Y-92978872D01*
X115385233Y-92978216D01*
X115385235Y-92978216D01*
X115458270Y-92968860D01*
X115609847Y-92949442D01*
X115614795Y-92947957D01*
X115614802Y-92947956D01*
X115826747Y-92884369D01*
X115831690Y-92882886D01*
X115836324Y-92880616D01*
X116035049Y-92783262D01*
X116035052Y-92783260D01*
X116039684Y-92780991D01*
X116228243Y-92646494D01*
X116392303Y-92483005D01*
X116527458Y-92294917D01*
X116537739Y-92274116D01*
X116627784Y-92091922D01*
X116627785Y-92091920D01*
X116630078Y-92087280D01*
X116697408Y-91865671D01*
X116727640Y-91636041D01*
X116729327Y-91567000D01*
X116723032Y-91490434D01*
X116710773Y-91341318D01*
X116710772Y-91341312D01*
X116710349Y-91336167D01*
X116653925Y-91111533D01*
X116643055Y-91086533D01*
X116563630Y-90903868D01*
X116563628Y-90903865D01*
X116561570Y-90899131D01*
X116435764Y-90704665D01*
X116345486Y-90605450D01*
X116314434Y-90541605D01*
X116322829Y-90471106D01*
X116368005Y-90416338D01*
X116394449Y-90402669D01*
X116454054Y-90380324D01*
X116469649Y-90371786D01*
X116571724Y-90295285D01*
X116584285Y-90282724D01*
X116660786Y-90180649D01*
X116669324Y-90165054D01*
X116714478Y-90044606D01*
X116718105Y-90029351D01*
X116723631Y-89978486D01*
X116724000Y-89971672D01*
X116724000Y-89299115D01*
X116719525Y-89283876D01*
X116718135Y-89282671D01*
X116710452Y-89281000D01*
X113926116Y-89281000D01*
X113910877Y-89285475D01*
X113909672Y-89286865D01*
X113908001Y-89294548D01*
X113908001Y-89971669D01*
X113908371Y-89978490D01*
X113913895Y-90029352D01*
X113917521Y-90044604D01*
X113962676Y-90165054D01*
X113971214Y-90180649D01*
X114047715Y-90282724D01*
X114060276Y-90295285D01*
X114162351Y-90371786D01*
X114177946Y-90380324D01*
X114237540Y-90402665D01*
X114294304Y-90445307D01*
X114319004Y-90511868D01*
X114303796Y-90581217D01*
X114284404Y-90607698D01*
X114217639Y-90677564D01*
X114214725Y-90681836D01*
X114214724Y-90681837D01*
X114199152Y-90704665D01*
X114087119Y-90868899D01*
X113989602Y-91078981D01*
X113927707Y-91302169D01*
X113903095Y-91532469D01*
X104155543Y-91532469D01*
X104139828Y-91341318D01*
X104137773Y-91316318D01*
X104137772Y-91316312D01*
X104137349Y-91311167D01*
X104080925Y-91086533D01*
X104078866Y-91081797D01*
X103990630Y-90878868D01*
X103990628Y-90878865D01*
X103988570Y-90874131D01*
X103862764Y-90679665D01*
X103772486Y-90580450D01*
X103741434Y-90516605D01*
X103749829Y-90446106D01*
X103795005Y-90391338D01*
X103821449Y-90377669D01*
X103881054Y-90355324D01*
X103896649Y-90346786D01*
X103998724Y-90270285D01*
X104011285Y-90257724D01*
X104087786Y-90155649D01*
X104096324Y-90140054D01*
X104141478Y-90019606D01*
X104145105Y-90004351D01*
X104150631Y-89953486D01*
X104151000Y-89946672D01*
X104151000Y-89274115D01*
X104146525Y-89258876D01*
X104145135Y-89257671D01*
X104137452Y-89256000D01*
X101353116Y-89256000D01*
X101337877Y-89260475D01*
X101336672Y-89261865D01*
X101335001Y-89269548D01*
X101335001Y-89946669D01*
X101335371Y-89953490D01*
X101340895Y-90004352D01*
X101344521Y-90019604D01*
X101389676Y-90140054D01*
X101398214Y-90155649D01*
X101474715Y-90257724D01*
X101487276Y-90270285D01*
X101589351Y-90346786D01*
X101604946Y-90355324D01*
X101664540Y-90377665D01*
X101721304Y-90420307D01*
X101746004Y-90486868D01*
X101730796Y-90556217D01*
X101711404Y-90582698D01*
X101644639Y-90652564D01*
X101641725Y-90656836D01*
X101641724Y-90656837D01*
X101627585Y-90677564D01*
X101514119Y-90843899D01*
X101416602Y-91053981D01*
X101354707Y-91277169D01*
X101330095Y-91507469D01*
X100508500Y-91507469D01*
X100508500Y-88754885D01*
X113908000Y-88754885D01*
X113912475Y-88770124D01*
X113913865Y-88771329D01*
X113921548Y-88773000D01*
X115043885Y-88773000D01*
X115059124Y-88768525D01*
X115060329Y-88767135D01*
X115062000Y-88759452D01*
X115062000Y-88754885D01*
X115570000Y-88754885D01*
X115574475Y-88770124D01*
X115575865Y-88771329D01*
X115583548Y-88773000D01*
X116705884Y-88773000D01*
X116721123Y-88768525D01*
X116722328Y-88767135D01*
X116723999Y-88759452D01*
X116723999Y-88082331D01*
X116723629Y-88075510D01*
X116718105Y-88024648D01*
X116714479Y-88009396D01*
X116669324Y-87888946D01*
X116660786Y-87873351D01*
X116584285Y-87771276D01*
X116571724Y-87758715D01*
X116469649Y-87682214D01*
X116454054Y-87673676D01*
X116333606Y-87628522D01*
X116318351Y-87624895D01*
X116267486Y-87619369D01*
X116260672Y-87619000D01*
X115588115Y-87619000D01*
X115572876Y-87623475D01*
X115571671Y-87624865D01*
X115570000Y-87632548D01*
X115570000Y-88754885D01*
X115062000Y-88754885D01*
X115062000Y-87637116D01*
X115057525Y-87621877D01*
X115056135Y-87620672D01*
X115048452Y-87619001D01*
X114371331Y-87619001D01*
X114364510Y-87619371D01*
X114313648Y-87624895D01*
X114298396Y-87628521D01*
X114177946Y-87673676D01*
X114162351Y-87682214D01*
X114060276Y-87758715D01*
X114047715Y-87771276D01*
X113971214Y-87873351D01*
X113962676Y-87888946D01*
X113917522Y-88009394D01*
X113913895Y-88024649D01*
X113908369Y-88075514D01*
X113908000Y-88082328D01*
X113908000Y-88754885D01*
X100508500Y-88754885D01*
X100508500Y-88729885D01*
X101335000Y-88729885D01*
X101339475Y-88745124D01*
X101340865Y-88746329D01*
X101348548Y-88748000D01*
X102470885Y-88748000D01*
X102486124Y-88743525D01*
X102487329Y-88742135D01*
X102489000Y-88734452D01*
X102489000Y-88729885D01*
X102997000Y-88729885D01*
X103001475Y-88745124D01*
X103002865Y-88746329D01*
X103010548Y-88748000D01*
X104132884Y-88748000D01*
X104148123Y-88743525D01*
X104149328Y-88742135D01*
X104150999Y-88734452D01*
X104150999Y-88057331D01*
X104150629Y-88050510D01*
X104145105Y-87999648D01*
X104141479Y-87984396D01*
X104096324Y-87863946D01*
X104087786Y-87848351D01*
X104011285Y-87746276D01*
X103998724Y-87733715D01*
X103896649Y-87657214D01*
X103881054Y-87648676D01*
X103760606Y-87603522D01*
X103745351Y-87599895D01*
X103694486Y-87594369D01*
X103687672Y-87594000D01*
X103015115Y-87594000D01*
X102999876Y-87598475D01*
X102998671Y-87599865D01*
X102997000Y-87607548D01*
X102997000Y-88729885D01*
X102489000Y-88729885D01*
X102489000Y-87612116D01*
X102484525Y-87596877D01*
X102483135Y-87595672D01*
X102475452Y-87594001D01*
X101798331Y-87594001D01*
X101791510Y-87594371D01*
X101740648Y-87599895D01*
X101725396Y-87603521D01*
X101604946Y-87648676D01*
X101589351Y-87657214D01*
X101487276Y-87733715D01*
X101474715Y-87746276D01*
X101398214Y-87848351D01*
X101389676Y-87863946D01*
X101344522Y-87984394D01*
X101340895Y-87999649D01*
X101335369Y-88050514D01*
X101335000Y-88057328D01*
X101335000Y-88729885D01*
X100508500Y-88729885D01*
X100508500Y-86770469D01*
X126222095Y-86770469D01*
X126222392Y-86775622D01*
X126222392Y-86775625D01*
X126228067Y-86874041D01*
X126235427Y-87001697D01*
X126236564Y-87006743D01*
X126236565Y-87006749D01*
X126268741Y-87149523D01*
X126286346Y-87227642D01*
X126288288Y-87232424D01*
X126288289Y-87232428D01*
X126371540Y-87437450D01*
X126373484Y-87442237D01*
X126376183Y-87446641D01*
X126482031Y-87619369D01*
X126494501Y-87639719D01*
X126646147Y-87814784D01*
X126824349Y-87962730D01*
X127024322Y-88079584D01*
X127029147Y-88081426D01*
X127029148Y-88081427D01*
X127103665Y-88109883D01*
X127240694Y-88162209D01*
X127245760Y-88163240D01*
X127245761Y-88163240D01*
X127298846Y-88174040D01*
X127467656Y-88208385D01*
X127598324Y-88213176D01*
X127693949Y-88216683D01*
X127693953Y-88216683D01*
X127699113Y-88216872D01*
X127704233Y-88216216D01*
X127704235Y-88216216D01*
X127777270Y-88206860D01*
X127928847Y-88187442D01*
X127933795Y-88185957D01*
X127933802Y-88185956D01*
X128145747Y-88122369D01*
X128150690Y-88120886D01*
X128231236Y-88081427D01*
X128354049Y-88021262D01*
X128354052Y-88021260D01*
X128358684Y-88018991D01*
X128547243Y-87884494D01*
X128711303Y-87721005D01*
X128846458Y-87532917D01*
X128893641Y-87437450D01*
X128946784Y-87329922D01*
X128946785Y-87329920D01*
X128949078Y-87325280D01*
X129016408Y-87103671D01*
X129046640Y-86874041D01*
X129048327Y-86805000D01*
X129045488Y-86770469D01*
X138287095Y-86770469D01*
X138287392Y-86775622D01*
X138287392Y-86775625D01*
X138293067Y-86874041D01*
X138300427Y-87001697D01*
X138301564Y-87006743D01*
X138301565Y-87006749D01*
X138333741Y-87149523D01*
X138351346Y-87227642D01*
X138353288Y-87232424D01*
X138353289Y-87232428D01*
X138436540Y-87437450D01*
X138438484Y-87442237D01*
X138441183Y-87446641D01*
X138547031Y-87619369D01*
X138559501Y-87639719D01*
X138711147Y-87814784D01*
X138889349Y-87962730D01*
X139089322Y-88079584D01*
X139094147Y-88081426D01*
X139094148Y-88081427D01*
X139168665Y-88109883D01*
X139305694Y-88162209D01*
X139310760Y-88163240D01*
X139310761Y-88163240D01*
X139363846Y-88174040D01*
X139532656Y-88208385D01*
X139663324Y-88213176D01*
X139758949Y-88216683D01*
X139758953Y-88216683D01*
X139764113Y-88216872D01*
X139769233Y-88216216D01*
X139769235Y-88216216D01*
X139842270Y-88206860D01*
X139993847Y-88187442D01*
X139998795Y-88185957D01*
X139998802Y-88185956D01*
X140210747Y-88122369D01*
X140215690Y-88120886D01*
X140296236Y-88081427D01*
X140419049Y-88021262D01*
X140419052Y-88021260D01*
X140423684Y-88018991D01*
X140612243Y-87884494D01*
X140776303Y-87721005D01*
X140911458Y-87532917D01*
X140958641Y-87437450D01*
X141011784Y-87329922D01*
X141011785Y-87329920D01*
X141014078Y-87325280D01*
X141081408Y-87103671D01*
X141111640Y-86874041D01*
X141113327Y-86805000D01*
X141110488Y-86770469D01*
X150352095Y-86770469D01*
X150352392Y-86775622D01*
X150352392Y-86775625D01*
X150358067Y-86874041D01*
X150365427Y-87001697D01*
X150366564Y-87006743D01*
X150366565Y-87006749D01*
X150398741Y-87149523D01*
X150416346Y-87227642D01*
X150418288Y-87232424D01*
X150418289Y-87232428D01*
X150501540Y-87437450D01*
X150503484Y-87442237D01*
X150506183Y-87446641D01*
X150612031Y-87619369D01*
X150624501Y-87639719D01*
X150776147Y-87814784D01*
X150954349Y-87962730D01*
X151154322Y-88079584D01*
X151159147Y-88081426D01*
X151159148Y-88081427D01*
X151233665Y-88109883D01*
X151370694Y-88162209D01*
X151375760Y-88163240D01*
X151375761Y-88163240D01*
X151428846Y-88174040D01*
X151597656Y-88208385D01*
X151728324Y-88213176D01*
X151823949Y-88216683D01*
X151823953Y-88216683D01*
X151829113Y-88216872D01*
X151834233Y-88216216D01*
X151834235Y-88216216D01*
X151907270Y-88206860D01*
X152058847Y-88187442D01*
X152063795Y-88185957D01*
X152063802Y-88185956D01*
X152275747Y-88122369D01*
X152280690Y-88120886D01*
X152361236Y-88081427D01*
X152484049Y-88021262D01*
X152484052Y-88021260D01*
X152488684Y-88018991D01*
X152677243Y-87884494D01*
X152841303Y-87721005D01*
X152976458Y-87532917D01*
X153023641Y-87437450D01*
X153076784Y-87329922D01*
X153076785Y-87329920D01*
X153079078Y-87325280D01*
X153146408Y-87103671D01*
X153176640Y-86874041D01*
X153178327Y-86805000D01*
X153172032Y-86728434D01*
X153159773Y-86579318D01*
X153159772Y-86579312D01*
X153159349Y-86574167D01*
X153126996Y-86445364D01*
X153104184Y-86354544D01*
X153104183Y-86354540D01*
X153102925Y-86349533D01*
X153100866Y-86344797D01*
X153012630Y-86141868D01*
X153012628Y-86141865D01*
X153010570Y-86137131D01*
X152884764Y-85942665D01*
X152868435Y-85924719D01*
X152794486Y-85843451D01*
X152763434Y-85779605D01*
X152771829Y-85709106D01*
X152817005Y-85654338D01*
X152843449Y-85640669D01*
X152903054Y-85618324D01*
X152918649Y-85609786D01*
X153020724Y-85533285D01*
X153033285Y-85520724D01*
X153109786Y-85418649D01*
X153118324Y-85403054D01*
X153163478Y-85282606D01*
X153167105Y-85267351D01*
X153172631Y-85216486D01*
X153173000Y-85209672D01*
X153173000Y-84537115D01*
X153168525Y-84521876D01*
X153167135Y-84520671D01*
X153159452Y-84519000D01*
X150375116Y-84519000D01*
X150359877Y-84523475D01*
X150358672Y-84524865D01*
X150357001Y-84532548D01*
X150357001Y-85209669D01*
X150357371Y-85216490D01*
X150362895Y-85267352D01*
X150366521Y-85282604D01*
X150411676Y-85403054D01*
X150420214Y-85418649D01*
X150496715Y-85520724D01*
X150509276Y-85533285D01*
X150611351Y-85609786D01*
X150626946Y-85618324D01*
X150686540Y-85640665D01*
X150743304Y-85683307D01*
X150768004Y-85749868D01*
X150752796Y-85819217D01*
X150733404Y-85845698D01*
X150666639Y-85915564D01*
X150663725Y-85919836D01*
X150663724Y-85919837D01*
X150648152Y-85942665D01*
X150536119Y-86106899D01*
X150438602Y-86316981D01*
X150376707Y-86540169D01*
X150352095Y-86770469D01*
X141110488Y-86770469D01*
X141107032Y-86728434D01*
X141094773Y-86579318D01*
X141094772Y-86579312D01*
X141094349Y-86574167D01*
X141061996Y-86445364D01*
X141039184Y-86354544D01*
X141039183Y-86354540D01*
X141037925Y-86349533D01*
X141035866Y-86344797D01*
X140947630Y-86141868D01*
X140947628Y-86141865D01*
X140945570Y-86137131D01*
X140819764Y-85942665D01*
X140803435Y-85924719D01*
X140729486Y-85843451D01*
X140698434Y-85779605D01*
X140706829Y-85709106D01*
X140752005Y-85654338D01*
X140778449Y-85640669D01*
X140838054Y-85618324D01*
X140853649Y-85609786D01*
X140955724Y-85533285D01*
X140968285Y-85520724D01*
X141044786Y-85418649D01*
X141053324Y-85403054D01*
X141098478Y-85282606D01*
X141102105Y-85267351D01*
X141107631Y-85216486D01*
X141108000Y-85209672D01*
X141108000Y-84537115D01*
X141103525Y-84521876D01*
X141102135Y-84520671D01*
X141094452Y-84519000D01*
X138310116Y-84519000D01*
X138294877Y-84523475D01*
X138293672Y-84524865D01*
X138292001Y-84532548D01*
X138292001Y-85209669D01*
X138292371Y-85216490D01*
X138297895Y-85267352D01*
X138301521Y-85282604D01*
X138346676Y-85403054D01*
X138355214Y-85418649D01*
X138431715Y-85520724D01*
X138444276Y-85533285D01*
X138546351Y-85609786D01*
X138561946Y-85618324D01*
X138621540Y-85640665D01*
X138678304Y-85683307D01*
X138703004Y-85749868D01*
X138687796Y-85819217D01*
X138668404Y-85845698D01*
X138601639Y-85915564D01*
X138598725Y-85919836D01*
X138598724Y-85919837D01*
X138583152Y-85942665D01*
X138471119Y-86106899D01*
X138373602Y-86316981D01*
X138311707Y-86540169D01*
X138287095Y-86770469D01*
X129045488Y-86770469D01*
X129042032Y-86728434D01*
X129029773Y-86579318D01*
X129029772Y-86579312D01*
X129029349Y-86574167D01*
X128996996Y-86445364D01*
X128974184Y-86354544D01*
X128974183Y-86354540D01*
X128972925Y-86349533D01*
X128970866Y-86344797D01*
X128882630Y-86141868D01*
X128882628Y-86141865D01*
X128880570Y-86137131D01*
X128754764Y-85942665D01*
X128738435Y-85924719D01*
X128664486Y-85843451D01*
X128633434Y-85779605D01*
X128641829Y-85709106D01*
X128687005Y-85654338D01*
X128713449Y-85640669D01*
X128773054Y-85618324D01*
X128788649Y-85609786D01*
X128890724Y-85533285D01*
X128903285Y-85520724D01*
X128979786Y-85418649D01*
X128988324Y-85403054D01*
X129033478Y-85282606D01*
X129037105Y-85267351D01*
X129042631Y-85216486D01*
X129043000Y-85209672D01*
X129043000Y-84537115D01*
X129038525Y-84521876D01*
X129037135Y-84520671D01*
X129029452Y-84519000D01*
X126245116Y-84519000D01*
X126229877Y-84523475D01*
X126228672Y-84524865D01*
X126227001Y-84532548D01*
X126227001Y-85209669D01*
X126227371Y-85216490D01*
X126232895Y-85267352D01*
X126236521Y-85282604D01*
X126281676Y-85403054D01*
X126290214Y-85418649D01*
X126366715Y-85520724D01*
X126379276Y-85533285D01*
X126481351Y-85609786D01*
X126496946Y-85618324D01*
X126556540Y-85640665D01*
X126613304Y-85683307D01*
X126638004Y-85749868D01*
X126622796Y-85819217D01*
X126603404Y-85845698D01*
X126536639Y-85915564D01*
X126533725Y-85919836D01*
X126533724Y-85919837D01*
X126518152Y-85942665D01*
X126406119Y-86106899D01*
X126308602Y-86316981D01*
X126246707Y-86540169D01*
X126222095Y-86770469D01*
X100508500Y-86770469D01*
X100508500Y-85055469D01*
X107553095Y-85055469D01*
X107553392Y-85060622D01*
X107553392Y-85060625D01*
X107559067Y-85159041D01*
X107566427Y-85286697D01*
X107567564Y-85291743D01*
X107567565Y-85291749D01*
X107590860Y-85395116D01*
X107617346Y-85512642D01*
X107619288Y-85517424D01*
X107619289Y-85517428D01*
X107669332Y-85640669D01*
X107704484Y-85727237D01*
X107825501Y-85924719D01*
X107977147Y-86099784D01*
X108155349Y-86247730D01*
X108355322Y-86364584D01*
X108571694Y-86447209D01*
X108576760Y-86448240D01*
X108576761Y-86448240D01*
X108629846Y-86459040D01*
X108798656Y-86493385D01*
X108929324Y-86498176D01*
X109024949Y-86501683D01*
X109024953Y-86501683D01*
X109030113Y-86501872D01*
X109035233Y-86501216D01*
X109035235Y-86501216D01*
X109108270Y-86491860D01*
X109259847Y-86472442D01*
X109264795Y-86470957D01*
X109264802Y-86470956D01*
X109476747Y-86407369D01*
X109481690Y-86405886D01*
X109562236Y-86366427D01*
X109685049Y-86306262D01*
X109685052Y-86306260D01*
X109689684Y-86303991D01*
X109878243Y-86169494D01*
X110042303Y-86006005D01*
X110177458Y-85817917D01*
X110224641Y-85722450D01*
X110277784Y-85614922D01*
X110277785Y-85614920D01*
X110280078Y-85610280D01*
X110347408Y-85388671D01*
X110377640Y-85159041D01*
X110379327Y-85090000D01*
X110373032Y-85013434D01*
X110360773Y-84864318D01*
X110360772Y-84864312D01*
X110360349Y-84859167D01*
X110303925Y-84634533D01*
X110301866Y-84629797D01*
X110213630Y-84426868D01*
X110213628Y-84426865D01*
X110211570Y-84422131D01*
X110085764Y-84227665D01*
X109995486Y-84128450D01*
X109964434Y-84064605D01*
X109972829Y-83994106D01*
X109973836Y-83992885D01*
X126227000Y-83992885D01*
X126231475Y-84008124D01*
X126232865Y-84009329D01*
X126240548Y-84011000D01*
X127362885Y-84011000D01*
X127378124Y-84006525D01*
X127379329Y-84005135D01*
X127381000Y-83997452D01*
X127381000Y-83992885D01*
X127889000Y-83992885D01*
X127893475Y-84008124D01*
X127894865Y-84009329D01*
X127902548Y-84011000D01*
X129024884Y-84011000D01*
X129040123Y-84006525D01*
X129041328Y-84005135D01*
X129042999Y-83997452D01*
X129042999Y-83992885D01*
X138292000Y-83992885D01*
X138296475Y-84008124D01*
X138297865Y-84009329D01*
X138305548Y-84011000D01*
X139427885Y-84011000D01*
X139443124Y-84006525D01*
X139444329Y-84005135D01*
X139446000Y-83997452D01*
X139446000Y-83992885D01*
X139954000Y-83992885D01*
X139958475Y-84008124D01*
X139959865Y-84009329D01*
X139967548Y-84011000D01*
X141089884Y-84011000D01*
X141105123Y-84006525D01*
X141106328Y-84005135D01*
X141107999Y-83997452D01*
X141107999Y-83992885D01*
X150357000Y-83992885D01*
X150361475Y-84008124D01*
X150362865Y-84009329D01*
X150370548Y-84011000D01*
X151492885Y-84011000D01*
X151508124Y-84006525D01*
X151509329Y-84005135D01*
X151511000Y-83997452D01*
X151511000Y-83992885D01*
X152019000Y-83992885D01*
X152023475Y-84008124D01*
X152024865Y-84009329D01*
X152032548Y-84011000D01*
X153154884Y-84011000D01*
X153170123Y-84006525D01*
X153171328Y-84005135D01*
X153172999Y-83997452D01*
X153172999Y-83320331D01*
X153172629Y-83313510D01*
X153167105Y-83262648D01*
X153163479Y-83247396D01*
X153118324Y-83126946D01*
X153109786Y-83111351D01*
X153033285Y-83009276D01*
X153020724Y-82996715D01*
X152918649Y-82920214D01*
X152903054Y-82911676D01*
X152782606Y-82866522D01*
X152767351Y-82862895D01*
X152716486Y-82857369D01*
X152709672Y-82857000D01*
X152037115Y-82857000D01*
X152021876Y-82861475D01*
X152020671Y-82862865D01*
X152019000Y-82870548D01*
X152019000Y-83992885D01*
X151511000Y-83992885D01*
X151511000Y-82875116D01*
X151506525Y-82859877D01*
X151505135Y-82858672D01*
X151497452Y-82857001D01*
X150820331Y-82857001D01*
X150813510Y-82857371D01*
X150762648Y-82862895D01*
X150747396Y-82866521D01*
X150626946Y-82911676D01*
X150611351Y-82920214D01*
X150509276Y-82996715D01*
X150496715Y-83009276D01*
X150420214Y-83111351D01*
X150411676Y-83126946D01*
X150366522Y-83247394D01*
X150362895Y-83262649D01*
X150357369Y-83313514D01*
X150357000Y-83320328D01*
X150357000Y-83992885D01*
X141107999Y-83992885D01*
X141107999Y-83320331D01*
X141107629Y-83313510D01*
X141102105Y-83262648D01*
X141098479Y-83247396D01*
X141053324Y-83126946D01*
X141044786Y-83111351D01*
X140968285Y-83009276D01*
X140955724Y-82996715D01*
X140853649Y-82920214D01*
X140838054Y-82911676D01*
X140717606Y-82866522D01*
X140702351Y-82862895D01*
X140651486Y-82857369D01*
X140644672Y-82857000D01*
X139972115Y-82857000D01*
X139956876Y-82861475D01*
X139955671Y-82862865D01*
X139954000Y-82870548D01*
X139954000Y-83992885D01*
X139446000Y-83992885D01*
X139446000Y-82875116D01*
X139441525Y-82859877D01*
X139440135Y-82858672D01*
X139432452Y-82857001D01*
X138755331Y-82857001D01*
X138748510Y-82857371D01*
X138697648Y-82862895D01*
X138682396Y-82866521D01*
X138561946Y-82911676D01*
X138546351Y-82920214D01*
X138444276Y-82996715D01*
X138431715Y-83009276D01*
X138355214Y-83111351D01*
X138346676Y-83126946D01*
X138301522Y-83247394D01*
X138297895Y-83262649D01*
X138292369Y-83313514D01*
X138292000Y-83320328D01*
X138292000Y-83992885D01*
X129042999Y-83992885D01*
X129042999Y-83320331D01*
X129042629Y-83313510D01*
X129037105Y-83262648D01*
X129033479Y-83247396D01*
X128988324Y-83126946D01*
X128979786Y-83111351D01*
X128903285Y-83009276D01*
X128890724Y-82996715D01*
X128788649Y-82920214D01*
X128773054Y-82911676D01*
X128652606Y-82866522D01*
X128637351Y-82862895D01*
X128586486Y-82857369D01*
X128579672Y-82857000D01*
X127907115Y-82857000D01*
X127891876Y-82861475D01*
X127890671Y-82862865D01*
X127889000Y-82870548D01*
X127889000Y-83992885D01*
X127381000Y-83992885D01*
X127381000Y-82875116D01*
X127376525Y-82859877D01*
X127375135Y-82858672D01*
X127367452Y-82857001D01*
X126690331Y-82857001D01*
X126683510Y-82857371D01*
X126632648Y-82862895D01*
X126617396Y-82866521D01*
X126496946Y-82911676D01*
X126481351Y-82920214D01*
X126379276Y-82996715D01*
X126366715Y-83009276D01*
X126290214Y-83111351D01*
X126281676Y-83126946D01*
X126236522Y-83247394D01*
X126232895Y-83262649D01*
X126227369Y-83313514D01*
X126227000Y-83320328D01*
X126227000Y-83992885D01*
X109973836Y-83992885D01*
X110018005Y-83939338D01*
X110044449Y-83925669D01*
X110104054Y-83903324D01*
X110119649Y-83894786D01*
X110221724Y-83818285D01*
X110234285Y-83805724D01*
X110310786Y-83703649D01*
X110319324Y-83688054D01*
X110364478Y-83567606D01*
X110368105Y-83552351D01*
X110373631Y-83501486D01*
X110374000Y-83494672D01*
X110374000Y-82822115D01*
X110369525Y-82806876D01*
X110368135Y-82805671D01*
X110360452Y-82804000D01*
X107576116Y-82804000D01*
X107560877Y-82808475D01*
X107559672Y-82809865D01*
X107558001Y-82817548D01*
X107558001Y-83494669D01*
X107558371Y-83501490D01*
X107563895Y-83552352D01*
X107567521Y-83567604D01*
X107612676Y-83688054D01*
X107621214Y-83703649D01*
X107697715Y-83805724D01*
X107710276Y-83818285D01*
X107812351Y-83894786D01*
X107827946Y-83903324D01*
X107887540Y-83925665D01*
X107944304Y-83968307D01*
X107969004Y-84034868D01*
X107953796Y-84104217D01*
X107934404Y-84130698D01*
X107867639Y-84200564D01*
X107864725Y-84204836D01*
X107864724Y-84204837D01*
X107849152Y-84227665D01*
X107737119Y-84391899D01*
X107639602Y-84601981D01*
X107577707Y-84825169D01*
X107553095Y-85055469D01*
X100508500Y-85055469D01*
X100508500Y-81284500D01*
X100528502Y-81216379D01*
X100582158Y-81169886D01*
X100634500Y-81158500D01*
X107547583Y-81158500D01*
X107615704Y-81178502D01*
X107662197Y-81232158D01*
X107672301Y-81302432D01*
X107648409Y-81360065D01*
X107621214Y-81396351D01*
X107612676Y-81411946D01*
X107567522Y-81532394D01*
X107563895Y-81547649D01*
X107558369Y-81598514D01*
X107558000Y-81605328D01*
X107558000Y-82277885D01*
X107562475Y-82293124D01*
X107563865Y-82294329D01*
X107571548Y-82296000D01*
X110355884Y-82296000D01*
X110371123Y-82291525D01*
X110372328Y-82290135D01*
X110373999Y-82282452D01*
X110373999Y-81605331D01*
X110373629Y-81598510D01*
X110368105Y-81547648D01*
X110364479Y-81532396D01*
X110319324Y-81411946D01*
X110310786Y-81396351D01*
X110283591Y-81360065D01*
X110258743Y-81293558D01*
X110273796Y-81224176D01*
X110323970Y-81173946D01*
X110384417Y-81158500D01*
X142749000Y-81158500D01*
X142752346Y-81158140D01*
X142752351Y-81158140D01*
X142854785Y-81147128D01*
X142854792Y-81147127D01*
X142858149Y-81146766D01*
X142875002Y-81143100D01*
X142907210Y-81136094D01*
X142907215Y-81136093D01*
X142910491Y-81135380D01*
X143014657Y-81100710D01*
X143137612Y-81021692D01*
X143191268Y-80975199D01*
X143246888Y-80911010D01*
X143281081Y-80871550D01*
X143281083Y-80871547D01*
X143286982Y-80864739D01*
X143347698Y-80731790D01*
X143367700Y-80663669D01*
X143372333Y-80631450D01*
X143387861Y-80523447D01*
X143387861Y-80523442D01*
X143388500Y-80519000D01*
X143388500Y-77921062D01*
X146344493Y-77921062D01*
X146353789Y-77933077D01*
X146404994Y-77968931D01*
X146414489Y-77974414D01*
X146611947Y-78066490D01*
X146622239Y-78070236D01*
X146832688Y-78126625D01*
X146843481Y-78128528D01*
X147060525Y-78147517D01*
X147071475Y-78147517D01*
X147288519Y-78128528D01*
X147299312Y-78126625D01*
X147509761Y-78070236D01*
X147520053Y-78066490D01*
X147717511Y-77974414D01*
X147727006Y-77968931D01*
X147779048Y-77932491D01*
X147787424Y-77922012D01*
X147780356Y-77908566D01*
X147078812Y-77207022D01*
X147064868Y-77199408D01*
X147063035Y-77199539D01*
X147056420Y-77203790D01*
X146350923Y-77909287D01*
X146344493Y-77921062D01*
X143388500Y-77921062D01*
X143388500Y-76840475D01*
X145753483Y-76840475D01*
X145772472Y-77057519D01*
X145774375Y-77068312D01*
X145830764Y-77278761D01*
X145834510Y-77289053D01*
X145926586Y-77486511D01*
X145932069Y-77496006D01*
X145968509Y-77548048D01*
X145978988Y-77556424D01*
X145992434Y-77549356D01*
X146693978Y-76847812D01*
X146700356Y-76836132D01*
X147430408Y-76836132D01*
X147430539Y-76837965D01*
X147434790Y-76844580D01*
X148140287Y-77550077D01*
X148152062Y-77556507D01*
X148164077Y-77547211D01*
X148199931Y-77496006D01*
X148205414Y-77486511D01*
X148297490Y-77289053D01*
X148301236Y-77278761D01*
X148357625Y-77068312D01*
X148359528Y-77057519D01*
X148378517Y-76840475D01*
X148378517Y-76829525D01*
X148359528Y-76612481D01*
X148357625Y-76601688D01*
X148301236Y-76391239D01*
X148297490Y-76380947D01*
X148205414Y-76183489D01*
X148199931Y-76173994D01*
X148163491Y-76121952D01*
X148153012Y-76113576D01*
X148139566Y-76120644D01*
X147438022Y-76822188D01*
X147430408Y-76836132D01*
X146700356Y-76836132D01*
X146701592Y-76833868D01*
X146701461Y-76832035D01*
X146697210Y-76825420D01*
X145991713Y-76119923D01*
X145979938Y-76113493D01*
X145967923Y-76122789D01*
X145932069Y-76173994D01*
X145926586Y-76183489D01*
X145834510Y-76380947D01*
X145830764Y-76391239D01*
X145774375Y-76601688D01*
X145772472Y-76612481D01*
X145753483Y-76829525D01*
X145753483Y-76840475D01*
X143388500Y-76840475D01*
X143388500Y-75747988D01*
X146344576Y-75747988D01*
X146351644Y-75761434D01*
X147053188Y-76462978D01*
X147067132Y-76470592D01*
X147068965Y-76470461D01*
X147075580Y-76466210D01*
X147781077Y-75760713D01*
X147787507Y-75748938D01*
X147778211Y-75736923D01*
X147727006Y-75701069D01*
X147717511Y-75695586D01*
X147520053Y-75603510D01*
X147509761Y-75599764D01*
X147299312Y-75543375D01*
X147288519Y-75541472D01*
X147071475Y-75522483D01*
X147060525Y-75522483D01*
X146843481Y-75541472D01*
X146832688Y-75543375D01*
X146622239Y-75599764D01*
X146611947Y-75603510D01*
X146414489Y-75695586D01*
X146404994Y-75701069D01*
X146352952Y-75737509D01*
X146344576Y-75747988D01*
X143388500Y-75747988D01*
X143388500Y-74299500D01*
X143408502Y-74231379D01*
X143462158Y-74184886D01*
X143514500Y-74173500D01*
X151676652Y-74173500D01*
X151744773Y-74193502D01*
G37*
%TD.AperFunction*%
%TD*%
M02*
