%TF.GenerationSoftware,KiCad,Pcbnew,6.0.10-86aedd382b~118~ubuntu20.04.1*%
%TF.CreationDate,2023-03-02T00:13:09-08:00*%
%TF.ProjectId,SolderProject,536f6c64-6572-4507-926f-6a6563742e6b,rev?*%
%TF.SameCoordinates,Original*%
%TF.FileFunction,Legend,Bot*%
%TF.FilePolarity,Positive*%
%FSLAX46Y46*%
G04 Gerber Fmt 4.6, Leading zero omitted, Abs format (unit mm)*
G04 Created by KiCad (PCBNEW 6.0.10-86aedd382b~118~ubuntu20.04.1) date 2023-03-02 00:13:09*
%MOMM*%
%LPD*%
G01*
G04 APERTURE LIST*
%ADD10C,0.300000*%
%ADD11C,0.200000*%
G04 APERTURE END LIST*
D10*
X130421428Y-80778571D02*
X130421428Y-81850000D01*
X130492857Y-82064285D01*
X130635714Y-82207142D01*
X130850000Y-82278571D01*
X130992857Y-82278571D01*
X129492857Y-82278571D02*
X129635714Y-82207142D01*
X129707142Y-82135714D01*
X129778571Y-81992857D01*
X129778571Y-81564285D01*
X129707142Y-81421428D01*
X129635714Y-81350000D01*
X129492857Y-81278571D01*
X129278571Y-81278571D01*
X129135714Y-81350000D01*
X129064285Y-81421428D01*
X128992857Y-81564285D01*
X128992857Y-81992857D01*
X129064285Y-82135714D01*
X129135714Y-82207142D01*
X129278571Y-82278571D01*
X129492857Y-82278571D01*
X128350000Y-82278571D02*
X128350000Y-81278571D01*
X128350000Y-80778571D02*
X128421428Y-80850000D01*
X128350000Y-80921428D01*
X128278571Y-80850000D01*
X128350000Y-80778571D01*
X128350000Y-80921428D01*
X127635714Y-81278571D02*
X127635714Y-82278571D01*
X127635714Y-81421428D02*
X127564285Y-81350000D01*
X127421428Y-81278571D01*
X127207142Y-81278571D01*
X127064285Y-81350000D01*
X126992857Y-81492857D01*
X126992857Y-82278571D01*
X125135714Y-82278571D02*
X125135714Y-80778571D01*
X124421428Y-81492857D02*
X123921428Y-81492857D01*
X123707142Y-82278571D02*
X124421428Y-82278571D01*
X124421428Y-80778571D01*
X123707142Y-80778571D01*
X123064285Y-81492857D02*
X122564285Y-81492857D01*
X122350000Y-82278571D02*
X123064285Y-82278571D01*
X123064285Y-80778571D01*
X122350000Y-80778571D01*
X121707142Y-81492857D02*
X121207142Y-81492857D01*
X120992857Y-82278571D02*
X121707142Y-82278571D01*
X121707142Y-80778571D01*
X120992857Y-80778571D01*
X120350000Y-82135714D02*
X120278571Y-82207142D01*
X120350000Y-82278571D01*
X120421428Y-82207142D01*
X120350000Y-82135714D01*
X120350000Y-82278571D01*
X120350000Y-81707142D02*
X120421428Y-80850000D01*
X120350000Y-80778571D01*
X120278571Y-80850000D01*
X120350000Y-81707142D01*
X120350000Y-80778571D01*
D11*
X139485714Y-89576857D02*
X140057142Y-89576857D01*
X140057142Y-88376857D01*
X138628571Y-89519714D02*
X138742857Y-89576857D01*
X138971428Y-89576857D01*
X139085714Y-89519714D01*
X139142857Y-89405428D01*
X139142857Y-88948285D01*
X139085714Y-88834000D01*
X138971428Y-88776857D01*
X138742857Y-88776857D01*
X138628571Y-88834000D01*
X138571428Y-88948285D01*
X138571428Y-89062571D01*
X139142857Y-89176857D01*
X137542857Y-89576857D02*
X137542857Y-88948285D01*
X137600000Y-88834000D01*
X137714285Y-88776857D01*
X137942857Y-88776857D01*
X138057142Y-88834000D01*
X137542857Y-89519714D02*
X137657142Y-89576857D01*
X137942857Y-89576857D01*
X138057142Y-89519714D01*
X138114285Y-89405428D01*
X138114285Y-89291142D01*
X138057142Y-89176857D01*
X137942857Y-89119714D01*
X137657142Y-89119714D01*
X137542857Y-89062571D01*
X136971428Y-89576857D02*
X136971428Y-88776857D01*
X136971428Y-89005428D02*
X136914285Y-88891142D01*
X136857142Y-88834000D01*
X136742857Y-88776857D01*
X136628571Y-88776857D01*
X136228571Y-88776857D02*
X136228571Y-89576857D01*
X136228571Y-88891142D02*
X136171428Y-88834000D01*
X136057142Y-88776857D01*
X135885714Y-88776857D01*
X135771428Y-88834000D01*
X135714285Y-88948285D01*
X135714285Y-89576857D01*
X133714285Y-89576857D02*
X133714285Y-88948285D01*
X133771428Y-88834000D01*
X133885714Y-88776857D01*
X134114285Y-88776857D01*
X134228571Y-88834000D01*
X133714285Y-89519714D02*
X133828571Y-89576857D01*
X134114285Y-89576857D01*
X134228571Y-89519714D01*
X134285714Y-89405428D01*
X134285714Y-89291142D01*
X134228571Y-89176857D01*
X134114285Y-89119714D01*
X133828571Y-89119714D01*
X133714285Y-89062571D01*
X133142857Y-89576857D02*
X133142857Y-88376857D01*
X133142857Y-88834000D02*
X133028571Y-88776857D01*
X132800000Y-88776857D01*
X132685714Y-88834000D01*
X132628571Y-88891142D01*
X132571428Y-89005428D01*
X132571428Y-89348285D01*
X132628571Y-89462571D01*
X132685714Y-89519714D01*
X132800000Y-89576857D01*
X133028571Y-89576857D01*
X133142857Y-89519714D01*
X131885714Y-89576857D02*
X132000000Y-89519714D01*
X132057142Y-89462571D01*
X132114285Y-89348285D01*
X132114285Y-89005428D01*
X132057142Y-88891142D01*
X132000000Y-88834000D01*
X131885714Y-88776857D01*
X131714285Y-88776857D01*
X131600000Y-88834000D01*
X131542857Y-88891142D01*
X131485714Y-89005428D01*
X131485714Y-89348285D01*
X131542857Y-89462571D01*
X131600000Y-89519714D01*
X131714285Y-89576857D01*
X131885714Y-89576857D01*
X130457142Y-88776857D02*
X130457142Y-89576857D01*
X130971428Y-88776857D02*
X130971428Y-89405428D01*
X130914285Y-89519714D01*
X130800000Y-89576857D01*
X130628571Y-89576857D01*
X130514285Y-89519714D01*
X130457142Y-89462571D01*
X130057142Y-88776857D02*
X129600000Y-88776857D01*
X129885714Y-88376857D02*
X129885714Y-89405428D01*
X129828571Y-89519714D01*
X129714285Y-89576857D01*
X129600000Y-89576857D01*
X128457142Y-88776857D02*
X128000000Y-88776857D01*
X128285714Y-88376857D02*
X128285714Y-89405428D01*
X128228571Y-89519714D01*
X128114285Y-89576857D01*
X128000000Y-89576857D01*
X127600000Y-89576857D02*
X127600000Y-88376857D01*
X127085714Y-89576857D02*
X127085714Y-88948285D01*
X127142857Y-88834000D01*
X127257142Y-88776857D01*
X127428571Y-88776857D01*
X127542857Y-88834000D01*
X127600000Y-88891142D01*
X126514285Y-89576857D02*
X126514285Y-88776857D01*
X126514285Y-88376857D02*
X126571428Y-88434000D01*
X126514285Y-88491142D01*
X126457142Y-88434000D01*
X126514285Y-88376857D01*
X126514285Y-88491142D01*
X126000000Y-89519714D02*
X125885714Y-89576857D01*
X125657142Y-89576857D01*
X125542857Y-89519714D01*
X125485714Y-89405428D01*
X125485714Y-89348285D01*
X125542857Y-89234000D01*
X125657142Y-89176857D01*
X125828571Y-89176857D01*
X125942857Y-89119714D01*
X126000000Y-89005428D01*
X126000000Y-88948285D01*
X125942857Y-88834000D01*
X125828571Y-88776857D01*
X125657142Y-88776857D01*
X125542857Y-88834000D01*
X140485714Y-90708857D02*
X140485714Y-91908857D01*
X140485714Y-90766000D02*
X140371428Y-90708857D01*
X140142857Y-90708857D01*
X140028571Y-90766000D01*
X139971428Y-90823142D01*
X139914285Y-90937428D01*
X139914285Y-91280285D01*
X139971428Y-91394571D01*
X140028571Y-91451714D01*
X140142857Y-91508857D01*
X140371428Y-91508857D01*
X140485714Y-91451714D01*
X139400000Y-91508857D02*
X139400000Y-90708857D01*
X139400000Y-90937428D02*
X139342857Y-90823142D01*
X139285714Y-90766000D01*
X139171428Y-90708857D01*
X139057142Y-90708857D01*
X138485714Y-91508857D02*
X138600000Y-91451714D01*
X138657142Y-91394571D01*
X138714285Y-91280285D01*
X138714285Y-90937428D01*
X138657142Y-90823142D01*
X138600000Y-90766000D01*
X138485714Y-90708857D01*
X138314285Y-90708857D01*
X138200000Y-90766000D01*
X138142857Y-90823142D01*
X138085714Y-90937428D01*
X138085714Y-91280285D01*
X138142857Y-91394571D01*
X138200000Y-91451714D01*
X138314285Y-91508857D01*
X138485714Y-91508857D01*
X137571428Y-90708857D02*
X137571428Y-91737428D01*
X137628571Y-91851714D01*
X137742857Y-91908857D01*
X137800000Y-91908857D01*
X137571428Y-90308857D02*
X137628571Y-90366000D01*
X137571428Y-90423142D01*
X137514285Y-90366000D01*
X137571428Y-90308857D01*
X137571428Y-90423142D01*
X136542857Y-91451714D02*
X136657142Y-91508857D01*
X136885714Y-91508857D01*
X137000000Y-91451714D01*
X137057142Y-91337428D01*
X137057142Y-90880285D01*
X137000000Y-90766000D01*
X136885714Y-90708857D01*
X136657142Y-90708857D01*
X136542857Y-90766000D01*
X136485714Y-90880285D01*
X136485714Y-90994571D01*
X137057142Y-91108857D01*
X135457142Y-91451714D02*
X135571428Y-91508857D01*
X135800000Y-91508857D01*
X135914285Y-91451714D01*
X135971428Y-91394571D01*
X136028571Y-91280285D01*
X136028571Y-90937428D01*
X135971428Y-90823142D01*
X135914285Y-90766000D01*
X135800000Y-90708857D01*
X135571428Y-90708857D01*
X135457142Y-90766000D01*
X135114285Y-90708857D02*
X134657142Y-90708857D01*
X134942857Y-90308857D02*
X134942857Y-91337428D01*
X134885714Y-91451714D01*
X134771428Y-91508857D01*
X134657142Y-91508857D01*
X133171428Y-91508857D02*
X133285714Y-91451714D01*
X133342857Y-91394571D01*
X133400000Y-91280285D01*
X133400000Y-90937428D01*
X133342857Y-90823142D01*
X133285714Y-90766000D01*
X133171428Y-90708857D01*
X133000000Y-90708857D01*
X132885714Y-90766000D01*
X132828571Y-90823142D01*
X132771428Y-90937428D01*
X132771428Y-91280285D01*
X132828571Y-91394571D01*
X132885714Y-91451714D01*
X133000000Y-91508857D01*
X133171428Y-91508857D01*
X132257142Y-90708857D02*
X132257142Y-91508857D01*
X132257142Y-90823142D02*
X132200000Y-90766000D01*
X132085714Y-90708857D01*
X131914285Y-90708857D01*
X131800000Y-90766000D01*
X131742857Y-90880285D01*
X131742857Y-91508857D01*
X129628571Y-90366000D02*
X129742857Y-90308857D01*
X129914285Y-90308857D01*
X130085714Y-90366000D01*
X130200000Y-90480285D01*
X130257142Y-90594571D01*
X130314285Y-90823142D01*
X130314285Y-90994571D01*
X130257142Y-91223142D01*
X130200000Y-91337428D01*
X130085714Y-91451714D01*
X129914285Y-91508857D01*
X129800000Y-91508857D01*
X129628571Y-91451714D01*
X129571428Y-91394571D01*
X129571428Y-90994571D01*
X129800000Y-90994571D01*
X129057142Y-91508857D02*
X129057142Y-90708857D01*
X129057142Y-90308857D02*
X129114285Y-90366000D01*
X129057142Y-90423142D01*
X129000000Y-90366000D01*
X129057142Y-90308857D01*
X129057142Y-90423142D01*
X128657142Y-90708857D02*
X128200000Y-90708857D01*
X128485714Y-90308857D02*
X128485714Y-91337428D01*
X128428571Y-91451714D01*
X128314285Y-91508857D01*
X128200000Y-91508857D01*
X127800000Y-91508857D02*
X127800000Y-90308857D01*
X127285714Y-91508857D02*
X127285714Y-90880285D01*
X127342857Y-90766000D01*
X127457142Y-90708857D01*
X127628571Y-90708857D01*
X127742857Y-90766000D01*
X127800000Y-90823142D01*
X126200000Y-90708857D02*
X126200000Y-91508857D01*
X126714285Y-90708857D02*
X126714285Y-91337428D01*
X126657142Y-91451714D01*
X126542857Y-91508857D01*
X126371428Y-91508857D01*
X126257142Y-91451714D01*
X126200000Y-91394571D01*
X125628571Y-91508857D02*
X125628571Y-90308857D01*
X125628571Y-90766000D02*
X125514285Y-90708857D01*
X125285714Y-90708857D01*
X125171428Y-90766000D01*
X125114285Y-90823142D01*
X125057142Y-90937428D01*
X125057142Y-91280285D01*
X125114285Y-91394571D01*
X125171428Y-91451714D01*
X125285714Y-91508857D01*
X125514285Y-91508857D01*
X125628571Y-91451714D01*
D10*
X153571428Y-64939642D02*
X152428571Y-64939642D01*
X153000000Y-65511071D02*
X153000000Y-64368214D01*
X153571428Y-67354642D02*
X152428571Y-67354642D01*
%TO.C,G\u002A\u002A\u002A*%
G36*
X147357318Y-94120170D02*
G01*
X147086961Y-94120170D01*
X147086961Y-93579457D01*
X146816604Y-93579457D01*
X146816604Y-93309101D01*
X147086961Y-93309101D01*
X147086961Y-92768388D01*
X147357318Y-92768388D01*
X147357318Y-94120170D01*
G37*
G36*
X144653752Y-90335178D02*
G01*
X144383395Y-90335178D01*
X144383395Y-90064822D01*
X144653752Y-90064822D01*
X144653752Y-90335178D01*
G37*
G36*
X145194465Y-88172326D02*
G01*
X144924108Y-88172326D01*
X144924108Y-87901969D01*
X145194465Y-87901969D01*
X145194465Y-88172326D01*
G37*
G36*
X142220543Y-90605535D02*
G01*
X141950186Y-90605535D01*
X141950186Y-90335178D01*
X142220543Y-90335178D01*
X142220543Y-90605535D01*
G37*
G36*
X149520170Y-91957318D02*
G01*
X149249814Y-91957318D01*
X149249814Y-91146248D01*
X148979457Y-91146248D01*
X148979457Y-90875892D01*
X149520170Y-90875892D01*
X149520170Y-91957318D01*
G37*
G36*
X146816604Y-89253752D02*
G01*
X146546248Y-89253752D01*
X146546248Y-88713039D01*
X146816604Y-88713039D01*
X146816604Y-89253752D01*
G37*
G36*
X144383395Y-94120170D02*
G01*
X144113039Y-94120170D01*
X144113039Y-93849814D01*
X144383395Y-93849814D01*
X144383395Y-94120170D01*
G37*
G36*
X148979457Y-87631613D02*
G01*
X148168387Y-87631613D01*
X148168387Y-86820543D01*
X148979457Y-86820543D01*
X148979457Y-87631613D01*
G37*
G36*
X146546248Y-90875892D02*
G01*
X146275891Y-90875892D01*
X146275891Y-90335178D01*
X146005535Y-90335178D01*
X146005535Y-90064822D01*
X146546248Y-90064822D01*
X146546248Y-90875892D01*
G37*
G36*
X145194465Y-90064822D02*
G01*
X144924108Y-90064822D01*
X144924108Y-89794465D01*
X145194465Y-89794465D01*
X145194465Y-90064822D01*
G37*
G36*
X148979457Y-93579457D02*
G01*
X148168387Y-93579457D01*
X148168387Y-92768388D01*
X148979457Y-92768388D01*
X148979457Y-93579457D01*
G37*
G36*
X145735178Y-90605535D02*
G01*
X146005535Y-90605535D01*
X146005535Y-90875892D01*
X145194465Y-90875892D01*
X145194465Y-90605535D01*
X144924108Y-90605535D01*
X144924108Y-90335178D01*
X145194465Y-90335178D01*
X145194465Y-90064822D01*
X145735178Y-90064822D01*
X145735178Y-90605535D01*
G37*
G36*
X141950186Y-90064822D02*
G01*
X141679830Y-90064822D01*
X141679830Y-89794465D01*
X141950186Y-89794465D01*
X141950186Y-90064822D01*
G37*
G36*
X147357318Y-90875892D02*
G01*
X147086961Y-90875892D01*
X147086961Y-90605535D01*
X147357318Y-90605535D01*
X147357318Y-90875892D01*
G37*
G36*
X142761256Y-88713039D02*
G01*
X142490899Y-88713039D01*
X142490899Y-88442682D01*
X142761256Y-88442682D01*
X142761256Y-88713039D01*
G37*
G36*
X145194465Y-91146248D02*
G01*
X144924108Y-91146248D01*
X144924108Y-90875892D01*
X145194465Y-90875892D01*
X145194465Y-91146248D01*
G37*
G36*
X144653752Y-86550186D02*
G01*
X143842682Y-86550186D01*
X143842682Y-86279830D01*
X144653752Y-86279830D01*
X144653752Y-86550186D01*
G37*
G36*
X144383395Y-87631613D02*
G01*
X144113039Y-87631613D01*
X144113039Y-88172326D01*
X143842682Y-88172326D01*
X143842682Y-87361256D01*
X144113039Y-87361256D01*
X144113039Y-87090900D01*
X143842682Y-87090900D01*
X143842682Y-86820543D01*
X144383395Y-86820543D01*
X144383395Y-87631613D01*
G37*
G36*
X141950186Y-91146248D02*
G01*
X141679830Y-91146248D01*
X141679830Y-90875892D01*
X141950186Y-90875892D01*
X141950186Y-91146248D01*
G37*
G36*
X143572326Y-92498031D02*
G01*
X143301969Y-92498031D01*
X143301969Y-92227674D01*
X143572326Y-92227674D01*
X143572326Y-92498031D01*
G37*
G36*
X147357318Y-86820543D02*
G01*
X147086961Y-86820543D01*
X147086961Y-86550186D01*
X147357318Y-86550186D01*
X147357318Y-86820543D01*
G37*
G36*
X141679830Y-88172326D02*
G01*
X141679830Y-87901969D01*
X141950186Y-87901969D01*
X143301969Y-87901969D01*
X143301969Y-86550186D01*
X141950186Y-86550186D01*
X141950186Y-87901969D01*
X141679830Y-87901969D01*
X141679830Y-86279830D01*
X143572326Y-86279830D01*
X143572326Y-88172326D01*
X141679830Y-88172326D01*
G37*
G36*
X147086961Y-91146248D02*
G01*
X146546248Y-91146248D01*
X146546248Y-90875892D01*
X147086961Y-90875892D01*
X147086961Y-91146248D01*
G37*
G36*
X147627674Y-94120170D02*
G01*
X147627674Y-93849814D01*
X147898031Y-93849814D01*
X149249814Y-93849814D01*
X149249814Y-92498031D01*
X147898031Y-92498031D01*
X147898031Y-93849814D01*
X147627674Y-93849814D01*
X147627674Y-92227674D01*
X149520170Y-92227674D01*
X149520170Y-94120170D01*
X147627674Y-94120170D01*
G37*
G36*
X147627674Y-88172326D02*
G01*
X147627674Y-87901969D01*
X147898031Y-87901969D01*
X149249814Y-87901969D01*
X149249814Y-86550186D01*
X147898031Y-86550186D01*
X147898031Y-87901969D01*
X147627674Y-87901969D01*
X147627674Y-86279830D01*
X149520170Y-86279830D01*
X149520170Y-88172326D01*
X147627674Y-88172326D01*
G37*
G36*
X146816604Y-86820543D02*
G01*
X146546248Y-86820543D01*
X146546248Y-86279830D01*
X146816604Y-86279830D01*
X146816604Y-86820543D01*
G37*
G36*
X149249814Y-88983396D02*
G01*
X149249814Y-89253752D01*
X149520170Y-89253752D01*
X149520170Y-89524109D01*
X149249814Y-89524109D01*
X149249814Y-89794465D01*
X149520170Y-89794465D01*
X149520170Y-90335178D01*
X149249814Y-90335178D01*
X149249814Y-89794465D01*
X148979457Y-89794465D01*
X148979457Y-88983396D01*
X149249814Y-88983396D01*
G37*
G36*
X147086961Y-88442682D02*
G01*
X147898031Y-88442682D01*
X147898031Y-88713039D01*
X147627674Y-88713039D01*
X147627674Y-88983396D01*
X148709100Y-88983396D01*
X148709100Y-88713039D01*
X148168387Y-88713039D01*
X148168387Y-88442682D01*
X149520170Y-88442682D01*
X149520170Y-88983396D01*
X149249814Y-88983396D01*
X149249814Y-88713039D01*
X148979457Y-88713039D01*
X148979457Y-88983396D01*
X148709100Y-88983396D01*
X148709100Y-89794465D01*
X148979457Y-89794465D01*
X148979457Y-90335178D01*
X149249814Y-90335178D01*
X149249814Y-90605535D01*
X148438744Y-90605535D01*
X148438744Y-89794465D01*
X148168387Y-89794465D01*
X148168387Y-90335178D01*
X147627674Y-90335178D01*
X147627674Y-90064822D01*
X147898031Y-90064822D01*
X147898031Y-89794465D01*
X147627674Y-89794465D01*
X147627674Y-90064822D01*
X147357318Y-90064822D01*
X147357318Y-90335178D01*
X147627674Y-90335178D01*
X147627674Y-90605535D01*
X147898031Y-90605535D01*
X147898031Y-90875892D01*
X148168387Y-90875892D01*
X148168387Y-91416605D01*
X147627674Y-91416605D01*
X147627674Y-91686961D01*
X148168387Y-91686961D01*
X148168387Y-91957318D01*
X147357318Y-91957318D01*
X147357318Y-92498031D01*
X147086961Y-92498031D01*
X147086961Y-92768388D01*
X146546248Y-92768388D01*
X146546248Y-93038744D01*
X146275891Y-93038744D01*
X146275891Y-93309101D01*
X146005535Y-93309101D01*
X146005535Y-93579457D01*
X146275891Y-93579457D01*
X146275891Y-94120170D01*
X146005535Y-94120170D01*
X146005535Y-93849814D01*
X145735178Y-93849814D01*
X145735178Y-93579457D01*
X144653752Y-93579457D01*
X144653752Y-93309101D01*
X144383395Y-93309101D01*
X144383395Y-93579457D01*
X144113039Y-93579457D01*
X144113039Y-93849814D01*
X143572326Y-93849814D01*
X143572326Y-93579457D01*
X143301969Y-93579457D01*
X143301969Y-93849814D01*
X143572326Y-93849814D01*
X143572326Y-94120170D01*
X142761256Y-94120170D01*
X142761256Y-93849814D01*
X143031612Y-93849814D01*
X143031612Y-93579457D01*
X142761256Y-93579457D01*
X142761256Y-93849814D01*
X142490899Y-93849814D01*
X142490899Y-93579457D01*
X142220543Y-93579457D01*
X142220543Y-93849814D01*
X142490899Y-93849814D01*
X142490899Y-94120170D01*
X142220543Y-94120170D01*
X142220543Y-93849814D01*
X141950186Y-93849814D01*
X141950186Y-93309101D01*
X141679830Y-93309101D01*
X141679830Y-92768388D01*
X142220543Y-92768388D01*
X142490899Y-92768388D01*
X142490899Y-93038744D01*
X142761256Y-93038744D01*
X142761256Y-93309101D01*
X143842682Y-93309101D01*
X143842682Y-93038744D01*
X144113039Y-93038744D01*
X144383395Y-93038744D01*
X144383395Y-92768388D01*
X144113039Y-92768388D01*
X144113039Y-93038744D01*
X143842682Y-93038744D01*
X142761256Y-93038744D01*
X142761256Y-92768388D01*
X143031612Y-92768388D01*
X143842682Y-92768388D01*
X143842682Y-92227674D01*
X144113039Y-92227674D01*
X144924108Y-92227674D01*
X144924108Y-91957318D01*
X145194465Y-91957318D01*
X145194465Y-92227674D01*
X145464822Y-92227674D01*
X145464822Y-91686961D01*
X144924108Y-91686961D01*
X144924108Y-91957318D01*
X144113039Y-91957318D01*
X144113039Y-92227674D01*
X143842682Y-92227674D01*
X143842682Y-91957318D01*
X143031612Y-91957318D01*
X143031612Y-92768388D01*
X142761256Y-92768388D01*
X142761256Y-92498031D01*
X142220543Y-92498031D01*
X142220543Y-92768388D01*
X141679830Y-92768388D01*
X141679830Y-92498031D01*
X142220543Y-92498031D01*
X142220543Y-92227674D01*
X141679830Y-92227674D01*
X141679830Y-91686961D01*
X141950186Y-91686961D01*
X142220543Y-91686961D01*
X142490899Y-91686961D01*
X142490899Y-91957318D01*
X142761256Y-91957318D01*
X142761256Y-91686961D01*
X143301969Y-91686961D01*
X143301969Y-91416605D01*
X142761256Y-91416605D01*
X142761256Y-90875892D01*
X143031612Y-90875892D01*
X143301969Y-90875892D01*
X143842682Y-90875892D01*
X143842682Y-91146248D01*
X143572326Y-91146248D01*
X143572326Y-91416605D01*
X143842682Y-91416605D01*
X143842682Y-91146248D01*
X144113039Y-91146248D01*
X144113039Y-91686961D01*
X144383395Y-91686961D01*
X144653752Y-91686961D01*
X144924108Y-91686961D01*
X144924108Y-91416605D01*
X144653752Y-91416605D01*
X144653752Y-91686961D01*
X144383395Y-91686961D01*
X144383395Y-91146248D01*
X144113039Y-91146248D01*
X144113039Y-90605535D01*
X143842682Y-90605535D01*
X143842682Y-90875892D01*
X143572326Y-90875892D01*
X143572326Y-90605535D01*
X143301969Y-90605535D01*
X143301969Y-90875892D01*
X143031612Y-90875892D01*
X143031612Y-90605535D01*
X142761256Y-90605535D01*
X142761256Y-90875892D01*
X142490899Y-90875892D01*
X142490899Y-91416605D01*
X142220543Y-91416605D01*
X142220543Y-91686961D01*
X141950186Y-91686961D01*
X141950186Y-91416605D01*
X142220543Y-91416605D01*
X142220543Y-90605535D01*
X142761256Y-90605535D01*
X142761256Y-90335178D01*
X143031612Y-90335178D01*
X143572326Y-90335178D01*
X144113039Y-90335178D01*
X144383395Y-90335178D01*
X144383395Y-90605535D01*
X144924108Y-90605535D01*
X144924108Y-90875892D01*
X144383395Y-90875892D01*
X144383395Y-91146248D01*
X144924108Y-91146248D01*
X144924108Y-91416605D01*
X145194465Y-91416605D01*
X145194465Y-91146248D01*
X145464822Y-91146248D01*
X145464822Y-91416605D01*
X145735178Y-91416605D01*
X145735178Y-91686961D01*
X146005535Y-91686961D01*
X146005535Y-91416605D01*
X146275891Y-91416605D01*
X146275891Y-91957318D01*
X145735178Y-91957318D01*
X145735178Y-92498031D01*
X145194465Y-92498031D01*
X145194465Y-92768388D01*
X144924108Y-92768388D01*
X144924108Y-92498031D01*
X144383395Y-92498031D01*
X144383395Y-92768388D01*
X144924108Y-92768388D01*
X144924108Y-93038744D01*
X145194465Y-93038744D01*
X145194465Y-93309101D01*
X145735178Y-93309101D01*
X145735178Y-93038744D01*
X146275891Y-93038744D01*
X146275891Y-92498031D01*
X146005535Y-92498031D01*
X146005535Y-92227674D01*
X146546248Y-92227674D01*
X146546248Y-92498031D01*
X147086961Y-92498031D01*
X147086961Y-91957318D01*
X147357318Y-91957318D01*
X147357318Y-91686961D01*
X147086961Y-91686961D01*
X147086961Y-91416605D01*
X147357318Y-91416605D01*
X147357318Y-91146248D01*
X147898031Y-91146248D01*
X147898031Y-90875892D01*
X147627674Y-90875892D01*
X147627674Y-90605535D01*
X147357318Y-90605535D01*
X147357318Y-90335178D01*
X146816604Y-90335178D01*
X146816604Y-89794465D01*
X147086961Y-89794465D01*
X147357318Y-89794465D01*
X147357318Y-89524109D01*
X147627674Y-89524109D01*
X147898031Y-89524109D01*
X147898031Y-89794465D01*
X148168387Y-89794465D01*
X148168387Y-89524109D01*
X148438744Y-89524109D01*
X148438744Y-89253752D01*
X147627674Y-89253752D01*
X147627674Y-89524109D01*
X147357318Y-89524109D01*
X147086961Y-89524109D01*
X147086961Y-89794465D01*
X146816604Y-89794465D01*
X146546248Y-89794465D01*
X146546248Y-89524109D01*
X147086961Y-89524109D01*
X147086961Y-88983396D01*
X147357318Y-88983396D01*
X147357318Y-88713039D01*
X146816604Y-88713039D01*
X146816604Y-88442682D01*
X146546248Y-88442682D01*
X146546248Y-88713039D01*
X146275891Y-88713039D01*
X146275891Y-88172326D01*
X146546248Y-88172326D01*
X146546248Y-87901969D01*
X146275891Y-87901969D01*
X146275891Y-88172326D01*
X146005535Y-88172326D01*
X146005535Y-87901969D01*
X145735178Y-87901969D01*
X145735178Y-88442682D01*
X146005535Y-88442682D01*
X146005535Y-88713039D01*
X146275891Y-88713039D01*
X146275891Y-88983396D01*
X146005535Y-88983396D01*
X146005535Y-89253752D01*
X146275891Y-89253752D01*
X146275891Y-89794465D01*
X145194465Y-89794465D01*
X145194465Y-89524109D01*
X144924108Y-89524109D01*
X144924108Y-89253752D01*
X144383395Y-89253752D01*
X144383395Y-89524109D01*
X144924108Y-89524109D01*
X144924108Y-89794465D01*
X144383395Y-89794465D01*
X144383395Y-90064822D01*
X144113039Y-90064822D01*
X144113039Y-90335178D01*
X143572326Y-90335178D01*
X143572326Y-90064822D01*
X143031612Y-90064822D01*
X143031612Y-90335178D01*
X142761256Y-90335178D01*
X142220543Y-90335178D01*
X142220543Y-90064822D01*
X142761256Y-90064822D01*
X142761256Y-89794465D01*
X142220543Y-89794465D01*
X142220543Y-89524109D01*
X142490899Y-89524109D01*
X142490899Y-89253752D01*
X142761256Y-89253752D01*
X142761256Y-88713039D01*
X143031612Y-88713039D01*
X143031612Y-88442682D01*
X143301969Y-88442682D01*
X143301969Y-88713039D01*
X143572326Y-88713039D01*
X143572326Y-88442682D01*
X143842682Y-88442682D01*
X143842682Y-88713039D01*
X143572326Y-88713039D01*
X143572326Y-88983396D01*
X143031612Y-88983396D01*
X143031612Y-89253752D01*
X142761256Y-89253752D01*
X142761256Y-89794465D01*
X143842682Y-89794465D01*
X143842682Y-89524109D01*
X144113039Y-89524109D01*
X144113039Y-89253752D01*
X144383395Y-89253752D01*
X144383395Y-88983396D01*
X143842682Y-88983396D01*
X143842682Y-88713039D01*
X144383395Y-88713039D01*
X144383395Y-88983396D01*
X144924108Y-88983396D01*
X145194465Y-88983396D01*
X145464822Y-88983396D01*
X145464822Y-89524109D01*
X146005535Y-89524109D01*
X146005535Y-89253752D01*
X145735178Y-89253752D01*
X145735178Y-88713039D01*
X145194465Y-88713039D01*
X145194465Y-88983396D01*
X144924108Y-88983396D01*
X144924108Y-88713039D01*
X144653752Y-88713039D01*
X144653752Y-88442682D01*
X145464822Y-88442682D01*
X145464822Y-87901969D01*
X145194465Y-87901969D01*
X145194465Y-87631613D01*
X145464822Y-87631613D01*
X145735178Y-87631613D01*
X145735178Y-87361256D01*
X145464822Y-87361256D01*
X145464822Y-87631613D01*
X145194465Y-87631613D01*
X144924108Y-87631613D01*
X144924108Y-87361256D01*
X144653752Y-87361256D01*
X144653752Y-87090900D01*
X145194465Y-87090900D01*
X145194465Y-86550186D01*
X145464822Y-86550186D01*
X145464822Y-86279830D01*
X145735178Y-86279830D01*
X145735178Y-86550186D01*
X145464822Y-86550186D01*
X145464822Y-87090900D01*
X146005535Y-87090900D01*
X146005535Y-86820543D01*
X145735178Y-86820543D01*
X145735178Y-86550186D01*
X146005535Y-86550186D01*
X146005535Y-86820543D01*
X146275891Y-86820543D01*
X146275891Y-87361256D01*
X146005535Y-87361256D01*
X146005535Y-87631613D01*
X146546248Y-87631613D01*
X146546248Y-87901969D01*
X146816604Y-87901969D01*
X146816604Y-87361256D01*
X146546248Y-87361256D01*
X146546248Y-87090900D01*
X147357318Y-87090900D01*
X147357318Y-87361256D01*
X147086961Y-87361256D01*
X147086961Y-87631613D01*
X147357318Y-87631613D01*
X147357318Y-88172326D01*
X147086961Y-88172326D01*
X147086961Y-87901969D01*
X146816604Y-87901969D01*
X146816604Y-88172326D01*
X147086961Y-88172326D01*
X147086961Y-88442682D01*
G37*
G36*
X146275891Y-86550186D02*
G01*
X146005535Y-86550186D01*
X146005535Y-86279830D01*
X146275891Y-86279830D01*
X146275891Y-86550186D01*
G37*
G36*
X148979457Y-91686961D02*
G01*
X148438744Y-91686961D01*
X148438744Y-91416605D01*
X148709100Y-91416605D01*
X148709100Y-91146248D01*
X148979457Y-91146248D01*
X148979457Y-91686961D01*
G37*
G36*
X141950186Y-88983396D02*
G01*
X141679830Y-88983396D01*
X141679830Y-88713039D01*
X141950186Y-88713039D01*
X141950186Y-88983396D01*
G37*
G36*
X144924108Y-87901969D02*
G01*
X144653752Y-87901969D01*
X144653752Y-88442682D01*
X144383395Y-88442682D01*
X144383395Y-87631613D01*
X144924108Y-87631613D01*
X144924108Y-87901969D01*
G37*
G36*
X148709100Y-91146248D02*
G01*
X148438744Y-91146248D01*
X148438744Y-90875892D01*
X148709100Y-90875892D01*
X148709100Y-91146248D01*
G37*
G36*
X142220543Y-88713039D02*
G01*
X141950186Y-88713039D01*
X141950186Y-88442682D01*
X142220543Y-88442682D01*
X142220543Y-88713039D01*
G37*
G36*
X146005535Y-91416605D02*
G01*
X145735178Y-91416605D01*
X145735178Y-91146248D01*
X146005535Y-91146248D01*
X146005535Y-91416605D01*
G37*
G36*
X146275891Y-91146248D02*
G01*
X146005535Y-91146248D01*
X146005535Y-90875892D01*
X146275891Y-90875892D01*
X146275891Y-91146248D01*
G37*
G36*
X142220543Y-89524109D02*
G01*
X141950186Y-89524109D01*
X141950186Y-89253752D01*
X142220543Y-89253752D01*
X142220543Y-89524109D01*
G37*
G36*
X145194465Y-86550186D02*
G01*
X144924108Y-86550186D01*
X144924108Y-86279830D01*
X145194465Y-86279830D01*
X145194465Y-86550186D01*
G37*
G36*
X146816604Y-91957318D02*
G01*
X146546248Y-91957318D01*
X146546248Y-91416605D01*
X146816604Y-91416605D01*
X146816604Y-91957318D01*
G37*
G36*
X145735178Y-94120170D02*
G01*
X144924108Y-94120170D01*
X144924108Y-93849814D01*
X145735178Y-93849814D01*
X145735178Y-94120170D01*
G37*
G36*
X143031612Y-87631613D02*
G01*
X142220543Y-87631613D01*
X142220543Y-86820543D01*
X143031612Y-86820543D01*
X143031612Y-87631613D01*
G37*
G36*
X116644445Y-82444444D02*
G01*
X116422223Y-82444444D01*
X116422223Y-82222222D01*
X116644445Y-82222222D01*
X116644445Y-82444444D01*
G37*
G36*
X118866667Y-86666666D02*
G01*
X118200000Y-86666666D01*
X118200000Y-86000000D01*
X118866667Y-86000000D01*
X118866667Y-86666666D01*
G37*
G36*
X115311112Y-80444444D02*
G01*
X115088889Y-80444444D01*
X115088889Y-80222222D01*
X115311112Y-80222222D01*
X115311112Y-80444444D01*
G37*
G36*
X113755556Y-85777777D02*
G01*
X113533334Y-85777777D01*
X113533334Y-85333333D01*
X113755556Y-85333333D01*
X113755556Y-85777777D01*
G37*
G36*
X116422223Y-79555555D02*
G01*
X116200000Y-79555555D01*
X116200000Y-79333333D01*
X116422223Y-79333333D01*
X116422223Y-79555555D01*
G37*
G36*
X119088889Y-81333333D02*
G01*
X118866667Y-81333333D01*
X118866667Y-81111111D01*
X119088889Y-81111111D01*
X119088889Y-81333333D01*
G37*
G36*
X114200000Y-79111111D02*
G01*
X113977778Y-79111111D01*
X113977778Y-78888888D01*
X114200000Y-78888888D01*
X114200000Y-79111111D01*
G37*
G36*
X117755556Y-87111111D02*
G01*
X117755556Y-86888888D01*
X117977778Y-86888888D01*
X119088889Y-86888888D01*
X119088889Y-85777777D01*
X117977778Y-85777777D01*
X117977778Y-86888888D01*
X117755556Y-86888888D01*
X117755556Y-85555555D01*
X119311112Y-85555555D01*
X119311112Y-87111111D01*
X117755556Y-87111111D01*
G37*
G36*
X111088889Y-80444444D02*
G01*
X111088889Y-80222222D01*
X111311112Y-80222222D01*
X112422223Y-80222222D01*
X112422223Y-79111111D01*
X111311112Y-79111111D01*
X111311112Y-80222222D01*
X111088889Y-80222222D01*
X111088889Y-78888888D01*
X112644445Y-78888888D01*
X112644445Y-80444444D01*
X111088889Y-80444444D01*
G37*
G36*
X118422223Y-82444444D02*
G01*
X118200000Y-82444444D01*
X118200000Y-81777777D01*
X117755556Y-81777777D01*
X117755556Y-81555555D01*
X117533334Y-81555555D01*
X117533334Y-81333333D01*
X117755556Y-81333333D01*
X117755556Y-81555555D01*
X117977778Y-81555555D01*
X117977778Y-81333333D01*
X117755556Y-81333333D01*
X117755556Y-81111111D01*
X118200000Y-81111111D01*
X118200000Y-80888888D01*
X117755556Y-80888888D01*
X117755556Y-81111111D01*
X117533334Y-81111111D01*
X117533334Y-81333333D01*
X117088889Y-81333333D01*
X117088889Y-81111111D01*
X116866667Y-81111111D01*
X116866667Y-80888888D01*
X116644445Y-80888888D01*
X116644445Y-80666666D01*
X116422223Y-80666666D01*
X116422223Y-80222222D01*
X116200000Y-80222222D01*
X116200000Y-80666666D01*
X116422223Y-80666666D01*
X116422223Y-80888888D01*
X115977778Y-80888888D01*
X115977778Y-81111111D01*
X116422223Y-81111111D01*
X116422223Y-80888888D01*
X116644445Y-80888888D01*
X116644445Y-81111111D01*
X116866667Y-81111111D01*
X116866667Y-81555555D01*
X117088889Y-81555555D01*
X117088889Y-81777777D01*
X117533334Y-81777777D01*
X117533334Y-82000000D01*
X117977778Y-82000000D01*
X117977778Y-82222222D01*
X117755556Y-82222222D01*
X117755556Y-82444444D01*
X117977778Y-82444444D01*
X117977778Y-82666666D01*
X118866667Y-82666666D01*
X118866667Y-82444444D01*
X118644445Y-82444444D01*
X118644445Y-82222222D01*
X119088889Y-82222222D01*
X119088889Y-82666666D01*
X119311112Y-82666666D01*
X119311112Y-82888888D01*
X119088889Y-82888888D01*
X119088889Y-83333333D01*
X118866667Y-83333333D01*
X118866667Y-82888888D01*
X118200000Y-82888888D01*
X118200000Y-83111111D01*
X117755556Y-83111111D01*
X117755556Y-82888888D01*
X117977778Y-82888888D01*
X117977778Y-82666666D01*
X117311112Y-82666666D01*
X117311112Y-82444444D01*
X117533334Y-82444444D01*
X117533334Y-82222222D01*
X117311112Y-82222222D01*
X117311112Y-82000000D01*
X117088889Y-82000000D01*
X117088889Y-81777777D01*
X116866667Y-81777777D01*
X116866667Y-81555555D01*
X116644445Y-81555555D01*
X116644445Y-81333333D01*
X116422223Y-81333333D01*
X116422223Y-81555555D01*
X116644445Y-81555555D01*
X116644445Y-81777777D01*
X116422223Y-81777777D01*
X116422223Y-82000000D01*
X115977778Y-82000000D01*
X115977778Y-82222222D01*
X116200000Y-82222222D01*
X116200000Y-82444444D01*
X116422223Y-82444444D01*
X116422223Y-82666666D01*
X116644445Y-82666666D01*
X116644445Y-82444444D01*
X116866667Y-82444444D01*
X116866667Y-82222222D01*
X117088889Y-82222222D01*
X117088889Y-83111111D01*
X116866667Y-83111111D01*
X116866667Y-83333333D01*
X116644445Y-83333333D01*
X116644445Y-83111111D01*
X116422223Y-83111111D01*
X116422223Y-83333333D01*
X116644445Y-83333333D01*
X116644445Y-83555555D01*
X116422223Y-83555555D01*
X116422223Y-83777777D01*
X115977778Y-83777777D01*
X115977778Y-84000000D01*
X116200000Y-84000000D01*
X116200000Y-84222222D01*
X116422223Y-84222222D01*
X116422223Y-84444444D01*
X116644445Y-84444444D01*
X116644445Y-84222222D01*
X117311112Y-84222222D01*
X117311112Y-84444444D01*
X117533334Y-84444444D01*
X117533334Y-84000000D01*
X117755556Y-84000000D01*
X117755556Y-83777777D01*
X118200000Y-83777777D01*
X118200000Y-83555555D01*
X118422223Y-83555555D01*
X118422223Y-83333333D01*
X118866667Y-83333333D01*
X118866667Y-83555555D01*
X118644445Y-83555555D01*
X118644445Y-84000000D01*
X117755556Y-84000000D01*
X117755556Y-84222222D01*
X117977778Y-84222222D01*
X117977778Y-84444444D01*
X117755556Y-84444444D01*
X117755556Y-84666666D01*
X117311112Y-84666666D01*
X117311112Y-84444444D01*
X117088889Y-84444444D01*
X117088889Y-84666666D01*
X117311112Y-84666666D01*
X117311112Y-84888888D01*
X116866667Y-84888888D01*
X116866667Y-85111111D01*
X117311112Y-85111111D01*
X117311112Y-84888888D01*
X117755556Y-84888888D01*
X117755556Y-85111111D01*
X117977778Y-85111111D01*
X117977778Y-84888888D01*
X118200000Y-84888888D01*
X118200000Y-84666666D01*
X117977778Y-84666666D01*
X117977778Y-84444444D01*
X118422223Y-84444444D01*
X118422223Y-85333333D01*
X117755556Y-85333333D01*
X117755556Y-85111111D01*
X117533334Y-85111111D01*
X117533334Y-85555555D01*
X116866667Y-85555555D01*
X116866667Y-85111111D01*
X116644445Y-85111111D01*
X116644445Y-84888888D01*
X116422223Y-84888888D01*
X116422223Y-85111111D01*
X116644445Y-85111111D01*
X116644445Y-85333333D01*
X116422223Y-85333333D01*
X116422223Y-85555555D01*
X115977778Y-85555555D01*
X115977778Y-85777777D01*
X115533334Y-85777777D01*
X115533334Y-85333333D01*
X115311112Y-85333333D01*
X115311112Y-85111111D01*
X115088889Y-85111111D01*
X115088889Y-85333333D01*
X114200000Y-85333333D01*
X114200000Y-85555555D01*
X114422223Y-85555555D01*
X114422223Y-85777777D01*
X114644445Y-85777777D01*
X114644445Y-85555555D01*
X114866667Y-85555555D01*
X114866667Y-86444444D01*
X114644445Y-86444444D01*
X114644445Y-86222222D01*
X114200000Y-86222222D01*
X114200000Y-86444444D01*
X114644445Y-86444444D01*
X114644445Y-86666666D01*
X114866667Y-86666666D01*
X114866667Y-87111111D01*
X113755556Y-87111111D01*
X113755556Y-86888888D01*
X113977778Y-86888888D01*
X114200000Y-86888888D01*
X114422223Y-86888888D01*
X114422223Y-86666666D01*
X114200000Y-86666666D01*
X114200000Y-86888888D01*
X113977778Y-86888888D01*
X113977778Y-86666666D01*
X113755556Y-86666666D01*
X113755556Y-86444444D01*
X113533334Y-86444444D01*
X113533334Y-86666666D01*
X113311112Y-86666666D01*
X113311112Y-86444444D01*
X112866667Y-86444444D01*
X112866667Y-86222222D01*
X113088889Y-86222222D01*
X113311112Y-86222222D01*
X113311112Y-86444444D01*
X113533334Y-86444444D01*
X113533334Y-86222222D01*
X113755556Y-86222222D01*
X113755556Y-86444444D01*
X113977778Y-86444444D01*
X113977778Y-86222222D01*
X114200000Y-86222222D01*
X114200000Y-86000000D01*
X114422223Y-86000000D01*
X114422223Y-85777777D01*
X114200000Y-85777777D01*
X114200000Y-86000000D01*
X113755556Y-86000000D01*
X113755556Y-85777777D01*
X113977778Y-85777777D01*
X113977778Y-85333333D01*
X114200000Y-85333333D01*
X114200000Y-85111111D01*
X114422223Y-85111111D01*
X114644445Y-85111111D01*
X115088889Y-85111111D01*
X115088889Y-84888888D01*
X115533334Y-84888888D01*
X115533334Y-85333333D01*
X116200000Y-85333333D01*
X116200000Y-84888888D01*
X115755556Y-84888888D01*
X115755556Y-84666666D01*
X115977778Y-84666666D01*
X116866667Y-84666666D01*
X116866667Y-84444444D01*
X116644445Y-84444444D01*
X116644445Y-84666666D01*
X116422223Y-84666666D01*
X116422223Y-84444444D01*
X115977778Y-84444444D01*
X115977778Y-84666666D01*
X115755556Y-84666666D01*
X115533334Y-84666666D01*
X115533334Y-84444444D01*
X115755556Y-84444444D01*
X115755556Y-84222222D01*
X115533334Y-84222222D01*
X115533334Y-84444444D01*
X115311112Y-84444444D01*
X115311112Y-84222222D01*
X114866667Y-84222222D01*
X114866667Y-84444444D01*
X114644445Y-84444444D01*
X114644445Y-84666666D01*
X114866667Y-84666666D01*
X114866667Y-84888888D01*
X114644445Y-84888888D01*
X114644445Y-85111111D01*
X114422223Y-85111111D01*
X114422223Y-84888888D01*
X114200000Y-84888888D01*
X114200000Y-85111111D01*
X113755556Y-85111111D01*
X113755556Y-84888888D01*
X113088889Y-84888888D01*
X113088889Y-85333333D01*
X113311112Y-85333333D01*
X113311112Y-85555555D01*
X113088889Y-85555555D01*
X113088889Y-86222222D01*
X112866667Y-86222222D01*
X112644445Y-86222222D01*
X112644445Y-86444444D01*
X112866667Y-86444444D01*
X112866667Y-86666666D01*
X112644445Y-86666666D01*
X112644445Y-86888888D01*
X112422223Y-86888888D01*
X112422223Y-86666666D01*
X112200000Y-86666666D01*
X112200000Y-86444444D01*
X112422223Y-86444444D01*
X112422223Y-86222222D01*
X111977778Y-86222222D01*
X111977778Y-86000000D01*
X112200000Y-86000000D01*
X112866667Y-86000000D01*
X112866667Y-85333333D01*
X112200000Y-85333333D01*
X112200000Y-86000000D01*
X111977778Y-86000000D01*
X111755556Y-86000000D01*
X111755556Y-86222222D01*
X111977778Y-86222222D01*
X111977778Y-86666666D01*
X111755556Y-86666666D01*
X111755556Y-86888888D01*
X112422223Y-86888888D01*
X112422223Y-87111111D01*
X111088889Y-87111111D01*
X111088889Y-86888888D01*
X111311112Y-86888888D01*
X111311112Y-86666666D01*
X111755556Y-86666666D01*
X111755556Y-86444444D01*
X111088889Y-86444444D01*
X111088889Y-85777777D01*
X111533334Y-85777777D01*
X111755556Y-85777777D01*
X111977778Y-85777777D01*
X111977778Y-85555555D01*
X111755556Y-85555555D01*
X111755556Y-85777777D01*
X111533334Y-85777777D01*
X111533334Y-85555555D01*
X111755556Y-85555555D01*
X111755556Y-85333333D01*
X111533334Y-85333333D01*
X111533334Y-85111111D01*
X111311112Y-85111111D01*
X111311112Y-84888888D01*
X111755556Y-84888888D01*
X111755556Y-85111111D01*
X112422223Y-85111111D01*
X112422223Y-84666666D01*
X112644445Y-84666666D01*
X112644445Y-85111111D01*
X112866667Y-85111111D01*
X112866667Y-84444444D01*
X113533334Y-84444444D01*
X113533334Y-84666666D01*
X113977778Y-84666666D01*
X114200000Y-84666666D01*
X114422223Y-84666666D01*
X114422223Y-84444444D01*
X114200000Y-84444444D01*
X114200000Y-84666666D01*
X113977778Y-84666666D01*
X113977778Y-84444444D01*
X114200000Y-84444444D01*
X114200000Y-84222222D01*
X113755556Y-84222222D01*
X113755556Y-84000000D01*
X113977778Y-84000000D01*
X114422223Y-84000000D01*
X115311112Y-84000000D01*
X115533334Y-84000000D01*
X115755556Y-84000000D01*
X115755556Y-83777777D01*
X115533334Y-83777777D01*
X115533334Y-84000000D01*
X115311112Y-84000000D01*
X115311112Y-83777777D01*
X115088889Y-83777777D01*
X115088889Y-83555555D01*
X114422223Y-83555555D01*
X114422223Y-84000000D01*
X113977778Y-84000000D01*
X113977778Y-83555555D01*
X114200000Y-83555555D01*
X114200000Y-83333333D01*
X113977778Y-83333333D01*
X113977778Y-83555555D01*
X113755556Y-83555555D01*
X113755556Y-83111111D01*
X114200000Y-83111111D01*
X114422223Y-83111111D01*
X114422223Y-82888888D01*
X114200000Y-82888888D01*
X114200000Y-83111111D01*
X113755556Y-83111111D01*
X113533334Y-83111111D01*
X113533334Y-83333333D01*
X112866667Y-83333333D01*
X112866667Y-83555555D01*
X112422223Y-83555555D01*
X112422223Y-83111111D01*
X111977778Y-83111111D01*
X111977778Y-82888888D01*
X111311112Y-82888888D01*
X111311112Y-82666666D01*
X111533334Y-82666666D01*
X111533334Y-82444444D01*
X111311112Y-82444444D01*
X111311112Y-82222222D01*
X111977778Y-82222222D01*
X111977778Y-82444444D01*
X111755556Y-82444444D01*
X111755556Y-82666666D01*
X112200000Y-82666666D01*
X112200000Y-82000000D01*
X111311112Y-82000000D01*
X111311112Y-81777777D01*
X111533334Y-81777777D01*
X111755556Y-81777777D01*
X112200000Y-81777777D01*
X112200000Y-82000000D01*
X112422223Y-82000000D01*
X112422223Y-82444444D01*
X112644445Y-82444444D01*
X112644445Y-82666666D01*
X112200000Y-82666666D01*
X112200000Y-82888888D01*
X112644445Y-82888888D01*
X112644445Y-83111111D01*
X113088889Y-83111111D01*
X113088889Y-82888888D01*
X112866667Y-82888888D01*
X112866667Y-82666666D01*
X113088889Y-82666666D01*
X113088889Y-82444444D01*
X113533334Y-82444444D01*
X113533334Y-82888888D01*
X113755556Y-82888888D01*
X113755556Y-82444444D01*
X114200000Y-82444444D01*
X114422223Y-82444444D01*
X114422223Y-82222222D01*
X114200000Y-82222222D01*
X114200000Y-82444444D01*
X113755556Y-82444444D01*
X113755556Y-82222222D01*
X112866667Y-82222222D01*
X112866667Y-81777777D01*
X112200000Y-81777777D01*
X112200000Y-81555555D01*
X112644445Y-81555555D01*
X112866667Y-81555555D01*
X112866667Y-81777777D01*
X113088889Y-81777777D01*
X113311112Y-81777777D01*
X113533334Y-81777777D01*
X113533334Y-82000000D01*
X113977778Y-82000000D01*
X114200000Y-82000000D01*
X114422223Y-82000000D01*
X114422223Y-82222222D01*
X114644445Y-82222222D01*
X114644445Y-82000000D01*
X114866667Y-82000000D01*
X114866667Y-82888888D01*
X114644445Y-82888888D01*
X114644445Y-82666666D01*
X114422223Y-82666666D01*
X114422223Y-82888888D01*
X114644445Y-82888888D01*
X114644445Y-83111111D01*
X114866667Y-83111111D01*
X114866667Y-83333333D01*
X115088889Y-83333333D01*
X115088889Y-83555555D01*
X115311112Y-83555555D01*
X115311112Y-83111111D01*
X115533334Y-83111111D01*
X115533334Y-83555555D01*
X115755556Y-83555555D01*
X115755556Y-83333333D01*
X115977778Y-83333333D01*
X115977778Y-83555555D01*
X116200000Y-83555555D01*
X116200000Y-83111111D01*
X115533334Y-83111111D01*
X115533334Y-82888888D01*
X115311112Y-82888888D01*
X115311112Y-83111111D01*
X115088889Y-83111111D01*
X115088889Y-82666666D01*
X115311112Y-82666666D01*
X115311112Y-82444444D01*
X115088889Y-82444444D01*
X115088889Y-82222222D01*
X115311112Y-82222222D01*
X115533334Y-82222222D01*
X115533334Y-82666666D01*
X115977778Y-82666666D01*
X115977778Y-82888888D01*
X116422223Y-82888888D01*
X116644445Y-82888888D01*
X116866667Y-82888888D01*
X116866667Y-82666666D01*
X116644445Y-82666666D01*
X116644445Y-82888888D01*
X116422223Y-82888888D01*
X116422223Y-82666666D01*
X115977778Y-82666666D01*
X115977778Y-82444444D01*
X115755556Y-82444444D01*
X115755556Y-82000000D01*
X115311112Y-82000000D01*
X115311112Y-82222222D01*
X115088889Y-82222222D01*
X115088889Y-81777777D01*
X114200000Y-81777777D01*
X114200000Y-82000000D01*
X113977778Y-82000000D01*
X113977778Y-81777777D01*
X113755556Y-81777777D01*
X113755556Y-81333333D01*
X113533334Y-81333333D01*
X113533334Y-81555555D01*
X113311112Y-81555555D01*
X113311112Y-81777777D01*
X113088889Y-81777777D01*
X113088889Y-81555555D01*
X112866667Y-81555555D01*
X112866667Y-81333333D01*
X113088889Y-81333333D01*
X113088889Y-81111111D01*
X112866667Y-81111111D01*
X112866667Y-81333333D01*
X112644445Y-81333333D01*
X112644445Y-81555555D01*
X112200000Y-81555555D01*
X111755556Y-81555555D01*
X111755556Y-81777777D01*
X111533334Y-81777777D01*
X111533334Y-81333333D01*
X111311112Y-81333333D01*
X111311112Y-80888888D01*
X111088889Y-80888888D01*
X111088889Y-80666666D01*
X111977778Y-80666666D01*
X111977778Y-80888888D01*
X111755556Y-80888888D01*
X111755556Y-81111111D01*
X111533334Y-81111111D01*
X111533334Y-81333333D01*
X111755556Y-81333333D01*
X111755556Y-81111111D01*
X111977778Y-81111111D01*
X111977778Y-80888888D01*
X112200000Y-80888888D01*
X112200000Y-81333333D01*
X112644445Y-81333333D01*
X112644445Y-81111111D01*
X112866667Y-81111111D01*
X112866667Y-80888888D01*
X113311112Y-80888888D01*
X113533334Y-80888888D01*
X113533334Y-81111111D01*
X113977778Y-81111111D01*
X113977778Y-80888888D01*
X113755556Y-80888888D01*
X113755556Y-80222222D01*
X113533334Y-80222222D01*
X113533334Y-80666666D01*
X113311112Y-80666666D01*
X113311112Y-80888888D01*
X112866667Y-80888888D01*
X112866667Y-80222222D01*
X113088889Y-80222222D01*
X113088889Y-80666666D01*
X113311112Y-80666666D01*
X113311112Y-80000000D01*
X112866667Y-80000000D01*
X112866667Y-78888888D01*
X113311112Y-78888888D01*
X113311112Y-79111111D01*
X113088889Y-79111111D01*
X113088889Y-79333333D01*
X113311112Y-79333333D01*
X113311112Y-79555555D01*
X113755556Y-79555555D01*
X113755556Y-79333333D01*
X114200000Y-79333333D01*
X114200000Y-79111111D01*
X114422223Y-79111111D01*
X114422223Y-79333333D01*
X114866667Y-79333333D01*
X114866667Y-79111111D01*
X115088889Y-79111111D01*
X115088889Y-78888888D01*
X115311112Y-78888888D01*
X115311112Y-79111111D01*
X115755556Y-79111111D01*
X115755556Y-79555555D01*
X115311112Y-79555555D01*
X115311112Y-79777777D01*
X115088889Y-79777777D01*
X115088889Y-79333333D01*
X114866667Y-79333333D01*
X114866667Y-79555555D01*
X114422223Y-79555555D01*
X114422223Y-79333333D01*
X114200000Y-79333333D01*
X114200000Y-79555555D01*
X113755556Y-79555555D01*
X113755556Y-79777777D01*
X113533334Y-79777777D01*
X113533334Y-80000000D01*
X113755556Y-80000000D01*
X113755556Y-79777777D01*
X114200000Y-79777777D01*
X114200000Y-80000000D01*
X113977778Y-80000000D01*
X113977778Y-80888888D01*
X114200000Y-80888888D01*
X114200000Y-81333333D01*
X113977778Y-81333333D01*
X113977778Y-81555555D01*
X114422223Y-81555555D01*
X114422223Y-81111111D01*
X114866667Y-81111111D01*
X114866667Y-81555555D01*
X115088889Y-81555555D01*
X115088889Y-81777777D01*
X115311112Y-81777777D01*
X115311112Y-81333333D01*
X115533334Y-81333333D01*
X115533334Y-81777777D01*
X116200000Y-81777777D01*
X116200000Y-81333333D01*
X115977778Y-81333333D01*
X115977778Y-81555555D01*
X115755556Y-81555555D01*
X115755556Y-81111111D01*
X115533334Y-81111111D01*
X115533334Y-80888888D01*
X115311112Y-80888888D01*
X115311112Y-80444444D01*
X115533334Y-80444444D01*
X115533334Y-80222222D01*
X115755556Y-80222222D01*
X115755556Y-80888888D01*
X115977778Y-80888888D01*
X115977778Y-80000000D01*
X115533334Y-80000000D01*
X115533334Y-79777777D01*
X115755556Y-79777777D01*
X115755556Y-79555555D01*
X116200000Y-79555555D01*
X116200000Y-79777777D01*
X116422223Y-79777777D01*
X116422223Y-80000000D01*
X116866667Y-80000000D01*
X116866667Y-80222222D01*
X116644445Y-80222222D01*
X116644445Y-80666666D01*
X116866667Y-80666666D01*
X116866667Y-80888888D01*
X117755556Y-80888888D01*
X117755556Y-80666666D01*
X118422223Y-80666666D01*
X118422223Y-80888888D01*
X118644445Y-80888888D01*
X118644445Y-81111111D01*
X118422223Y-81111111D01*
X118422223Y-81333333D01*
X118200000Y-81333333D01*
X118200000Y-81555555D01*
X118422223Y-81555555D01*
X118422223Y-82444444D01*
G37*
G36*
X112644445Y-85777777D02*
G01*
X112422223Y-85777777D01*
X112422223Y-85555555D01*
X112644445Y-85555555D01*
X112644445Y-85777777D01*
G37*
G36*
X116644445Y-84222222D02*
G01*
X116422223Y-84222222D01*
X116422223Y-84000000D01*
X116644445Y-84000000D01*
X116644445Y-84222222D01*
G37*
G36*
X112422223Y-80888888D02*
G01*
X112200000Y-80888888D01*
X112200000Y-80666666D01*
X112422223Y-80666666D01*
X112422223Y-80888888D01*
G37*
G36*
X117977778Y-83555555D02*
G01*
X117755556Y-83555555D01*
X117755556Y-83777777D01*
X117311112Y-83777777D01*
X117311112Y-84000000D01*
X117088889Y-84000000D01*
X117088889Y-83555555D01*
X117533334Y-83555555D01*
X117533334Y-83333333D01*
X117977778Y-83333333D01*
X117977778Y-83555555D01*
G37*
G36*
X113533334Y-84222222D02*
G01*
X113311112Y-84222222D01*
X113311112Y-84000000D01*
X113533334Y-84000000D01*
X113533334Y-84222222D01*
G37*
G36*
X112200000Y-80000000D02*
G01*
X111533334Y-80000000D01*
X111533334Y-79333333D01*
X112200000Y-79333333D01*
X112200000Y-80000000D01*
G37*
G36*
X111311112Y-81777777D02*
G01*
X111088889Y-81777777D01*
X111088889Y-81333333D01*
X111311112Y-81333333D01*
X111311112Y-81777777D01*
G37*
G36*
X111755556Y-84222222D02*
G01*
X111977778Y-84222222D01*
X111977778Y-84444444D01*
X111533334Y-84444444D01*
X111533334Y-84666666D01*
X111311112Y-84666666D01*
X111311112Y-84444444D01*
X111088889Y-84444444D01*
X111088889Y-84222222D01*
X111311112Y-84222222D01*
X111311112Y-84000000D01*
X111755556Y-84000000D01*
X111755556Y-84222222D01*
G37*
G36*
X111311112Y-82666666D02*
G01*
X111088889Y-82666666D01*
X111088889Y-82444444D01*
X111311112Y-82444444D01*
X111311112Y-82666666D01*
G37*
G36*
X114644445Y-80000000D02*
G01*
X115088889Y-80000000D01*
X115088889Y-80222222D01*
X114866667Y-80222222D01*
X114866667Y-80888888D01*
X114200000Y-80888888D01*
X114200000Y-80000000D01*
X114422223Y-80000000D01*
X114422223Y-79777777D01*
X114644445Y-79777777D01*
X114644445Y-80000000D01*
X114422223Y-80000000D01*
X114422223Y-80444444D01*
X114644445Y-80444444D01*
X114644445Y-80000000D01*
G37*
G36*
X117311112Y-79333333D02*
G01*
X117088889Y-79333333D01*
X117088889Y-79555555D01*
X116866667Y-79555555D01*
X116866667Y-79777777D01*
X116644445Y-79777777D01*
X116644445Y-79333333D01*
X116866667Y-79333333D01*
X116866667Y-78888888D01*
X117533334Y-78888888D01*
X117533334Y-79777777D01*
X117088889Y-79777777D01*
X117088889Y-79555555D01*
X117311112Y-79555555D01*
X117311112Y-79333333D01*
G37*
G36*
X116644445Y-86444444D02*
G01*
X117088889Y-86444444D01*
X117088889Y-85777777D01*
X117533334Y-85777777D01*
X117533334Y-86222222D01*
X117311112Y-86222222D01*
X117311112Y-86666666D01*
X117088889Y-86666666D01*
X117088889Y-86888888D01*
X116644445Y-86888888D01*
X116644445Y-86666666D01*
X116422223Y-86666666D01*
X116422223Y-86888888D01*
X116644445Y-86888888D01*
X116644445Y-87111111D01*
X116200000Y-87111111D01*
X116200000Y-86666666D01*
X115977778Y-86666666D01*
X115977778Y-86888888D01*
X115755556Y-86888888D01*
X115755556Y-86444444D01*
X115533334Y-86444444D01*
X115533334Y-87111111D01*
X115311112Y-87111111D01*
X115311112Y-86888888D01*
X115088889Y-86888888D01*
X115088889Y-85777777D01*
X115533334Y-85777777D01*
X115533334Y-86222222D01*
X115755556Y-86222222D01*
X115755556Y-86000000D01*
X115977778Y-86000000D01*
X115977778Y-85777777D01*
X116200000Y-85777777D01*
X116200000Y-86000000D01*
X116422223Y-86000000D01*
X116422223Y-85777777D01*
X116644445Y-85777777D01*
X116644445Y-86000000D01*
X116422223Y-86000000D01*
X116422223Y-86222222D01*
X115977778Y-86222222D01*
X115977778Y-86444444D01*
X116422223Y-86444444D01*
X116422223Y-86222222D01*
X116644445Y-86222222D01*
X116644445Y-86444444D01*
G37*
G36*
X116866667Y-86000000D02*
G01*
X116866667Y-86222222D01*
X116644445Y-86222222D01*
X116644445Y-86000000D01*
X116866667Y-86000000D01*
G37*
G36*
X112200000Y-84888888D02*
G01*
X111977778Y-84888888D01*
X111977778Y-84444444D01*
X112200000Y-84444444D01*
X112200000Y-84888888D01*
G37*
G36*
X117533334Y-80444444D02*
G01*
X117311112Y-80444444D01*
X117311112Y-80000000D01*
X117533334Y-80000000D01*
X117533334Y-80444444D01*
G37*
G36*
X119311112Y-85333333D02*
G01*
X118866667Y-85333333D01*
X118866667Y-85111111D01*
X119311112Y-85111111D01*
X119311112Y-85333333D01*
G37*
G36*
X115311112Y-84666666D02*
G01*
X115088889Y-84666666D01*
X115088889Y-84444444D01*
X115311112Y-84444444D01*
X115311112Y-84666666D01*
G37*
G36*
X118866667Y-84222222D02*
G01*
X118644445Y-84222222D01*
X118644445Y-84000000D01*
X118866667Y-84000000D01*
X118866667Y-84222222D01*
G37*
G36*
X112866667Y-87111111D02*
G01*
X112644445Y-87111111D01*
X112644445Y-86888888D01*
X112866667Y-86888888D01*
X112866667Y-87111111D01*
G37*
G36*
X113533334Y-83777777D02*
G01*
X113311112Y-83777777D01*
X113311112Y-84000000D01*
X113088889Y-84000000D01*
X113088889Y-83777777D01*
X112866667Y-83777777D01*
X112866667Y-83555555D01*
X113533334Y-83555555D01*
X113533334Y-83777777D01*
G37*
G36*
X119311112Y-82000000D02*
G01*
X119088889Y-82000000D01*
X119088889Y-81333333D01*
X119311112Y-81333333D01*
X119311112Y-82000000D01*
G37*
G36*
X113311112Y-87111111D02*
G01*
X113088889Y-87111111D01*
X113088889Y-86666666D01*
X113311112Y-86666666D01*
X113311112Y-87111111D01*
G37*
G36*
X113533334Y-86000000D02*
G01*
X113311112Y-86000000D01*
X113311112Y-85777777D01*
X113533334Y-85777777D01*
X113533334Y-86000000D01*
G37*
G36*
X117088889Y-80444444D02*
G01*
X116866667Y-80444444D01*
X116866667Y-80222222D01*
X117088889Y-80222222D01*
X117088889Y-80444444D01*
G37*
G36*
X113755556Y-79333333D02*
G01*
X113533334Y-79333333D01*
X113533334Y-78888888D01*
X113755556Y-78888888D01*
X113755556Y-79333333D01*
G37*
G36*
X118866667Y-80000000D02*
G01*
X118200000Y-80000000D01*
X118200000Y-79333333D01*
X118866667Y-79333333D01*
X118866667Y-80000000D01*
G37*
G36*
X116644445Y-79111111D02*
G01*
X116422223Y-79111111D01*
X116422223Y-78888888D01*
X116644445Y-78888888D01*
X116644445Y-79111111D01*
G37*
G36*
X111755556Y-83333333D02*
G01*
X111977778Y-83333333D01*
X111977778Y-83555555D01*
X112200000Y-83555555D01*
X112200000Y-83777777D01*
X111755556Y-83777777D01*
X111755556Y-83555555D01*
X111533334Y-83555555D01*
X111533334Y-83777777D01*
X111311112Y-83777777D01*
X111311112Y-83555555D01*
X111088889Y-83555555D01*
X111088889Y-83333333D01*
X111311112Y-83333333D01*
X111311112Y-83111111D01*
X111755556Y-83111111D01*
X111755556Y-83333333D01*
G37*
G36*
X118866667Y-81555555D02*
G01*
X118644445Y-81555555D01*
X118644445Y-81333333D01*
X118866667Y-81333333D01*
X118866667Y-81555555D01*
G37*
G36*
X117088889Y-83555555D02*
G01*
X116866667Y-83555555D01*
X116866667Y-83333333D01*
X117088889Y-83333333D01*
X117088889Y-83555555D01*
G37*
G36*
X116200000Y-79111111D02*
G01*
X115977778Y-79111111D01*
X115977778Y-78888888D01*
X116200000Y-78888888D01*
X116200000Y-79111111D01*
G37*
G36*
X119311112Y-84666666D02*
G01*
X119088889Y-84666666D01*
X119088889Y-84444444D01*
X118866667Y-84444444D01*
X118866667Y-84222222D01*
X119088889Y-84222222D01*
X119088889Y-83555555D01*
X119311112Y-83555555D01*
X119311112Y-84666666D01*
G37*
G36*
X117533334Y-83333333D02*
G01*
X117311112Y-83333333D01*
X117311112Y-82888888D01*
X117533334Y-82888888D01*
X117533334Y-83333333D01*
G37*
G36*
X117311112Y-80666666D02*
G01*
X117088889Y-80666666D01*
X117088889Y-80444444D01*
X117311112Y-80444444D01*
X117311112Y-80666666D01*
G37*
G36*
X117755556Y-80444444D02*
G01*
X117755556Y-80222222D01*
X117977778Y-80222222D01*
X119088889Y-80222222D01*
X119088889Y-79111111D01*
X117977778Y-79111111D01*
X117977778Y-80222222D01*
X117755556Y-80222222D01*
X117755556Y-78888888D01*
X119311112Y-78888888D01*
X119311112Y-80444444D01*
X117755556Y-80444444D01*
G37*
G36*
X112866667Y-84000000D02*
G01*
X112422223Y-84000000D01*
X112422223Y-84222222D01*
X112866667Y-84222222D01*
X112866667Y-84444444D01*
X112200000Y-84444444D01*
X112200000Y-83777777D01*
X112866667Y-83777777D01*
X112866667Y-84000000D01*
G37*
G36*
X118866667Y-82000000D02*
G01*
X118644445Y-82000000D01*
X118644445Y-81777777D01*
X118866667Y-81777777D01*
X118866667Y-82000000D01*
G37*
G36*
X117533334Y-87111111D02*
G01*
X117311112Y-87111111D01*
X117311112Y-86666666D01*
X117533334Y-86666666D01*
X117533334Y-87111111D01*
G37*
G36*
X119311112Y-81111111D02*
G01*
X119088889Y-81111111D01*
X119088889Y-80888888D01*
X118866667Y-80888888D01*
X118866667Y-80666666D01*
X119311112Y-80666666D01*
X119311112Y-81111111D01*
G37*
G36*
X117977778Y-84888888D02*
G01*
X117755556Y-84888888D01*
X117755556Y-84666666D01*
X117977778Y-84666666D01*
X117977778Y-84888888D01*
G37*
%TD*%
M02*
