M48
; DRILL file {KiCad 6.0.10-86aedd382b~118~ubuntu20.04.1} date Tue 21 Feb 2023 10:20:45 PM PST
; FORMAT={-:-/ absolute / inch / decimal}
; #@! TF.CreationDate,2023-02-21T22:20:45-08:00
; #@! TF.GenerationSoftware,Kicad,Pcbnew,6.0.10-86aedd382b~118~ubuntu20.04.1
; #@! TF.FileFunction,Plated,1,2,PTH
FMAT,2
INCH
; #@! TA.AperFunction,Plated,PTH,ViaDrill
T1C0.0157
; #@! TA.AperFunction,Plated,PTH,ComponentDrill
T2C0.0315
; #@! TA.AperFunction,Plated,PTH,ComponentDrill
T3C0.0354
; #@! TA.AperFunction,Plated,PTH,ComponentDrill
T4C0.0394
%
G90
G05
T1
X4.5Y-2.6
X4.575Y-2.5715
X4.6709Y-2.9694
X4.7844Y-2.8941
X4.8177Y-3.6343
X4.85Y-2.5285
X4.875Y-2.925
X4.925Y-2.6
X4.9354Y-3.5602
X4.95Y-2.85
X4.9625Y-3.0875
X5.0244Y-3.5705
X5.1374Y-3.5748
X5.175Y-2.6
X5.1913Y-3.652
X5.2965Y-2.5285
X5.3291Y-3.4843
X5.3461Y-3.5941
X5.35Y-2.5535
X5.3986Y-2.625
X5.4514Y-2.5736
X5.6535Y-3.2933
X5.7606Y-3.1874
X5.7854Y-2.8134
X5.8Y-3.0969
X5.8386Y-3.274
X5.8496Y-2.8614
X5.863Y-2.6874
X5.8701Y-3.1083
X5.9421Y-2.8484
X6.0106Y-2.9366
X6.1264Y-2.8953
T2
X4.08Y-3.025
X4.15Y-2.45
X4.15Y-2.75
X4.25Y-2.45
X4.25Y-2.75
X4.35Y-2.45
X4.35Y-2.75
X4.45Y-2.45
X4.45Y-2.75
X4.48Y-3.025
X4.75Y-2.45
X4.75Y-2.75
X4.85Y-2.45
X4.85Y-2.75
X4.95Y-2.45
X4.95Y-2.75
X5.05Y-2.45
X5.05Y-2.75
X5.15Y-2.45
X5.15Y-2.75
X5.25Y-2.45
X5.25Y-2.75
X5.35Y-2.45
X5.35Y-2.75
X5.35Y-2.9624
X5.35Y-3.0411
X5.45Y-2.45
X5.45Y-2.75
X5.7Y-2.5695
X5.7Y-2.6482
X5.79Y-3.025
X6.19Y-3.025
T3
X4.045Y-3.504
X4.045Y-3.604
X4.29Y-3.25
X4.29Y-3.35
X4.29Y-3.76
X4.29Y-3.86
X4.54Y-3.505
X4.54Y-3.605
X5.025Y-3.3175
X5.025Y-3.4175
X5.0333Y-3.7
X5.0333Y-3.8
X5.48Y-3.7
X5.48Y-3.8
X5.5Y-3.3175
X5.5Y-3.4175
X5.975Y-3.3175
X5.975Y-3.4175
X5.975Y-3.7
X5.975Y-3.8
T4
X4.8281Y-3.06
X4.9266Y-2.9616
X5.025Y-3.06
X6.15Y-2.55
X6.15Y-2.65
T0
M30
